%TF.GenerationSoftware,KiCad,Pcbnew,7.0.7*%
%TF.CreationDate,2025-03-08T19:07:00+10:30*%
%TF.ProjectId,V9381_Breakout,56393338-315f-4427-9265-616b6f75742e,rev?*%
%TF.SameCoordinates,Original*%
%TF.FileFunction,Legend,Top*%
%TF.FilePolarity,Positive*%
%FSLAX46Y46*%
G04 Gerber Fmt 4.6, Leading zero omitted, Abs format (unit mm)*
G04 Created by KiCad (PCBNEW 7.0.7) date 2025-03-08 19:07:00*
%MOMM*%
%LPD*%
G01*
G04 APERTURE LIST*
%ADD10C,0.200000*%
%ADD11C,0.120000*%
%ADD12C,0.150000*%
G04 APERTURE END LIST*
D10*
X137331123Y-104364041D02*
X137331123Y-103983088D01*
X137559695Y-104440231D02*
X136759695Y-104173564D01*
X136759695Y-104173564D02*
X137559695Y-103906898D01*
X137559695Y-103221184D02*
X137559695Y-103678327D01*
X137559695Y-103449755D02*
X136759695Y-103449755D01*
X136759695Y-103449755D02*
X136873980Y-103525946D01*
X136873980Y-103525946D02*
X136950171Y-103602136D01*
X136950171Y-103602136D02*
X136988266Y-103678327D01*
X136721600Y-102306898D02*
X137750171Y-102992612D01*
X137483504Y-101583088D02*
X137521600Y-101621184D01*
X137521600Y-101621184D02*
X137559695Y-101735469D01*
X137559695Y-101735469D02*
X137559695Y-101811660D01*
X137559695Y-101811660D02*
X137521600Y-101925946D01*
X137521600Y-101925946D02*
X137445409Y-102002136D01*
X137445409Y-102002136D02*
X137369219Y-102040231D01*
X137369219Y-102040231D02*
X137216838Y-102078327D01*
X137216838Y-102078327D02*
X137102552Y-102078327D01*
X137102552Y-102078327D02*
X136950171Y-102040231D01*
X136950171Y-102040231D02*
X136873980Y-102002136D01*
X136873980Y-102002136D02*
X136797790Y-101925946D01*
X136797790Y-101925946D02*
X136759695Y-101811660D01*
X136759695Y-101811660D02*
X136759695Y-101735469D01*
X136759695Y-101735469D02*
X136797790Y-101621184D01*
X136797790Y-101621184D02*
X136835885Y-101583088D01*
X137521600Y-101278327D02*
X137559695Y-101164041D01*
X137559695Y-101164041D02*
X137559695Y-100973565D01*
X137559695Y-100973565D02*
X137521600Y-100897374D01*
X137521600Y-100897374D02*
X137483504Y-100859279D01*
X137483504Y-100859279D02*
X137407314Y-100821184D01*
X137407314Y-100821184D02*
X137331123Y-100821184D01*
X137331123Y-100821184D02*
X137254933Y-100859279D01*
X137254933Y-100859279D02*
X137216838Y-100897374D01*
X137216838Y-100897374D02*
X137178742Y-100973565D01*
X137178742Y-100973565D02*
X137140647Y-101125946D01*
X137140647Y-101125946D02*
X137102552Y-101202136D01*
X137102552Y-101202136D02*
X137064457Y-101240231D01*
X137064457Y-101240231D02*
X136988266Y-101278327D01*
X136988266Y-101278327D02*
X136912076Y-101278327D01*
X136912076Y-101278327D02*
X136835885Y-101240231D01*
X136835885Y-101240231D02*
X136797790Y-101202136D01*
X136797790Y-101202136D02*
X136759695Y-101125946D01*
X136759695Y-101125946D02*
X136759695Y-100935469D01*
X136759695Y-100935469D02*
X136797790Y-100821184D01*
X136537600Y-102150708D02*
X136537600Y-100748803D01*
X160655695Y-100261945D02*
X159855695Y-100261945D01*
X159855695Y-100261945D02*
X160427123Y-99995279D01*
X160427123Y-99995279D02*
X159855695Y-99728612D01*
X159855695Y-99728612D02*
X160655695Y-99728612D01*
X160427123Y-99385755D02*
X160427123Y-99004802D01*
X160655695Y-99461945D02*
X159855695Y-99195278D01*
X159855695Y-99195278D02*
X160655695Y-98928612D01*
X159855695Y-98738136D02*
X160655695Y-98204802D01*
X159855695Y-98204802D02*
X160655695Y-98738136D01*
X159855695Y-97404802D02*
X160655695Y-97138135D01*
X160655695Y-97138135D02*
X159855695Y-96871469D01*
X160655695Y-96604802D02*
X160122361Y-96604802D01*
X160274742Y-96604802D02*
X160198552Y-96566707D01*
X160198552Y-96566707D02*
X160160457Y-96528612D01*
X160160457Y-96528612D02*
X160122361Y-96452421D01*
X160122361Y-96452421D02*
X160122361Y-96376231D01*
X160655695Y-96109564D02*
X160122361Y-96109564D01*
X160198552Y-96109564D02*
X160160457Y-96071469D01*
X160160457Y-96071469D02*
X160122361Y-95995279D01*
X160122361Y-95995279D02*
X160122361Y-95880993D01*
X160122361Y-95880993D02*
X160160457Y-95804802D01*
X160160457Y-95804802D02*
X160236647Y-95766707D01*
X160236647Y-95766707D02*
X160655695Y-95766707D01*
X160236647Y-95766707D02*
X160160457Y-95728612D01*
X160160457Y-95728612D02*
X160122361Y-95652421D01*
X160122361Y-95652421D02*
X160122361Y-95538136D01*
X160122361Y-95538136D02*
X160160457Y-95461945D01*
X160160457Y-95461945D02*
X160236647Y-95423850D01*
X160236647Y-95423850D02*
X160655695Y-95423850D01*
X160617600Y-95080993D02*
X160655695Y-95004802D01*
X160655695Y-95004802D02*
X160655695Y-94852421D01*
X160655695Y-94852421D02*
X160617600Y-94776231D01*
X160617600Y-94776231D02*
X160541409Y-94738135D01*
X160541409Y-94738135D02*
X160503314Y-94738135D01*
X160503314Y-94738135D02*
X160427123Y-94776231D01*
X160427123Y-94776231D02*
X160389028Y-94852421D01*
X160389028Y-94852421D02*
X160389028Y-94966707D01*
X160389028Y-94966707D02*
X160350933Y-95042897D01*
X160350933Y-95042897D02*
X160274742Y-95080993D01*
X160274742Y-95080993D02*
X160236647Y-95080993D01*
X160236647Y-95080993D02*
X160160457Y-95042897D01*
X160160457Y-95042897D02*
X160122361Y-94966707D01*
X160122361Y-94966707D02*
X160122361Y-94852421D01*
X160122361Y-94852421D02*
X160160457Y-94776231D01*
X160236647Y-93785754D02*
X160236647Y-93176231D01*
X160465219Y-93176231D02*
X160465219Y-93785754D01*
X160655695Y-91766707D02*
X160655695Y-92223850D01*
X160655695Y-91995278D02*
X159855695Y-91995278D01*
X159855695Y-91995278D02*
X159969980Y-92071469D01*
X159969980Y-92071469D02*
X160046171Y-92147659D01*
X160046171Y-92147659D02*
X160084266Y-92223850D01*
X160122361Y-91080992D02*
X160655695Y-91080992D01*
X159817600Y-91271468D02*
X160389028Y-91461945D01*
X160389028Y-91461945D02*
X160389028Y-90966706D01*
X159855695Y-90509563D02*
X159855695Y-90433373D01*
X159855695Y-90433373D02*
X159893790Y-90357182D01*
X159893790Y-90357182D02*
X159931885Y-90319087D01*
X159931885Y-90319087D02*
X160008076Y-90280992D01*
X160008076Y-90280992D02*
X160160457Y-90242897D01*
X160160457Y-90242897D02*
X160350933Y-90242897D01*
X160350933Y-90242897D02*
X160503314Y-90280992D01*
X160503314Y-90280992D02*
X160579504Y-90319087D01*
X160579504Y-90319087D02*
X160617600Y-90357182D01*
X160617600Y-90357182D02*
X160655695Y-90433373D01*
X160655695Y-90433373D02*
X160655695Y-90509563D01*
X160655695Y-90509563D02*
X160617600Y-90585754D01*
X160617600Y-90585754D02*
X160579504Y-90623849D01*
X160579504Y-90623849D02*
X160503314Y-90661944D01*
X160503314Y-90661944D02*
X160350933Y-90700040D01*
X160350933Y-90700040D02*
X160160457Y-90700040D01*
X160160457Y-90700040D02*
X160008076Y-90661944D01*
X160008076Y-90661944D02*
X159931885Y-90623849D01*
X159931885Y-90623849D02*
X159893790Y-90585754D01*
X159893790Y-90585754D02*
X159855695Y-90509563D01*
X160655695Y-89900039D02*
X160122361Y-89900039D01*
X160198552Y-89900039D02*
X160160457Y-89861944D01*
X160160457Y-89861944D02*
X160122361Y-89785754D01*
X160122361Y-89785754D02*
X160122361Y-89671468D01*
X160122361Y-89671468D02*
X160160457Y-89595277D01*
X160160457Y-89595277D02*
X160236647Y-89557182D01*
X160236647Y-89557182D02*
X160655695Y-89557182D01*
X160236647Y-89557182D02*
X160160457Y-89519087D01*
X160160457Y-89519087D02*
X160122361Y-89442896D01*
X160122361Y-89442896D02*
X160122361Y-89328611D01*
X160122361Y-89328611D02*
X160160457Y-89252420D01*
X160160457Y-89252420D02*
X160236647Y-89214325D01*
X160236647Y-89214325D02*
X160655695Y-89214325D01*
X159855695Y-88947658D02*
X160655695Y-88680991D01*
X160655695Y-88680991D02*
X159855695Y-88414325D01*
X161143695Y-100376231D02*
X161943695Y-100109564D01*
X161943695Y-100109564D02*
X161143695Y-99842898D01*
X161943695Y-99538136D02*
X161943695Y-99385755D01*
X161943695Y-99385755D02*
X161905600Y-99309565D01*
X161905600Y-99309565D02*
X161867504Y-99271469D01*
X161867504Y-99271469D02*
X161753219Y-99195279D01*
X161753219Y-99195279D02*
X161600838Y-99157184D01*
X161600838Y-99157184D02*
X161296076Y-99157184D01*
X161296076Y-99157184D02*
X161219885Y-99195279D01*
X161219885Y-99195279D02*
X161181790Y-99233374D01*
X161181790Y-99233374D02*
X161143695Y-99309565D01*
X161143695Y-99309565D02*
X161143695Y-99461946D01*
X161143695Y-99461946D02*
X161181790Y-99538136D01*
X161181790Y-99538136D02*
X161219885Y-99576231D01*
X161219885Y-99576231D02*
X161296076Y-99614327D01*
X161296076Y-99614327D02*
X161486552Y-99614327D01*
X161486552Y-99614327D02*
X161562742Y-99576231D01*
X161562742Y-99576231D02*
X161600838Y-99538136D01*
X161600838Y-99538136D02*
X161638933Y-99461946D01*
X161638933Y-99461946D02*
X161638933Y-99309565D01*
X161638933Y-99309565D02*
X161600838Y-99233374D01*
X161600838Y-99233374D02*
X161562742Y-99195279D01*
X161562742Y-99195279D02*
X161486552Y-99157184D01*
X161143695Y-98890517D02*
X161143695Y-98395279D01*
X161143695Y-98395279D02*
X161448457Y-98661945D01*
X161448457Y-98661945D02*
X161448457Y-98547660D01*
X161448457Y-98547660D02*
X161486552Y-98471469D01*
X161486552Y-98471469D02*
X161524647Y-98433374D01*
X161524647Y-98433374D02*
X161600838Y-98395279D01*
X161600838Y-98395279D02*
X161791314Y-98395279D01*
X161791314Y-98395279D02*
X161867504Y-98433374D01*
X161867504Y-98433374D02*
X161905600Y-98471469D01*
X161905600Y-98471469D02*
X161943695Y-98547660D01*
X161943695Y-98547660D02*
X161943695Y-98776231D01*
X161943695Y-98776231D02*
X161905600Y-98852422D01*
X161905600Y-98852422D02*
X161867504Y-98890517D01*
X161486552Y-97938136D02*
X161448457Y-98014326D01*
X161448457Y-98014326D02*
X161410361Y-98052421D01*
X161410361Y-98052421D02*
X161334171Y-98090517D01*
X161334171Y-98090517D02*
X161296076Y-98090517D01*
X161296076Y-98090517D02*
X161219885Y-98052421D01*
X161219885Y-98052421D02*
X161181790Y-98014326D01*
X161181790Y-98014326D02*
X161143695Y-97938136D01*
X161143695Y-97938136D02*
X161143695Y-97785755D01*
X161143695Y-97785755D02*
X161181790Y-97709564D01*
X161181790Y-97709564D02*
X161219885Y-97671469D01*
X161219885Y-97671469D02*
X161296076Y-97633374D01*
X161296076Y-97633374D02*
X161334171Y-97633374D01*
X161334171Y-97633374D02*
X161410361Y-97671469D01*
X161410361Y-97671469D02*
X161448457Y-97709564D01*
X161448457Y-97709564D02*
X161486552Y-97785755D01*
X161486552Y-97785755D02*
X161486552Y-97938136D01*
X161486552Y-97938136D02*
X161524647Y-98014326D01*
X161524647Y-98014326D02*
X161562742Y-98052421D01*
X161562742Y-98052421D02*
X161638933Y-98090517D01*
X161638933Y-98090517D02*
X161791314Y-98090517D01*
X161791314Y-98090517D02*
X161867504Y-98052421D01*
X161867504Y-98052421D02*
X161905600Y-98014326D01*
X161905600Y-98014326D02*
X161943695Y-97938136D01*
X161943695Y-97938136D02*
X161943695Y-97785755D01*
X161943695Y-97785755D02*
X161905600Y-97709564D01*
X161905600Y-97709564D02*
X161867504Y-97671469D01*
X161867504Y-97671469D02*
X161791314Y-97633374D01*
X161791314Y-97633374D02*
X161638933Y-97633374D01*
X161638933Y-97633374D02*
X161562742Y-97671469D01*
X161562742Y-97671469D02*
X161524647Y-97709564D01*
X161524647Y-97709564D02*
X161486552Y-97785755D01*
X161943695Y-96871469D02*
X161943695Y-97328612D01*
X161943695Y-97100040D02*
X161143695Y-97100040D01*
X161143695Y-97100040D02*
X161257980Y-97176231D01*
X161257980Y-97176231D02*
X161334171Y-97252421D01*
X161334171Y-97252421D02*
X161372266Y-97328612D01*
X161524647Y-95652421D02*
X161562742Y-95538135D01*
X161562742Y-95538135D02*
X161600838Y-95500040D01*
X161600838Y-95500040D02*
X161677028Y-95461944D01*
X161677028Y-95461944D02*
X161791314Y-95461944D01*
X161791314Y-95461944D02*
X161867504Y-95500040D01*
X161867504Y-95500040D02*
X161905600Y-95538135D01*
X161905600Y-95538135D02*
X161943695Y-95614325D01*
X161943695Y-95614325D02*
X161943695Y-95919087D01*
X161943695Y-95919087D02*
X161143695Y-95919087D01*
X161143695Y-95919087D02*
X161143695Y-95652421D01*
X161143695Y-95652421D02*
X161181790Y-95576230D01*
X161181790Y-95576230D02*
X161219885Y-95538135D01*
X161219885Y-95538135D02*
X161296076Y-95500040D01*
X161296076Y-95500040D02*
X161372266Y-95500040D01*
X161372266Y-95500040D02*
X161448457Y-95538135D01*
X161448457Y-95538135D02*
X161486552Y-95576230D01*
X161486552Y-95576230D02*
X161524647Y-95652421D01*
X161524647Y-95652421D02*
X161524647Y-95919087D01*
X161943695Y-95119087D02*
X161410361Y-95119087D01*
X161562742Y-95119087D02*
X161486552Y-95080992D01*
X161486552Y-95080992D02*
X161448457Y-95042897D01*
X161448457Y-95042897D02*
X161410361Y-94966706D01*
X161410361Y-94966706D02*
X161410361Y-94890516D01*
X161905600Y-94319087D02*
X161943695Y-94395278D01*
X161943695Y-94395278D02*
X161943695Y-94547659D01*
X161943695Y-94547659D02*
X161905600Y-94623849D01*
X161905600Y-94623849D02*
X161829409Y-94661945D01*
X161829409Y-94661945D02*
X161524647Y-94661945D01*
X161524647Y-94661945D02*
X161448457Y-94623849D01*
X161448457Y-94623849D02*
X161410361Y-94547659D01*
X161410361Y-94547659D02*
X161410361Y-94395278D01*
X161410361Y-94395278D02*
X161448457Y-94319087D01*
X161448457Y-94319087D02*
X161524647Y-94280992D01*
X161524647Y-94280992D02*
X161600838Y-94280992D01*
X161600838Y-94280992D02*
X161677028Y-94661945D01*
X161943695Y-93595278D02*
X161524647Y-93595278D01*
X161524647Y-93595278D02*
X161448457Y-93633373D01*
X161448457Y-93633373D02*
X161410361Y-93709564D01*
X161410361Y-93709564D02*
X161410361Y-93861945D01*
X161410361Y-93861945D02*
X161448457Y-93938135D01*
X161905600Y-93595278D02*
X161943695Y-93671469D01*
X161943695Y-93671469D02*
X161943695Y-93861945D01*
X161943695Y-93861945D02*
X161905600Y-93938135D01*
X161905600Y-93938135D02*
X161829409Y-93976231D01*
X161829409Y-93976231D02*
X161753219Y-93976231D01*
X161753219Y-93976231D02*
X161677028Y-93938135D01*
X161677028Y-93938135D02*
X161638933Y-93861945D01*
X161638933Y-93861945D02*
X161638933Y-93671469D01*
X161638933Y-93671469D02*
X161600838Y-93595278D01*
X161943695Y-93214325D02*
X161143695Y-93214325D01*
X161638933Y-93138135D02*
X161943695Y-92909563D01*
X161410361Y-92909563D02*
X161715123Y-93214325D01*
X161943695Y-92452421D02*
X161905600Y-92528611D01*
X161905600Y-92528611D02*
X161867504Y-92566706D01*
X161867504Y-92566706D02*
X161791314Y-92604802D01*
X161791314Y-92604802D02*
X161562742Y-92604802D01*
X161562742Y-92604802D02*
X161486552Y-92566706D01*
X161486552Y-92566706D02*
X161448457Y-92528611D01*
X161448457Y-92528611D02*
X161410361Y-92452421D01*
X161410361Y-92452421D02*
X161410361Y-92338135D01*
X161410361Y-92338135D02*
X161448457Y-92261944D01*
X161448457Y-92261944D02*
X161486552Y-92223849D01*
X161486552Y-92223849D02*
X161562742Y-92185754D01*
X161562742Y-92185754D02*
X161791314Y-92185754D01*
X161791314Y-92185754D02*
X161867504Y-92223849D01*
X161867504Y-92223849D02*
X161905600Y-92261944D01*
X161905600Y-92261944D02*
X161943695Y-92338135D01*
X161943695Y-92338135D02*
X161943695Y-92452421D01*
X161410361Y-91500039D02*
X161943695Y-91500039D01*
X161410361Y-91842896D02*
X161829409Y-91842896D01*
X161829409Y-91842896D02*
X161905600Y-91804801D01*
X161905600Y-91804801D02*
X161943695Y-91728611D01*
X161943695Y-91728611D02*
X161943695Y-91614325D01*
X161943695Y-91614325D02*
X161905600Y-91538134D01*
X161905600Y-91538134D02*
X161867504Y-91500039D01*
X161410361Y-91233372D02*
X161410361Y-90928610D01*
X161143695Y-91119086D02*
X161829409Y-91119086D01*
X161829409Y-91119086D02*
X161905600Y-91080991D01*
X161905600Y-91080991D02*
X161943695Y-91004801D01*
X161943695Y-91004801D02*
X161943695Y-90928610D01*
X151706054Y-104539695D02*
X151706054Y-103739695D01*
X152048910Y-104311123D02*
X152429863Y-104311123D01*
X151972720Y-104539695D02*
X152239387Y-103739695D01*
X152239387Y-103739695D02*
X152506053Y-104539695D01*
X152772720Y-104539695D02*
X152772720Y-103739695D01*
X152772720Y-103739695D02*
X153229863Y-104539695D01*
X153229863Y-104539695D02*
X153229863Y-103739695D01*
X144125695Y-104440231D02*
X144125695Y-103983088D01*
X144925695Y-104211660D02*
X144125695Y-104211660D01*
X144125695Y-103792612D02*
X144925695Y-103259278D01*
X144125695Y-103259278D02*
X144925695Y-103792612D01*
X144087600Y-102383088D02*
X145116171Y-103068802D01*
X144925695Y-102116421D02*
X144125695Y-102116421D01*
X144125695Y-102116421D02*
X144697123Y-101849755D01*
X144697123Y-101849755D02*
X144125695Y-101583088D01*
X144125695Y-101583088D02*
X144925695Y-101583088D01*
X144925695Y-101202135D02*
X144125695Y-101202135D01*
X139871123Y-104364041D02*
X139871123Y-103983088D01*
X140099695Y-104440231D02*
X139299695Y-104173564D01*
X139299695Y-104173564D02*
X140099695Y-103906898D01*
X139299695Y-103487850D02*
X139299695Y-103411660D01*
X139299695Y-103411660D02*
X139337790Y-103335469D01*
X139337790Y-103335469D02*
X139375885Y-103297374D01*
X139375885Y-103297374D02*
X139452076Y-103259279D01*
X139452076Y-103259279D02*
X139604457Y-103221184D01*
X139604457Y-103221184D02*
X139794933Y-103221184D01*
X139794933Y-103221184D02*
X139947314Y-103259279D01*
X139947314Y-103259279D02*
X140023504Y-103297374D01*
X140023504Y-103297374D02*
X140061600Y-103335469D01*
X140061600Y-103335469D02*
X140099695Y-103411660D01*
X140099695Y-103411660D02*
X140099695Y-103487850D01*
X140099695Y-103487850D02*
X140061600Y-103564041D01*
X140061600Y-103564041D02*
X140023504Y-103602136D01*
X140023504Y-103602136D02*
X139947314Y-103640231D01*
X139947314Y-103640231D02*
X139794933Y-103678327D01*
X139794933Y-103678327D02*
X139604457Y-103678327D01*
X139604457Y-103678327D02*
X139452076Y-103640231D01*
X139452076Y-103640231D02*
X139375885Y-103602136D01*
X139375885Y-103602136D02*
X139337790Y-103564041D01*
X139337790Y-103564041D02*
X139299695Y-103487850D01*
X139261600Y-102306898D02*
X140290171Y-102992612D01*
X140061600Y-102078327D02*
X140099695Y-101964041D01*
X140099695Y-101964041D02*
X140099695Y-101773565D01*
X140099695Y-101773565D02*
X140061600Y-101697374D01*
X140061600Y-101697374D02*
X140023504Y-101659279D01*
X140023504Y-101659279D02*
X139947314Y-101621184D01*
X139947314Y-101621184D02*
X139871123Y-101621184D01*
X139871123Y-101621184D02*
X139794933Y-101659279D01*
X139794933Y-101659279D02*
X139756838Y-101697374D01*
X139756838Y-101697374D02*
X139718742Y-101773565D01*
X139718742Y-101773565D02*
X139680647Y-101925946D01*
X139680647Y-101925946D02*
X139642552Y-102002136D01*
X139642552Y-102002136D02*
X139604457Y-102040231D01*
X139604457Y-102040231D02*
X139528266Y-102078327D01*
X139528266Y-102078327D02*
X139452076Y-102078327D01*
X139452076Y-102078327D02*
X139375885Y-102040231D01*
X139375885Y-102040231D02*
X139337790Y-102002136D01*
X139337790Y-102002136D02*
X139299695Y-101925946D01*
X139299695Y-101925946D02*
X139299695Y-101735469D01*
X139299695Y-101735469D02*
X139337790Y-101621184D01*
X140023504Y-100821183D02*
X140061600Y-100859279D01*
X140061600Y-100859279D02*
X140099695Y-100973564D01*
X140099695Y-100973564D02*
X140099695Y-101049755D01*
X140099695Y-101049755D02*
X140061600Y-101164041D01*
X140061600Y-101164041D02*
X139985409Y-101240231D01*
X139985409Y-101240231D02*
X139909219Y-101278326D01*
X139909219Y-101278326D02*
X139756838Y-101316422D01*
X139756838Y-101316422D02*
X139642552Y-101316422D01*
X139642552Y-101316422D02*
X139490171Y-101278326D01*
X139490171Y-101278326D02*
X139413980Y-101240231D01*
X139413980Y-101240231D02*
X139337790Y-101164041D01*
X139337790Y-101164041D02*
X139299695Y-101049755D01*
X139299695Y-101049755D02*
X139299695Y-100973564D01*
X139299695Y-100973564D02*
X139337790Y-100859279D01*
X139337790Y-100859279D02*
X139375885Y-100821183D01*
X140099695Y-100478326D02*
X139299695Y-100478326D01*
X140099695Y-100021183D02*
X139642552Y-100364041D01*
X139299695Y-100021183D02*
X139756838Y-100478326D01*
X149166054Y-103739695D02*
X149166054Y-104387314D01*
X149166054Y-104387314D02*
X149204149Y-104463504D01*
X149204149Y-104463504D02*
X149242244Y-104501600D01*
X149242244Y-104501600D02*
X149318435Y-104539695D01*
X149318435Y-104539695D02*
X149470816Y-104539695D01*
X149470816Y-104539695D02*
X149547006Y-104501600D01*
X149547006Y-104501600D02*
X149585101Y-104463504D01*
X149585101Y-104463504D02*
X149623197Y-104387314D01*
X149623197Y-104387314D02*
X149623197Y-103739695D01*
X150004149Y-104539695D02*
X150004149Y-103739695D01*
X150004149Y-103739695D02*
X150461292Y-104539695D01*
X150461292Y-104539695D02*
X150461292Y-103739695D01*
X146880054Y-103739695D02*
X146880054Y-104387314D01*
X146880054Y-104387314D02*
X146918149Y-104463504D01*
X146918149Y-104463504D02*
X146956244Y-104501600D01*
X146956244Y-104501600D02*
X147032435Y-104539695D01*
X147032435Y-104539695D02*
X147184816Y-104539695D01*
X147184816Y-104539695D02*
X147261006Y-104501600D01*
X147261006Y-104501600D02*
X147299101Y-104463504D01*
X147299101Y-104463504D02*
X147337197Y-104387314D01*
X147337197Y-104387314D02*
X147337197Y-103739695D01*
X147718149Y-104539695D02*
X147718149Y-103739695D01*
X147718149Y-103739695D02*
X148022911Y-103739695D01*
X148022911Y-103739695D02*
X148099101Y-103777790D01*
X148099101Y-103777790D02*
X148137196Y-103815885D01*
X148137196Y-103815885D02*
X148175292Y-103892076D01*
X148175292Y-103892076D02*
X148175292Y-104006361D01*
X148175292Y-104006361D02*
X148137196Y-104082552D01*
X148137196Y-104082552D02*
X148099101Y-104120647D01*
X148099101Y-104120647D02*
X148022911Y-104158742D01*
X148022911Y-104158742D02*
X147718149Y-104158742D01*
X142639695Y-103868802D02*
X142258742Y-104135469D01*
X142639695Y-104325945D02*
X141839695Y-104325945D01*
X141839695Y-104325945D02*
X141839695Y-104021183D01*
X141839695Y-104021183D02*
X141877790Y-103944993D01*
X141877790Y-103944993D02*
X141915885Y-103906898D01*
X141915885Y-103906898D02*
X141992076Y-103868802D01*
X141992076Y-103868802D02*
X142106361Y-103868802D01*
X142106361Y-103868802D02*
X142182552Y-103906898D01*
X142182552Y-103906898D02*
X142220647Y-103944993D01*
X142220647Y-103944993D02*
X142258742Y-104021183D01*
X142258742Y-104021183D02*
X142258742Y-104325945D01*
X141839695Y-103602136D02*
X142639695Y-103068802D01*
X141839695Y-103068802D02*
X142639695Y-103602136D01*
X141801600Y-102192612D02*
X142830171Y-102878326D01*
X142639695Y-101925945D02*
X141839695Y-101925945D01*
X141839695Y-101925945D02*
X142411123Y-101659279D01*
X142411123Y-101659279D02*
X141839695Y-101392612D01*
X141839695Y-101392612D02*
X142639695Y-101392612D01*
X141839695Y-100859278D02*
X141839695Y-100706897D01*
X141839695Y-100706897D02*
X141877790Y-100630707D01*
X141877790Y-100630707D02*
X141953980Y-100554516D01*
X141953980Y-100554516D02*
X142106361Y-100516421D01*
X142106361Y-100516421D02*
X142373028Y-100516421D01*
X142373028Y-100516421D02*
X142525409Y-100554516D01*
X142525409Y-100554516D02*
X142601600Y-100630707D01*
X142601600Y-100630707D02*
X142639695Y-100706897D01*
X142639695Y-100706897D02*
X142639695Y-100859278D01*
X142639695Y-100859278D02*
X142601600Y-100935469D01*
X142601600Y-100935469D02*
X142525409Y-101011659D01*
X142525409Y-101011659D02*
X142373028Y-101049755D01*
X142373028Y-101049755D02*
X142106361Y-101049755D01*
X142106361Y-101049755D02*
X141953980Y-101011659D01*
X141953980Y-101011659D02*
X141877790Y-100935469D01*
X141877790Y-100935469D02*
X141839695Y-100859278D01*
X133557768Y-103739695D02*
X133824435Y-104539695D01*
X133824435Y-104539695D02*
X134091101Y-103739695D01*
X134357768Y-104539695D02*
X134357768Y-103739695D01*
X134738720Y-104539695D02*
X134738720Y-103739695D01*
X134738720Y-103739695D02*
X135195863Y-104539695D01*
X135195863Y-104539695D02*
X135195863Y-103739695D01*
X156951101Y-103777790D02*
X156874911Y-103739695D01*
X156874911Y-103739695D02*
X156760625Y-103739695D01*
X156760625Y-103739695D02*
X156646339Y-103777790D01*
X156646339Y-103777790D02*
X156570149Y-103853980D01*
X156570149Y-103853980D02*
X156532054Y-103930171D01*
X156532054Y-103930171D02*
X156493958Y-104082552D01*
X156493958Y-104082552D02*
X156493958Y-104196838D01*
X156493958Y-104196838D02*
X156532054Y-104349219D01*
X156532054Y-104349219D02*
X156570149Y-104425409D01*
X156570149Y-104425409D02*
X156646339Y-104501600D01*
X156646339Y-104501600D02*
X156760625Y-104539695D01*
X156760625Y-104539695D02*
X156836816Y-104539695D01*
X156836816Y-104539695D02*
X156951101Y-104501600D01*
X156951101Y-104501600D02*
X156989197Y-104463504D01*
X156989197Y-104463504D02*
X156989197Y-104196838D01*
X156989197Y-104196838D02*
X156836816Y-104196838D01*
X157332054Y-104539695D02*
X157332054Y-103739695D01*
X157332054Y-103739695D02*
X157789197Y-104539695D01*
X157789197Y-104539695D02*
X157789197Y-103739695D01*
X158170149Y-104539695D02*
X158170149Y-103739695D01*
X158170149Y-103739695D02*
X158360625Y-103739695D01*
X158360625Y-103739695D02*
X158474911Y-103777790D01*
X158474911Y-103777790D02*
X158551101Y-103853980D01*
X158551101Y-103853980D02*
X158589196Y-103930171D01*
X158589196Y-103930171D02*
X158627292Y-104082552D01*
X158627292Y-104082552D02*
X158627292Y-104196838D01*
X158627292Y-104196838D02*
X158589196Y-104349219D01*
X158589196Y-104349219D02*
X158551101Y-104425409D01*
X158551101Y-104425409D02*
X158474911Y-104501600D01*
X158474911Y-104501600D02*
X158360625Y-104539695D01*
X158360625Y-104539695D02*
X158170149Y-104539695D01*
X154246054Y-104539695D02*
X154246054Y-103739695D01*
X154588910Y-104311123D02*
X154969863Y-104311123D01*
X154512720Y-104539695D02*
X154779387Y-103739695D01*
X154779387Y-103739695D02*
X155046053Y-104539695D01*
X155312720Y-104539695D02*
X155312720Y-103739695D01*
X155312720Y-103739695D02*
X155617482Y-103739695D01*
X155617482Y-103739695D02*
X155693672Y-103777790D01*
X155693672Y-103777790D02*
X155731767Y-103815885D01*
X155731767Y-103815885D02*
X155769863Y-103892076D01*
X155769863Y-103892076D02*
X155769863Y-104006361D01*
X155769863Y-104006361D02*
X155731767Y-104082552D01*
X155731767Y-104082552D02*
X155693672Y-104120647D01*
X155693672Y-104120647D02*
X155617482Y-104158742D01*
X155617482Y-104158742D02*
X155312720Y-104158742D01*
X146177380Y-101636695D02*
X146710714Y-102436695D01*
X146710714Y-101636695D02*
X146177380Y-102436695D01*
X147434523Y-102436695D02*
X146977380Y-102436695D01*
X147205952Y-102436695D02*
X147205952Y-101636695D01*
X147205952Y-101636695D02*
X147129761Y-101750980D01*
X147129761Y-101750980D02*
X147053571Y-101827171D01*
X147053571Y-101827171D02*
X146977380Y-101865266D01*
X156775667Y-94009504D02*
X156737571Y-94047600D01*
X156737571Y-94047600D02*
X156623286Y-94085695D01*
X156623286Y-94085695D02*
X156547095Y-94085695D01*
X156547095Y-94085695D02*
X156432809Y-94047600D01*
X156432809Y-94047600D02*
X156356619Y-93971409D01*
X156356619Y-93971409D02*
X156318524Y-93895219D01*
X156318524Y-93895219D02*
X156280428Y-93742838D01*
X156280428Y-93742838D02*
X156280428Y-93628552D01*
X156280428Y-93628552D02*
X156318524Y-93476171D01*
X156318524Y-93476171D02*
X156356619Y-93399980D01*
X156356619Y-93399980D02*
X156432809Y-93323790D01*
X156432809Y-93323790D02*
X156547095Y-93285695D01*
X156547095Y-93285695D02*
X156623286Y-93285695D01*
X156623286Y-93285695D02*
X156737571Y-93323790D01*
X156737571Y-93323790D02*
X156775667Y-93361885D01*
X157537571Y-94085695D02*
X157080428Y-94085695D01*
X157309000Y-94085695D02*
X157309000Y-93285695D01*
X157309000Y-93285695D02*
X157232809Y-93399980D01*
X157232809Y-93399980D02*
X157156619Y-93476171D01*
X157156619Y-93476171D02*
X157080428Y-93514266D01*
X156775667Y-97133695D02*
X156509000Y-96752742D01*
X156318524Y-97133695D02*
X156318524Y-96333695D01*
X156318524Y-96333695D02*
X156623286Y-96333695D01*
X156623286Y-96333695D02*
X156699476Y-96371790D01*
X156699476Y-96371790D02*
X156737571Y-96409885D01*
X156737571Y-96409885D02*
X156775667Y-96486076D01*
X156775667Y-96486076D02*
X156775667Y-96600361D01*
X156775667Y-96600361D02*
X156737571Y-96676552D01*
X156737571Y-96676552D02*
X156699476Y-96714647D01*
X156699476Y-96714647D02*
X156623286Y-96752742D01*
X156623286Y-96752742D02*
X156318524Y-96752742D01*
X157537571Y-97133695D02*
X157080428Y-97133695D01*
X157309000Y-97133695D02*
X157309000Y-96333695D01*
X157309000Y-96333695D02*
X157232809Y-96447980D01*
X157232809Y-96447980D02*
X157156619Y-96524171D01*
X157156619Y-96524171D02*
X157080428Y-96562266D01*
X156775667Y-95609695D02*
X156509000Y-95228742D01*
X156318524Y-95609695D02*
X156318524Y-94809695D01*
X156318524Y-94809695D02*
X156623286Y-94809695D01*
X156623286Y-94809695D02*
X156699476Y-94847790D01*
X156699476Y-94847790D02*
X156737571Y-94885885D01*
X156737571Y-94885885D02*
X156775667Y-94962076D01*
X156775667Y-94962076D02*
X156775667Y-95076361D01*
X156775667Y-95076361D02*
X156737571Y-95152552D01*
X156737571Y-95152552D02*
X156699476Y-95190647D01*
X156699476Y-95190647D02*
X156623286Y-95228742D01*
X156623286Y-95228742D02*
X156318524Y-95228742D01*
X157042333Y-94809695D02*
X157537571Y-94809695D01*
X157537571Y-94809695D02*
X157270905Y-95114457D01*
X157270905Y-95114457D02*
X157385190Y-95114457D01*
X157385190Y-95114457D02*
X157461381Y-95152552D01*
X157461381Y-95152552D02*
X157499476Y-95190647D01*
X157499476Y-95190647D02*
X157537571Y-95266838D01*
X157537571Y-95266838D02*
X157537571Y-95457314D01*
X157537571Y-95457314D02*
X157499476Y-95533504D01*
X157499476Y-95533504D02*
X157461381Y-95571600D01*
X157461381Y-95571600D02*
X157385190Y-95609695D01*
X157385190Y-95609695D02*
X157156619Y-95609695D01*
X157156619Y-95609695D02*
X157080428Y-95571600D01*
X157080428Y-95571600D02*
X157042333Y-95533504D01*
X149889504Y-96399332D02*
X149927600Y-96437428D01*
X149927600Y-96437428D02*
X149965695Y-96551713D01*
X149965695Y-96551713D02*
X149965695Y-96627904D01*
X149965695Y-96627904D02*
X149927600Y-96742190D01*
X149927600Y-96742190D02*
X149851409Y-96818380D01*
X149851409Y-96818380D02*
X149775219Y-96856475D01*
X149775219Y-96856475D02*
X149622838Y-96894571D01*
X149622838Y-96894571D02*
X149508552Y-96894571D01*
X149508552Y-96894571D02*
X149356171Y-96856475D01*
X149356171Y-96856475D02*
X149279980Y-96818380D01*
X149279980Y-96818380D02*
X149203790Y-96742190D01*
X149203790Y-96742190D02*
X149165695Y-96627904D01*
X149165695Y-96627904D02*
X149165695Y-96551713D01*
X149165695Y-96551713D02*
X149203790Y-96437428D01*
X149203790Y-96437428D02*
X149241885Y-96399332D01*
X149165695Y-96132666D02*
X149165695Y-95637428D01*
X149165695Y-95637428D02*
X149470457Y-95904094D01*
X149470457Y-95904094D02*
X149470457Y-95789809D01*
X149470457Y-95789809D02*
X149508552Y-95713618D01*
X149508552Y-95713618D02*
X149546647Y-95675523D01*
X149546647Y-95675523D02*
X149622838Y-95637428D01*
X149622838Y-95637428D02*
X149813314Y-95637428D01*
X149813314Y-95637428D02*
X149889504Y-95675523D01*
X149889504Y-95675523D02*
X149927600Y-95713618D01*
X149927600Y-95713618D02*
X149965695Y-95789809D01*
X149965695Y-95789809D02*
X149965695Y-96018380D01*
X149965695Y-96018380D02*
X149927600Y-96094571D01*
X149927600Y-96094571D02*
X149889504Y-96132666D01*
X149635504Y-84588285D02*
X149673600Y-84626381D01*
X149673600Y-84626381D02*
X149711695Y-84740666D01*
X149711695Y-84740666D02*
X149711695Y-84816857D01*
X149711695Y-84816857D02*
X149673600Y-84931143D01*
X149673600Y-84931143D02*
X149597409Y-85007333D01*
X149597409Y-85007333D02*
X149521219Y-85045428D01*
X149521219Y-85045428D02*
X149368838Y-85083524D01*
X149368838Y-85083524D02*
X149254552Y-85083524D01*
X149254552Y-85083524D02*
X149102171Y-85045428D01*
X149102171Y-85045428D02*
X149025980Y-85007333D01*
X149025980Y-85007333D02*
X148949790Y-84931143D01*
X148949790Y-84931143D02*
X148911695Y-84816857D01*
X148911695Y-84816857D02*
X148911695Y-84740666D01*
X148911695Y-84740666D02*
X148949790Y-84626381D01*
X148949790Y-84626381D02*
X148987885Y-84588285D01*
X149711695Y-83826381D02*
X149711695Y-84283524D01*
X149711695Y-84054952D02*
X148911695Y-84054952D01*
X148911695Y-84054952D02*
X149025980Y-84131143D01*
X149025980Y-84131143D02*
X149102171Y-84207333D01*
X149102171Y-84207333D02*
X149140266Y-84283524D01*
X148911695Y-83331142D02*
X148911695Y-83254952D01*
X148911695Y-83254952D02*
X148949790Y-83178761D01*
X148949790Y-83178761D02*
X148987885Y-83140666D01*
X148987885Y-83140666D02*
X149064076Y-83102571D01*
X149064076Y-83102571D02*
X149216457Y-83064476D01*
X149216457Y-83064476D02*
X149406933Y-83064476D01*
X149406933Y-83064476D02*
X149559314Y-83102571D01*
X149559314Y-83102571D02*
X149635504Y-83140666D01*
X149635504Y-83140666D02*
X149673600Y-83178761D01*
X149673600Y-83178761D02*
X149711695Y-83254952D01*
X149711695Y-83254952D02*
X149711695Y-83331142D01*
X149711695Y-83331142D02*
X149673600Y-83407333D01*
X149673600Y-83407333D02*
X149635504Y-83445428D01*
X149635504Y-83445428D02*
X149559314Y-83483523D01*
X149559314Y-83483523D02*
X149406933Y-83521619D01*
X149406933Y-83521619D02*
X149216457Y-83521619D01*
X149216457Y-83521619D02*
X149064076Y-83483523D01*
X149064076Y-83483523D02*
X148987885Y-83445428D01*
X148987885Y-83445428D02*
X148949790Y-83407333D01*
X148949790Y-83407333D02*
X148911695Y-83331142D01*
X154044667Y-102721695D02*
X153778000Y-102340742D01*
X153587524Y-102721695D02*
X153587524Y-101921695D01*
X153587524Y-101921695D02*
X153892286Y-101921695D01*
X153892286Y-101921695D02*
X153968476Y-101959790D01*
X153968476Y-101959790D02*
X154006571Y-101997885D01*
X154006571Y-101997885D02*
X154044667Y-102074076D01*
X154044667Y-102074076D02*
X154044667Y-102188361D01*
X154044667Y-102188361D02*
X154006571Y-102264552D01*
X154006571Y-102264552D02*
X153968476Y-102302647D01*
X153968476Y-102302647D02*
X153892286Y-102340742D01*
X153892286Y-102340742D02*
X153587524Y-102340742D01*
X154730381Y-101921695D02*
X154578000Y-101921695D01*
X154578000Y-101921695D02*
X154501809Y-101959790D01*
X154501809Y-101959790D02*
X154463714Y-101997885D01*
X154463714Y-101997885D02*
X154387524Y-102112171D01*
X154387524Y-102112171D02*
X154349428Y-102264552D01*
X154349428Y-102264552D02*
X154349428Y-102569314D01*
X154349428Y-102569314D02*
X154387524Y-102645504D01*
X154387524Y-102645504D02*
X154425619Y-102683600D01*
X154425619Y-102683600D02*
X154501809Y-102721695D01*
X154501809Y-102721695D02*
X154654190Y-102721695D01*
X154654190Y-102721695D02*
X154730381Y-102683600D01*
X154730381Y-102683600D02*
X154768476Y-102645504D01*
X154768476Y-102645504D02*
X154806571Y-102569314D01*
X154806571Y-102569314D02*
X154806571Y-102378838D01*
X154806571Y-102378838D02*
X154768476Y-102302647D01*
X154768476Y-102302647D02*
X154730381Y-102264552D01*
X154730381Y-102264552D02*
X154654190Y-102226457D01*
X154654190Y-102226457D02*
X154501809Y-102226457D01*
X154501809Y-102226457D02*
X154425619Y-102264552D01*
X154425619Y-102264552D02*
X154387524Y-102302647D01*
X154387524Y-102302647D02*
X154349428Y-102378838D01*
X131893695Y-106946666D02*
X132465123Y-106946666D01*
X132465123Y-106946666D02*
X132579409Y-106984761D01*
X132579409Y-106984761D02*
X132655600Y-107060952D01*
X132655600Y-107060952D02*
X132693695Y-107175237D01*
X132693695Y-107175237D02*
X132693695Y-107251428D01*
X132693695Y-106146666D02*
X132693695Y-106603809D01*
X132693695Y-106375237D02*
X131893695Y-106375237D01*
X131893695Y-106375237D02*
X132007980Y-106451428D01*
X132007980Y-106451428D02*
X132084171Y-106527618D01*
X132084171Y-106527618D02*
X132122266Y-106603809D01*
X142360667Y-84103504D02*
X142322571Y-84141600D01*
X142322571Y-84141600D02*
X142208286Y-84179695D01*
X142208286Y-84179695D02*
X142132095Y-84179695D01*
X142132095Y-84179695D02*
X142017809Y-84141600D01*
X142017809Y-84141600D02*
X141941619Y-84065409D01*
X141941619Y-84065409D02*
X141903524Y-83989219D01*
X141903524Y-83989219D02*
X141865428Y-83836838D01*
X141865428Y-83836838D02*
X141865428Y-83722552D01*
X141865428Y-83722552D02*
X141903524Y-83570171D01*
X141903524Y-83570171D02*
X141941619Y-83493980D01*
X141941619Y-83493980D02*
X142017809Y-83417790D01*
X142017809Y-83417790D02*
X142132095Y-83379695D01*
X142132095Y-83379695D02*
X142208286Y-83379695D01*
X142208286Y-83379695D02*
X142322571Y-83417790D01*
X142322571Y-83417790D02*
X142360667Y-83455885D01*
X142627333Y-83379695D02*
X143160667Y-83379695D01*
X143160667Y-83379695D02*
X142817809Y-84179695D01*
X150830667Y-98581504D02*
X150792571Y-98619600D01*
X150792571Y-98619600D02*
X150678286Y-98657695D01*
X150678286Y-98657695D02*
X150602095Y-98657695D01*
X150602095Y-98657695D02*
X150487809Y-98619600D01*
X150487809Y-98619600D02*
X150411619Y-98543409D01*
X150411619Y-98543409D02*
X150373524Y-98467219D01*
X150373524Y-98467219D02*
X150335428Y-98314838D01*
X150335428Y-98314838D02*
X150335428Y-98200552D01*
X150335428Y-98200552D02*
X150373524Y-98048171D01*
X150373524Y-98048171D02*
X150411619Y-97971980D01*
X150411619Y-97971980D02*
X150487809Y-97895790D01*
X150487809Y-97895790D02*
X150602095Y-97857695D01*
X150602095Y-97857695D02*
X150678286Y-97857695D01*
X150678286Y-97857695D02*
X150792571Y-97895790D01*
X150792571Y-97895790D02*
X150830667Y-97933885D01*
X151516381Y-98124361D02*
X151516381Y-98657695D01*
X151325905Y-97819600D02*
X151135428Y-98391028D01*
X151135428Y-98391028D02*
X151630667Y-98391028D01*
X156775667Y-91037695D02*
X156509000Y-90656742D01*
X156318524Y-91037695D02*
X156318524Y-90237695D01*
X156318524Y-90237695D02*
X156623286Y-90237695D01*
X156623286Y-90237695D02*
X156699476Y-90275790D01*
X156699476Y-90275790D02*
X156737571Y-90313885D01*
X156737571Y-90313885D02*
X156775667Y-90390076D01*
X156775667Y-90390076D02*
X156775667Y-90504361D01*
X156775667Y-90504361D02*
X156737571Y-90580552D01*
X156737571Y-90580552D02*
X156699476Y-90618647D01*
X156699476Y-90618647D02*
X156623286Y-90656742D01*
X156623286Y-90656742D02*
X156318524Y-90656742D01*
X157461381Y-90504361D02*
X157461381Y-91037695D01*
X157270905Y-90199600D02*
X157080428Y-90771028D01*
X157080428Y-90771028D02*
X157575667Y-90771028D01*
X149472667Y-89945504D02*
X149434571Y-89983600D01*
X149434571Y-89983600D02*
X149320286Y-90021695D01*
X149320286Y-90021695D02*
X149244095Y-90021695D01*
X149244095Y-90021695D02*
X149129809Y-89983600D01*
X149129809Y-89983600D02*
X149053619Y-89907409D01*
X149053619Y-89907409D02*
X149015524Y-89831219D01*
X149015524Y-89831219D02*
X148977428Y-89678838D01*
X148977428Y-89678838D02*
X148977428Y-89564552D01*
X148977428Y-89564552D02*
X149015524Y-89412171D01*
X149015524Y-89412171D02*
X149053619Y-89335980D01*
X149053619Y-89335980D02*
X149129809Y-89259790D01*
X149129809Y-89259790D02*
X149244095Y-89221695D01*
X149244095Y-89221695D02*
X149320286Y-89221695D01*
X149320286Y-89221695D02*
X149434571Y-89259790D01*
X149434571Y-89259790D02*
X149472667Y-89297885D01*
X149929809Y-89564552D02*
X149853619Y-89526457D01*
X149853619Y-89526457D02*
X149815524Y-89488361D01*
X149815524Y-89488361D02*
X149777428Y-89412171D01*
X149777428Y-89412171D02*
X149777428Y-89374076D01*
X149777428Y-89374076D02*
X149815524Y-89297885D01*
X149815524Y-89297885D02*
X149853619Y-89259790D01*
X149853619Y-89259790D02*
X149929809Y-89221695D01*
X149929809Y-89221695D02*
X150082190Y-89221695D01*
X150082190Y-89221695D02*
X150158381Y-89259790D01*
X150158381Y-89259790D02*
X150196476Y-89297885D01*
X150196476Y-89297885D02*
X150234571Y-89374076D01*
X150234571Y-89374076D02*
X150234571Y-89412171D01*
X150234571Y-89412171D02*
X150196476Y-89488361D01*
X150196476Y-89488361D02*
X150158381Y-89526457D01*
X150158381Y-89526457D02*
X150082190Y-89564552D01*
X150082190Y-89564552D02*
X149929809Y-89564552D01*
X149929809Y-89564552D02*
X149853619Y-89602647D01*
X149853619Y-89602647D02*
X149815524Y-89640742D01*
X149815524Y-89640742D02*
X149777428Y-89716933D01*
X149777428Y-89716933D02*
X149777428Y-89869314D01*
X149777428Y-89869314D02*
X149815524Y-89945504D01*
X149815524Y-89945504D02*
X149853619Y-89983600D01*
X149853619Y-89983600D02*
X149929809Y-90021695D01*
X149929809Y-90021695D02*
X150082190Y-90021695D01*
X150082190Y-90021695D02*
X150158381Y-89983600D01*
X150158381Y-89983600D02*
X150196476Y-89945504D01*
X150196476Y-89945504D02*
X150234571Y-89869314D01*
X150234571Y-89869314D02*
X150234571Y-89716933D01*
X150234571Y-89716933D02*
X150196476Y-89640742D01*
X150196476Y-89640742D02*
X150158381Y-89602647D01*
X150158381Y-89602647D02*
X150082190Y-89564552D01*
X151667504Y-84715332D02*
X151705600Y-84753428D01*
X151705600Y-84753428D02*
X151743695Y-84867713D01*
X151743695Y-84867713D02*
X151743695Y-84943904D01*
X151743695Y-84943904D02*
X151705600Y-85058190D01*
X151705600Y-85058190D02*
X151629409Y-85134380D01*
X151629409Y-85134380D02*
X151553219Y-85172475D01*
X151553219Y-85172475D02*
X151400838Y-85210571D01*
X151400838Y-85210571D02*
X151286552Y-85210571D01*
X151286552Y-85210571D02*
X151134171Y-85172475D01*
X151134171Y-85172475D02*
X151057980Y-85134380D01*
X151057980Y-85134380D02*
X150981790Y-85058190D01*
X150981790Y-85058190D02*
X150943695Y-84943904D01*
X150943695Y-84943904D02*
X150943695Y-84867713D01*
X150943695Y-84867713D02*
X150981790Y-84753428D01*
X150981790Y-84753428D02*
X151019885Y-84715332D01*
X151743695Y-84334380D02*
X151743695Y-84181999D01*
X151743695Y-84181999D02*
X151705600Y-84105809D01*
X151705600Y-84105809D02*
X151667504Y-84067713D01*
X151667504Y-84067713D02*
X151553219Y-83991523D01*
X151553219Y-83991523D02*
X151400838Y-83953428D01*
X151400838Y-83953428D02*
X151096076Y-83953428D01*
X151096076Y-83953428D02*
X151019885Y-83991523D01*
X151019885Y-83991523D02*
X150981790Y-84029618D01*
X150981790Y-84029618D02*
X150943695Y-84105809D01*
X150943695Y-84105809D02*
X150943695Y-84258190D01*
X150943695Y-84258190D02*
X150981790Y-84334380D01*
X150981790Y-84334380D02*
X151019885Y-84372475D01*
X151019885Y-84372475D02*
X151096076Y-84410571D01*
X151096076Y-84410571D02*
X151286552Y-84410571D01*
X151286552Y-84410571D02*
X151362742Y-84372475D01*
X151362742Y-84372475D02*
X151400838Y-84334380D01*
X151400838Y-84334380D02*
X151438933Y-84258190D01*
X151438933Y-84258190D02*
X151438933Y-84105809D01*
X151438933Y-84105809D02*
X151400838Y-84029618D01*
X151400838Y-84029618D02*
X151362742Y-83991523D01*
X151362742Y-83991523D02*
X151286552Y-83953428D01*
X142106667Y-86135504D02*
X142068571Y-86173600D01*
X142068571Y-86173600D02*
X141954286Y-86211695D01*
X141954286Y-86211695D02*
X141878095Y-86211695D01*
X141878095Y-86211695D02*
X141763809Y-86173600D01*
X141763809Y-86173600D02*
X141687619Y-86097409D01*
X141687619Y-86097409D02*
X141649524Y-86021219D01*
X141649524Y-86021219D02*
X141611428Y-85868838D01*
X141611428Y-85868838D02*
X141611428Y-85754552D01*
X141611428Y-85754552D02*
X141649524Y-85602171D01*
X141649524Y-85602171D02*
X141687619Y-85525980D01*
X141687619Y-85525980D02*
X141763809Y-85449790D01*
X141763809Y-85449790D02*
X141878095Y-85411695D01*
X141878095Y-85411695D02*
X141954286Y-85411695D01*
X141954286Y-85411695D02*
X142068571Y-85449790D01*
X142068571Y-85449790D02*
X142106667Y-85487885D01*
X142792381Y-85411695D02*
X142640000Y-85411695D01*
X142640000Y-85411695D02*
X142563809Y-85449790D01*
X142563809Y-85449790D02*
X142525714Y-85487885D01*
X142525714Y-85487885D02*
X142449524Y-85602171D01*
X142449524Y-85602171D02*
X142411428Y-85754552D01*
X142411428Y-85754552D02*
X142411428Y-86059314D01*
X142411428Y-86059314D02*
X142449524Y-86135504D01*
X142449524Y-86135504D02*
X142487619Y-86173600D01*
X142487619Y-86173600D02*
X142563809Y-86211695D01*
X142563809Y-86211695D02*
X142716190Y-86211695D01*
X142716190Y-86211695D02*
X142792381Y-86173600D01*
X142792381Y-86173600D02*
X142830476Y-86135504D01*
X142830476Y-86135504D02*
X142868571Y-86059314D01*
X142868571Y-86059314D02*
X142868571Y-85868838D01*
X142868571Y-85868838D02*
X142830476Y-85792647D01*
X142830476Y-85792647D02*
X142792381Y-85754552D01*
X142792381Y-85754552D02*
X142716190Y-85716457D01*
X142716190Y-85716457D02*
X142563809Y-85716457D01*
X142563809Y-85716457D02*
X142487619Y-85754552D01*
X142487619Y-85754552D02*
X142449524Y-85792647D01*
X142449524Y-85792647D02*
X142411428Y-85868838D01*
X156775667Y-92485504D02*
X156737571Y-92523600D01*
X156737571Y-92523600D02*
X156623286Y-92561695D01*
X156623286Y-92561695D02*
X156547095Y-92561695D01*
X156547095Y-92561695D02*
X156432809Y-92523600D01*
X156432809Y-92523600D02*
X156356619Y-92447409D01*
X156356619Y-92447409D02*
X156318524Y-92371219D01*
X156318524Y-92371219D02*
X156280428Y-92218838D01*
X156280428Y-92218838D02*
X156280428Y-92104552D01*
X156280428Y-92104552D02*
X156318524Y-91952171D01*
X156318524Y-91952171D02*
X156356619Y-91875980D01*
X156356619Y-91875980D02*
X156432809Y-91799790D01*
X156432809Y-91799790D02*
X156547095Y-91761695D01*
X156547095Y-91761695D02*
X156623286Y-91761695D01*
X156623286Y-91761695D02*
X156737571Y-91799790D01*
X156737571Y-91799790D02*
X156775667Y-91837885D01*
X157080428Y-91837885D02*
X157118524Y-91799790D01*
X157118524Y-91799790D02*
X157194714Y-91761695D01*
X157194714Y-91761695D02*
X157385190Y-91761695D01*
X157385190Y-91761695D02*
X157461381Y-91799790D01*
X157461381Y-91799790D02*
X157499476Y-91837885D01*
X157499476Y-91837885D02*
X157537571Y-91914076D01*
X157537571Y-91914076D02*
X157537571Y-91990266D01*
X157537571Y-91990266D02*
X157499476Y-92104552D01*
X157499476Y-92104552D02*
X157042333Y-92561695D01*
X157042333Y-92561695D02*
X157537571Y-92561695D01*
X150742667Y-102721695D02*
X150476000Y-102340742D01*
X150285524Y-102721695D02*
X150285524Y-101921695D01*
X150285524Y-101921695D02*
X150590286Y-101921695D01*
X150590286Y-101921695D02*
X150666476Y-101959790D01*
X150666476Y-101959790D02*
X150704571Y-101997885D01*
X150704571Y-101997885D02*
X150742667Y-102074076D01*
X150742667Y-102074076D02*
X150742667Y-102188361D01*
X150742667Y-102188361D02*
X150704571Y-102264552D01*
X150704571Y-102264552D02*
X150666476Y-102302647D01*
X150666476Y-102302647D02*
X150590286Y-102340742D01*
X150590286Y-102340742D02*
X150285524Y-102340742D01*
X151466476Y-101921695D02*
X151085524Y-101921695D01*
X151085524Y-101921695D02*
X151047428Y-102302647D01*
X151047428Y-102302647D02*
X151085524Y-102264552D01*
X151085524Y-102264552D02*
X151161714Y-102226457D01*
X151161714Y-102226457D02*
X151352190Y-102226457D01*
X151352190Y-102226457D02*
X151428381Y-102264552D01*
X151428381Y-102264552D02*
X151466476Y-102302647D01*
X151466476Y-102302647D02*
X151504571Y-102378838D01*
X151504571Y-102378838D02*
X151504571Y-102569314D01*
X151504571Y-102569314D02*
X151466476Y-102645504D01*
X151466476Y-102645504D02*
X151428381Y-102683600D01*
X151428381Y-102683600D02*
X151352190Y-102721695D01*
X151352190Y-102721695D02*
X151161714Y-102721695D01*
X151161714Y-102721695D02*
X151085524Y-102683600D01*
X151085524Y-102683600D02*
X151047428Y-102645504D01*
X156775667Y-89513695D02*
X156509000Y-89132742D01*
X156318524Y-89513695D02*
X156318524Y-88713695D01*
X156318524Y-88713695D02*
X156623286Y-88713695D01*
X156623286Y-88713695D02*
X156699476Y-88751790D01*
X156699476Y-88751790D02*
X156737571Y-88789885D01*
X156737571Y-88789885D02*
X156775667Y-88866076D01*
X156775667Y-88866076D02*
X156775667Y-88980361D01*
X156775667Y-88980361D02*
X156737571Y-89056552D01*
X156737571Y-89056552D02*
X156699476Y-89094647D01*
X156699476Y-89094647D02*
X156623286Y-89132742D01*
X156623286Y-89132742D02*
X156318524Y-89132742D01*
X157080428Y-88789885D02*
X157118524Y-88751790D01*
X157118524Y-88751790D02*
X157194714Y-88713695D01*
X157194714Y-88713695D02*
X157385190Y-88713695D01*
X157385190Y-88713695D02*
X157461381Y-88751790D01*
X157461381Y-88751790D02*
X157499476Y-88789885D01*
X157499476Y-88789885D02*
X157537571Y-88866076D01*
X157537571Y-88866076D02*
X157537571Y-88942266D01*
X157537571Y-88942266D02*
X157499476Y-89056552D01*
X157499476Y-89056552D02*
X157042333Y-89513695D01*
X157042333Y-89513695D02*
X157537571Y-89513695D01*
X153966667Y-98581504D02*
X153928571Y-98619600D01*
X153928571Y-98619600D02*
X153814286Y-98657695D01*
X153814286Y-98657695D02*
X153738095Y-98657695D01*
X153738095Y-98657695D02*
X153623809Y-98619600D01*
X153623809Y-98619600D02*
X153547619Y-98543409D01*
X153547619Y-98543409D02*
X153509524Y-98467219D01*
X153509524Y-98467219D02*
X153471428Y-98314838D01*
X153471428Y-98314838D02*
X153471428Y-98200552D01*
X153471428Y-98200552D02*
X153509524Y-98048171D01*
X153509524Y-98048171D02*
X153547619Y-97971980D01*
X153547619Y-97971980D02*
X153623809Y-97895790D01*
X153623809Y-97895790D02*
X153738095Y-97857695D01*
X153738095Y-97857695D02*
X153814286Y-97857695D01*
X153814286Y-97857695D02*
X153928571Y-97895790D01*
X153928571Y-97895790D02*
X153966667Y-97933885D01*
X154690476Y-97857695D02*
X154309524Y-97857695D01*
X154309524Y-97857695D02*
X154271428Y-98238647D01*
X154271428Y-98238647D02*
X154309524Y-98200552D01*
X154309524Y-98200552D02*
X154385714Y-98162457D01*
X154385714Y-98162457D02*
X154576190Y-98162457D01*
X154576190Y-98162457D02*
X154652381Y-98200552D01*
X154652381Y-98200552D02*
X154690476Y-98238647D01*
X154690476Y-98238647D02*
X154728571Y-98314838D01*
X154728571Y-98314838D02*
X154728571Y-98505314D01*
X154728571Y-98505314D02*
X154690476Y-98581504D01*
X154690476Y-98581504D02*
X154652381Y-98619600D01*
X154652381Y-98619600D02*
X154576190Y-98657695D01*
X154576190Y-98657695D02*
X154385714Y-98657695D01*
X154385714Y-98657695D02*
X154309524Y-98619600D01*
X154309524Y-98619600D02*
X154271428Y-98581504D01*
X141884476Y-97011695D02*
X141884476Y-97659314D01*
X141884476Y-97659314D02*
X141922571Y-97735504D01*
X141922571Y-97735504D02*
X141960666Y-97773600D01*
X141960666Y-97773600D02*
X142036857Y-97811695D01*
X142036857Y-97811695D02*
X142189238Y-97811695D01*
X142189238Y-97811695D02*
X142265428Y-97773600D01*
X142265428Y-97773600D02*
X142303523Y-97735504D01*
X142303523Y-97735504D02*
X142341619Y-97659314D01*
X142341619Y-97659314D02*
X142341619Y-97011695D01*
X143141618Y-97811695D02*
X142684475Y-97811695D01*
X142913047Y-97811695D02*
X142913047Y-97011695D01*
X142913047Y-97011695D02*
X142836856Y-97125980D01*
X142836856Y-97125980D02*
X142760666Y-97202171D01*
X142760666Y-97202171D02*
X142684475Y-97240266D01*
D11*
%TO.C,X1*%
X148310000Y-101462000D02*
X145525000Y-101462000D01*
X148310000Y-101262000D02*
X148310000Y-101462000D01*
X145525000Y-97792000D02*
X148125000Y-97792000D01*
%TO.C,C1*%
X154241420Y-93216000D02*
X154522580Y-93216000D01*
X154241420Y-94236000D02*
X154522580Y-94236000D01*
%TO.C,R1*%
X154606258Y-97296500D02*
X154131742Y-97296500D01*
X154606258Y-96251500D02*
X154131742Y-96251500D01*
%TO.C,R3*%
X154606258Y-95772500D02*
X154131742Y-95772500D01*
X154606258Y-94727500D02*
X154131742Y-94727500D01*
%TO.C,C3*%
X149096000Y-93866580D02*
X149096000Y-93585420D01*
X150116000Y-93866580D02*
X150116000Y-93585420D01*
%TO.C,C10*%
X148617000Y-87637252D02*
X148617000Y-87114748D01*
X150087000Y-87637252D02*
X150087000Y-87114748D01*
%TO.C,R6*%
X154415258Y-101614500D02*
X153940742Y-101614500D01*
X154415258Y-100569500D02*
X153940742Y-100569500D01*
%TO.C,J1*%
X133290000Y-107629000D02*
X133290000Y-106299000D01*
X134620000Y-107629000D02*
X133290000Y-107629000D01*
X135890000Y-107629000D02*
X158810000Y-107629000D01*
X135890000Y-107629000D02*
X135890000Y-104969000D01*
X158810000Y-107629000D02*
X158810000Y-104969000D01*
X135890000Y-104969000D02*
X158810000Y-104969000D01*
%TO.C,C7*%
X145147420Y-83310000D02*
X145428580Y-83310000D01*
X145147420Y-84330000D02*
X145428580Y-84330000D01*
%TO.C,C4*%
X151104580Y-100078000D02*
X150823420Y-100078000D01*
X151104580Y-99058000D02*
X150823420Y-99058000D01*
%TO.C,R4*%
X154606258Y-91200500D02*
X154131742Y-91200500D01*
X154606258Y-90155500D02*
X154131742Y-90155500D01*
%TO.C,C8*%
X149211420Y-90422000D02*
X149492580Y-90422000D01*
X149211420Y-91442000D02*
X149492580Y-91442000D01*
%TO.C,C9*%
X150874000Y-87262580D02*
X150874000Y-86981420D01*
X151894000Y-87262580D02*
X151894000Y-86981420D01*
%TO.C,C6*%
X144772748Y-85117000D02*
X145295252Y-85117000D01*
X144772748Y-86587000D02*
X145295252Y-86587000D01*
%TO.C,C2*%
X154522580Y-92712000D02*
X154241420Y-92712000D01*
X154522580Y-91692000D02*
X154241420Y-91692000D01*
%TO.C,R5*%
X150638742Y-100569500D02*
X151113258Y-100569500D01*
X150638742Y-101614500D02*
X151113258Y-101614500D01*
%TO.C,R2*%
X154131742Y-88631500D02*
X154606258Y-88631500D01*
X154131742Y-89676500D02*
X154606258Y-89676500D01*
%TO.C,C5*%
X154152580Y-100078000D02*
X153871420Y-100078000D01*
X154152580Y-99058000D02*
X153871420Y-99058000D01*
D12*
%TO.C,U1*%
X145369000Y-96527000D02*
X145369000Y-96302000D01*
X145369000Y-96527000D02*
X139619000Y-96527000D01*
X145369000Y-96302000D02*
X146969000Y-96302000D01*
X145369000Y-87877000D02*
X145369000Y-88177000D01*
X145369000Y-87877000D02*
X139619000Y-87877000D01*
X139619000Y-96527000D02*
X139619000Y-96227000D01*
X139619000Y-87877000D02*
X139619000Y-88177000D01*
%TD*%
M02*
