%TF.GenerationSoftware,KiCad,Pcbnew,7.0.7*%
%TF.CreationDate,2025-03-08T19:07:00+10:30*%
%TF.ProjectId,V9381_Breakout,56393338-315f-4427-9265-616b6f75742e,rev?*%
%TF.SameCoordinates,Original*%
%TF.FileFunction,Soldermask,Top*%
%TF.FilePolarity,Negative*%
%FSLAX46Y46*%
G04 Gerber Fmt 4.6, Leading zero omitted, Abs format (unit mm)*
G04 Created by KiCad (PCBNEW 7.0.7) date 2025-03-08 19:07:00*
%MOMM*%
%LPD*%
G01*
G04 APERTURE LIST*
G04 Aperture macros list*
%AMRoundRect*
0 Rectangle with rounded corners*
0 $1 Rounding radius*
0 $2 $3 $4 $5 $6 $7 $8 $9 X,Y pos of 4 corners*
0 Add a 4 corners polygon primitive as box body*
4,1,4,$2,$3,$4,$5,$6,$7,$8,$9,$2,$3,0*
0 Add four circle primitives for the rounded corners*
1,1,$1+$1,$2,$3*
1,1,$1+$1,$4,$5*
1,1,$1+$1,$6,$7*
1,1,$1+$1,$8,$9*
0 Add four rect primitives between the rounded corners*
20,1,$1+$1,$2,$3,$4,$5,0*
20,1,$1+$1,$4,$5,$6,$7,0*
20,1,$1+$1,$6,$7,$8,$9,0*
20,1,$1+$1,$8,$9,$2,$3,0*%
G04 Aperture macros list end*
%ADD10R,0.900000X1.000000*%
%ADD11RoundRect,0.225000X-0.225000X-0.250000X0.225000X-0.250000X0.225000X0.250000X-0.225000X0.250000X0*%
%ADD12RoundRect,0.200000X0.200000X0.275000X-0.200000X0.275000X-0.200000X-0.275000X0.200000X-0.275000X0*%
%ADD13RoundRect,0.225000X0.250000X-0.225000X0.250000X0.225000X-0.250000X0.225000X-0.250000X-0.225000X0*%
%ADD14RoundRect,0.250000X0.475000X-0.250000X0.475000X0.250000X-0.475000X0.250000X-0.475000X-0.250000X0*%
%ADD15R,1.700000X1.700000*%
%ADD16O,1.700000X1.700000*%
%ADD17RoundRect,0.225000X0.225000X0.250000X-0.225000X0.250000X-0.225000X-0.250000X0.225000X-0.250000X0*%
%ADD18RoundRect,0.250000X-0.250000X-0.475000X0.250000X-0.475000X0.250000X0.475000X-0.250000X0.475000X0*%
%ADD19RoundRect,0.200000X-0.200000X-0.275000X0.200000X-0.275000X0.200000X0.275000X-0.200000X0.275000X0*%
%ADD20R,1.750000X0.450000*%
G04 APERTURE END LIST*
D10*
%TO.C,X1*%
X147600000Y-100702000D03*
X147600000Y-98552000D03*
X146050000Y-98552000D03*
X146050000Y-100702000D03*
%TD*%
D11*
%TO.C,C1*%
X153607000Y-93726000D03*
X155157000Y-93726000D03*
%TD*%
D12*
%TO.C,R1*%
X155194000Y-96774000D03*
X153544000Y-96774000D03*
%TD*%
%TO.C,R3*%
X155194000Y-95250000D03*
X153544000Y-95250000D03*
%TD*%
D13*
%TO.C,C3*%
X149606000Y-94501000D03*
X149606000Y-92951000D03*
%TD*%
D14*
%TO.C,C10*%
X149352000Y-88326000D03*
X149352000Y-86426000D03*
%TD*%
D12*
%TO.C,R6*%
X155003000Y-101092000D03*
X153353000Y-101092000D03*
%TD*%
D15*
%TO.C,J1*%
X134620000Y-106299000D03*
D16*
X137160000Y-106299000D03*
X139700000Y-106299000D03*
X142240000Y-106299000D03*
X144780000Y-106299000D03*
X147320000Y-106299000D03*
X149860000Y-106299000D03*
X152400000Y-106299000D03*
X154940000Y-106299000D03*
X157480000Y-106299000D03*
%TD*%
D11*
%TO.C,C7*%
X144513000Y-83820000D03*
X146063000Y-83820000D03*
%TD*%
D17*
%TO.C,C4*%
X151739000Y-99568000D03*
X150189000Y-99568000D03*
%TD*%
D12*
%TO.C,R4*%
X155194000Y-90678000D03*
X153544000Y-90678000D03*
%TD*%
D11*
%TO.C,C8*%
X148577000Y-90932000D03*
X150127000Y-90932000D03*
%TD*%
D13*
%TO.C,C9*%
X151384000Y-87897000D03*
X151384000Y-86347000D03*
%TD*%
D18*
%TO.C,C6*%
X144084000Y-85852000D03*
X145984000Y-85852000D03*
%TD*%
D17*
%TO.C,C2*%
X155157000Y-92202000D03*
X153607000Y-92202000D03*
%TD*%
D19*
%TO.C,R5*%
X150051000Y-101092000D03*
X151701000Y-101092000D03*
%TD*%
%TO.C,R2*%
X153544000Y-89154000D03*
X155194000Y-89154000D03*
%TD*%
D17*
%TO.C,C5*%
X154787000Y-99568000D03*
X153237000Y-99568000D03*
%TD*%
D20*
%TO.C,U1*%
X146094000Y-95777000D03*
X146094000Y-95127000D03*
X146094000Y-94477000D03*
X146094000Y-93827000D03*
X146094000Y-93177000D03*
X146094000Y-92527000D03*
X146094000Y-91877000D03*
X146094000Y-91227000D03*
X146094000Y-90577000D03*
X146094000Y-89927000D03*
X146094000Y-89277000D03*
X146094000Y-88627000D03*
X138894000Y-88627000D03*
X138894000Y-89277000D03*
X138894000Y-89927000D03*
X138894000Y-90577000D03*
X138894000Y-91227000D03*
X138894000Y-91877000D03*
X138894000Y-92527000D03*
X138894000Y-93177000D03*
X138894000Y-93827000D03*
X138894000Y-94477000D03*
X138894000Y-95127000D03*
X138894000Y-95777000D03*
%TD*%
M02*
