%TF.GenerationSoftware,KiCad,Pcbnew,7.0.7*%
%TF.CreationDate,2025-01-01T22:23:07+10:30*%
%TF.ProjectId,V9360_Breakout,56393336-305f-4427-9265-616b6f75742e,rev?*%
%TF.SameCoordinates,Original*%
%TF.FileFunction,Legend,Top*%
%TF.FilePolarity,Positive*%
%FSLAX46Y46*%
G04 Gerber Fmt 4.6, Leading zero omitted, Abs format (unit mm)*
G04 Created by KiCad (PCBNEW 7.0.7) date 2025-01-01 22:23:07*
%MOMM*%
%LPD*%
G01*
G04 APERTURE LIST*
%ADD10C,0.200000*%
%ADD11C,0.120000*%
%ADD12C,0.127000*%
G04 APERTURE END LIST*
D10*
X138283695Y-106726231D02*
X138283695Y-106269088D01*
X139083695Y-106497660D02*
X138283695Y-106497660D01*
X138283695Y-106078612D02*
X139083695Y-105545278D01*
X138283695Y-105545278D02*
X139083695Y-106078612D01*
X143109695Y-106611945D02*
X143757314Y-106611945D01*
X143757314Y-106611945D02*
X143833504Y-106573850D01*
X143833504Y-106573850D02*
X143871600Y-106535755D01*
X143871600Y-106535755D02*
X143909695Y-106459564D01*
X143909695Y-106459564D02*
X143909695Y-106307183D01*
X143909695Y-106307183D02*
X143871600Y-106230993D01*
X143871600Y-106230993D02*
X143833504Y-106192898D01*
X143833504Y-106192898D02*
X143757314Y-106154802D01*
X143757314Y-106154802D02*
X143109695Y-106154802D01*
X143909695Y-105773850D02*
X143109695Y-105773850D01*
X143109695Y-105773850D02*
X143909695Y-105316707D01*
X143909695Y-105316707D02*
X143109695Y-105316707D01*
X140823695Y-106611945D02*
X141471314Y-106611945D01*
X141471314Y-106611945D02*
X141547504Y-106573850D01*
X141547504Y-106573850D02*
X141585600Y-106535755D01*
X141585600Y-106535755D02*
X141623695Y-106459564D01*
X141623695Y-106459564D02*
X141623695Y-106307183D01*
X141623695Y-106307183D02*
X141585600Y-106230993D01*
X141585600Y-106230993D02*
X141547504Y-106192898D01*
X141547504Y-106192898D02*
X141471314Y-106154802D01*
X141471314Y-106154802D02*
X140823695Y-106154802D01*
X141623695Y-105773850D02*
X140823695Y-105773850D01*
X140823695Y-105773850D02*
X140823695Y-105469088D01*
X140823695Y-105469088D02*
X140861790Y-105392898D01*
X140861790Y-105392898D02*
X140899885Y-105354803D01*
X140899885Y-105354803D02*
X140976076Y-105316707D01*
X140976076Y-105316707D02*
X141090361Y-105316707D01*
X141090361Y-105316707D02*
X141166552Y-105354803D01*
X141166552Y-105354803D02*
X141204647Y-105392898D01*
X141204647Y-105392898D02*
X141242742Y-105469088D01*
X141242742Y-105469088D02*
X141242742Y-105773850D01*
X150767790Y-106192898D02*
X150729695Y-106269088D01*
X150729695Y-106269088D02*
X150729695Y-106383374D01*
X150729695Y-106383374D02*
X150767790Y-106497660D01*
X150767790Y-106497660D02*
X150843980Y-106573850D01*
X150843980Y-106573850D02*
X150920171Y-106611945D01*
X150920171Y-106611945D02*
X151072552Y-106650041D01*
X151072552Y-106650041D02*
X151186838Y-106650041D01*
X151186838Y-106650041D02*
X151339219Y-106611945D01*
X151339219Y-106611945D02*
X151415409Y-106573850D01*
X151415409Y-106573850D02*
X151491600Y-106497660D01*
X151491600Y-106497660D02*
X151529695Y-106383374D01*
X151529695Y-106383374D02*
X151529695Y-106307183D01*
X151529695Y-106307183D02*
X151491600Y-106192898D01*
X151491600Y-106192898D02*
X151453504Y-106154802D01*
X151453504Y-106154802D02*
X151186838Y-106154802D01*
X151186838Y-106154802D02*
X151186838Y-106307183D01*
X151529695Y-105811945D02*
X150729695Y-105811945D01*
X150729695Y-105811945D02*
X151529695Y-105354802D01*
X151529695Y-105354802D02*
X150729695Y-105354802D01*
X151529695Y-104973850D02*
X150729695Y-104973850D01*
X150729695Y-104973850D02*
X150729695Y-104783374D01*
X150729695Y-104783374D02*
X150767790Y-104669088D01*
X150767790Y-104669088D02*
X150843980Y-104592898D01*
X150843980Y-104592898D02*
X150920171Y-104554803D01*
X150920171Y-104554803D02*
X151072552Y-104516707D01*
X151072552Y-104516707D02*
X151186838Y-104516707D01*
X151186838Y-104516707D02*
X151339219Y-104554803D01*
X151339219Y-104554803D02*
X151415409Y-104592898D01*
X151415409Y-104592898D02*
X151491600Y-104669088D01*
X151491600Y-104669088D02*
X151529695Y-104783374D01*
X151529695Y-104783374D02*
X151529695Y-104973850D01*
X125095695Y-102039945D02*
X124295695Y-102039945D01*
X124295695Y-102039945D02*
X124867123Y-101773279D01*
X124867123Y-101773279D02*
X124295695Y-101506612D01*
X124295695Y-101506612D02*
X125095695Y-101506612D01*
X124867123Y-101163755D02*
X124867123Y-100782802D01*
X125095695Y-101239945D02*
X124295695Y-100973278D01*
X124295695Y-100973278D02*
X125095695Y-100706612D01*
X124295695Y-100516136D02*
X125095695Y-99982802D01*
X124295695Y-99982802D02*
X125095695Y-100516136D01*
X124295695Y-99182802D02*
X125095695Y-98916135D01*
X125095695Y-98916135D02*
X124295695Y-98649469D01*
X125095695Y-98382802D02*
X124562361Y-98382802D01*
X124714742Y-98382802D02*
X124638552Y-98344707D01*
X124638552Y-98344707D02*
X124600457Y-98306612D01*
X124600457Y-98306612D02*
X124562361Y-98230421D01*
X124562361Y-98230421D02*
X124562361Y-98154231D01*
X125095695Y-97887564D02*
X124562361Y-97887564D01*
X124638552Y-97887564D02*
X124600457Y-97849469D01*
X124600457Y-97849469D02*
X124562361Y-97773279D01*
X124562361Y-97773279D02*
X124562361Y-97658993D01*
X124562361Y-97658993D02*
X124600457Y-97582802D01*
X124600457Y-97582802D02*
X124676647Y-97544707D01*
X124676647Y-97544707D02*
X125095695Y-97544707D01*
X124676647Y-97544707D02*
X124600457Y-97506612D01*
X124600457Y-97506612D02*
X124562361Y-97430421D01*
X124562361Y-97430421D02*
X124562361Y-97316136D01*
X124562361Y-97316136D02*
X124600457Y-97239945D01*
X124600457Y-97239945D02*
X124676647Y-97201850D01*
X124676647Y-97201850D02*
X125095695Y-97201850D01*
X125057600Y-96858993D02*
X125095695Y-96782802D01*
X125095695Y-96782802D02*
X125095695Y-96630421D01*
X125095695Y-96630421D02*
X125057600Y-96554231D01*
X125057600Y-96554231D02*
X124981409Y-96516135D01*
X124981409Y-96516135D02*
X124943314Y-96516135D01*
X124943314Y-96516135D02*
X124867123Y-96554231D01*
X124867123Y-96554231D02*
X124829028Y-96630421D01*
X124829028Y-96630421D02*
X124829028Y-96744707D01*
X124829028Y-96744707D02*
X124790933Y-96820897D01*
X124790933Y-96820897D02*
X124714742Y-96858993D01*
X124714742Y-96858993D02*
X124676647Y-96858993D01*
X124676647Y-96858993D02*
X124600457Y-96820897D01*
X124600457Y-96820897D02*
X124562361Y-96744707D01*
X124562361Y-96744707D02*
X124562361Y-96630421D01*
X124562361Y-96630421D02*
X124600457Y-96554231D01*
X124676647Y-95563754D02*
X124676647Y-94954231D01*
X124905219Y-94954231D02*
X124905219Y-95563754D01*
X125095695Y-93544707D02*
X125095695Y-94001850D01*
X125095695Y-93773278D02*
X124295695Y-93773278D01*
X124295695Y-93773278D02*
X124409980Y-93849469D01*
X124409980Y-93849469D02*
X124486171Y-93925659D01*
X124486171Y-93925659D02*
X124524266Y-94001850D01*
X124562361Y-92858992D02*
X125095695Y-92858992D01*
X124257600Y-93049468D02*
X124829028Y-93239945D01*
X124829028Y-93239945D02*
X124829028Y-92744706D01*
X124295695Y-92287563D02*
X124295695Y-92211373D01*
X124295695Y-92211373D02*
X124333790Y-92135182D01*
X124333790Y-92135182D02*
X124371885Y-92097087D01*
X124371885Y-92097087D02*
X124448076Y-92058992D01*
X124448076Y-92058992D02*
X124600457Y-92020897D01*
X124600457Y-92020897D02*
X124790933Y-92020897D01*
X124790933Y-92020897D02*
X124943314Y-92058992D01*
X124943314Y-92058992D02*
X125019504Y-92097087D01*
X125019504Y-92097087D02*
X125057600Y-92135182D01*
X125057600Y-92135182D02*
X125095695Y-92211373D01*
X125095695Y-92211373D02*
X125095695Y-92287563D01*
X125095695Y-92287563D02*
X125057600Y-92363754D01*
X125057600Y-92363754D02*
X125019504Y-92401849D01*
X125019504Y-92401849D02*
X124943314Y-92439944D01*
X124943314Y-92439944D02*
X124790933Y-92478040D01*
X124790933Y-92478040D02*
X124600457Y-92478040D01*
X124600457Y-92478040D02*
X124448076Y-92439944D01*
X124448076Y-92439944D02*
X124371885Y-92401849D01*
X124371885Y-92401849D02*
X124333790Y-92363754D01*
X124333790Y-92363754D02*
X124295695Y-92287563D01*
X125095695Y-91678039D02*
X124562361Y-91678039D01*
X124638552Y-91678039D02*
X124600457Y-91639944D01*
X124600457Y-91639944D02*
X124562361Y-91563754D01*
X124562361Y-91563754D02*
X124562361Y-91449468D01*
X124562361Y-91449468D02*
X124600457Y-91373277D01*
X124600457Y-91373277D02*
X124676647Y-91335182D01*
X124676647Y-91335182D02*
X125095695Y-91335182D01*
X124676647Y-91335182D02*
X124600457Y-91297087D01*
X124600457Y-91297087D02*
X124562361Y-91220896D01*
X124562361Y-91220896D02*
X124562361Y-91106611D01*
X124562361Y-91106611D02*
X124600457Y-91030420D01*
X124600457Y-91030420D02*
X124676647Y-90992325D01*
X124676647Y-90992325D02*
X125095695Y-90992325D01*
X124295695Y-90725658D02*
X125095695Y-90458991D01*
X125095695Y-90458991D02*
X124295695Y-90192325D01*
X125583695Y-102154231D02*
X126383695Y-101887564D01*
X126383695Y-101887564D02*
X125583695Y-101620898D01*
X126383695Y-101316136D02*
X126383695Y-101163755D01*
X126383695Y-101163755D02*
X126345600Y-101087565D01*
X126345600Y-101087565D02*
X126307504Y-101049469D01*
X126307504Y-101049469D02*
X126193219Y-100973279D01*
X126193219Y-100973279D02*
X126040838Y-100935184D01*
X126040838Y-100935184D02*
X125736076Y-100935184D01*
X125736076Y-100935184D02*
X125659885Y-100973279D01*
X125659885Y-100973279D02*
X125621790Y-101011374D01*
X125621790Y-101011374D02*
X125583695Y-101087565D01*
X125583695Y-101087565D02*
X125583695Y-101239946D01*
X125583695Y-101239946D02*
X125621790Y-101316136D01*
X125621790Y-101316136D02*
X125659885Y-101354231D01*
X125659885Y-101354231D02*
X125736076Y-101392327D01*
X125736076Y-101392327D02*
X125926552Y-101392327D01*
X125926552Y-101392327D02*
X126002742Y-101354231D01*
X126002742Y-101354231D02*
X126040838Y-101316136D01*
X126040838Y-101316136D02*
X126078933Y-101239946D01*
X126078933Y-101239946D02*
X126078933Y-101087565D01*
X126078933Y-101087565D02*
X126040838Y-101011374D01*
X126040838Y-101011374D02*
X126002742Y-100973279D01*
X126002742Y-100973279D02*
X125926552Y-100935184D01*
X125583695Y-100668517D02*
X125583695Y-100173279D01*
X125583695Y-100173279D02*
X125888457Y-100439945D01*
X125888457Y-100439945D02*
X125888457Y-100325660D01*
X125888457Y-100325660D02*
X125926552Y-100249469D01*
X125926552Y-100249469D02*
X125964647Y-100211374D01*
X125964647Y-100211374D02*
X126040838Y-100173279D01*
X126040838Y-100173279D02*
X126231314Y-100173279D01*
X126231314Y-100173279D02*
X126307504Y-100211374D01*
X126307504Y-100211374D02*
X126345600Y-100249469D01*
X126345600Y-100249469D02*
X126383695Y-100325660D01*
X126383695Y-100325660D02*
X126383695Y-100554231D01*
X126383695Y-100554231D02*
X126345600Y-100630422D01*
X126345600Y-100630422D02*
X126307504Y-100668517D01*
X125583695Y-99487564D02*
X125583695Y-99639945D01*
X125583695Y-99639945D02*
X125621790Y-99716136D01*
X125621790Y-99716136D02*
X125659885Y-99754231D01*
X125659885Y-99754231D02*
X125774171Y-99830421D01*
X125774171Y-99830421D02*
X125926552Y-99868517D01*
X125926552Y-99868517D02*
X126231314Y-99868517D01*
X126231314Y-99868517D02*
X126307504Y-99830421D01*
X126307504Y-99830421D02*
X126345600Y-99792326D01*
X126345600Y-99792326D02*
X126383695Y-99716136D01*
X126383695Y-99716136D02*
X126383695Y-99563755D01*
X126383695Y-99563755D02*
X126345600Y-99487564D01*
X126345600Y-99487564D02*
X126307504Y-99449469D01*
X126307504Y-99449469D02*
X126231314Y-99411374D01*
X126231314Y-99411374D02*
X126040838Y-99411374D01*
X126040838Y-99411374D02*
X125964647Y-99449469D01*
X125964647Y-99449469D02*
X125926552Y-99487564D01*
X125926552Y-99487564D02*
X125888457Y-99563755D01*
X125888457Y-99563755D02*
X125888457Y-99716136D01*
X125888457Y-99716136D02*
X125926552Y-99792326D01*
X125926552Y-99792326D02*
X125964647Y-99830421D01*
X125964647Y-99830421D02*
X126040838Y-99868517D01*
X125583695Y-98916135D02*
X125583695Y-98839945D01*
X125583695Y-98839945D02*
X125621790Y-98763754D01*
X125621790Y-98763754D02*
X125659885Y-98725659D01*
X125659885Y-98725659D02*
X125736076Y-98687564D01*
X125736076Y-98687564D02*
X125888457Y-98649469D01*
X125888457Y-98649469D02*
X126078933Y-98649469D01*
X126078933Y-98649469D02*
X126231314Y-98687564D01*
X126231314Y-98687564D02*
X126307504Y-98725659D01*
X126307504Y-98725659D02*
X126345600Y-98763754D01*
X126345600Y-98763754D02*
X126383695Y-98839945D01*
X126383695Y-98839945D02*
X126383695Y-98916135D01*
X126383695Y-98916135D02*
X126345600Y-98992326D01*
X126345600Y-98992326D02*
X126307504Y-99030421D01*
X126307504Y-99030421D02*
X126231314Y-99068516D01*
X126231314Y-99068516D02*
X126078933Y-99106612D01*
X126078933Y-99106612D02*
X125888457Y-99106612D01*
X125888457Y-99106612D02*
X125736076Y-99068516D01*
X125736076Y-99068516D02*
X125659885Y-99030421D01*
X125659885Y-99030421D02*
X125621790Y-98992326D01*
X125621790Y-98992326D02*
X125583695Y-98916135D01*
X125964647Y-97430421D02*
X126002742Y-97316135D01*
X126002742Y-97316135D02*
X126040838Y-97278040D01*
X126040838Y-97278040D02*
X126117028Y-97239944D01*
X126117028Y-97239944D02*
X126231314Y-97239944D01*
X126231314Y-97239944D02*
X126307504Y-97278040D01*
X126307504Y-97278040D02*
X126345600Y-97316135D01*
X126345600Y-97316135D02*
X126383695Y-97392325D01*
X126383695Y-97392325D02*
X126383695Y-97697087D01*
X126383695Y-97697087D02*
X125583695Y-97697087D01*
X125583695Y-97697087D02*
X125583695Y-97430421D01*
X125583695Y-97430421D02*
X125621790Y-97354230D01*
X125621790Y-97354230D02*
X125659885Y-97316135D01*
X125659885Y-97316135D02*
X125736076Y-97278040D01*
X125736076Y-97278040D02*
X125812266Y-97278040D01*
X125812266Y-97278040D02*
X125888457Y-97316135D01*
X125888457Y-97316135D02*
X125926552Y-97354230D01*
X125926552Y-97354230D02*
X125964647Y-97430421D01*
X125964647Y-97430421D02*
X125964647Y-97697087D01*
X126383695Y-96897087D02*
X125850361Y-96897087D01*
X126002742Y-96897087D02*
X125926552Y-96858992D01*
X125926552Y-96858992D02*
X125888457Y-96820897D01*
X125888457Y-96820897D02*
X125850361Y-96744706D01*
X125850361Y-96744706D02*
X125850361Y-96668516D01*
X126345600Y-96097087D02*
X126383695Y-96173278D01*
X126383695Y-96173278D02*
X126383695Y-96325659D01*
X126383695Y-96325659D02*
X126345600Y-96401849D01*
X126345600Y-96401849D02*
X126269409Y-96439945D01*
X126269409Y-96439945D02*
X125964647Y-96439945D01*
X125964647Y-96439945D02*
X125888457Y-96401849D01*
X125888457Y-96401849D02*
X125850361Y-96325659D01*
X125850361Y-96325659D02*
X125850361Y-96173278D01*
X125850361Y-96173278D02*
X125888457Y-96097087D01*
X125888457Y-96097087D02*
X125964647Y-96058992D01*
X125964647Y-96058992D02*
X126040838Y-96058992D01*
X126040838Y-96058992D02*
X126117028Y-96439945D01*
X126383695Y-95373278D02*
X125964647Y-95373278D01*
X125964647Y-95373278D02*
X125888457Y-95411373D01*
X125888457Y-95411373D02*
X125850361Y-95487564D01*
X125850361Y-95487564D02*
X125850361Y-95639945D01*
X125850361Y-95639945D02*
X125888457Y-95716135D01*
X126345600Y-95373278D02*
X126383695Y-95449469D01*
X126383695Y-95449469D02*
X126383695Y-95639945D01*
X126383695Y-95639945D02*
X126345600Y-95716135D01*
X126345600Y-95716135D02*
X126269409Y-95754231D01*
X126269409Y-95754231D02*
X126193219Y-95754231D01*
X126193219Y-95754231D02*
X126117028Y-95716135D01*
X126117028Y-95716135D02*
X126078933Y-95639945D01*
X126078933Y-95639945D02*
X126078933Y-95449469D01*
X126078933Y-95449469D02*
X126040838Y-95373278D01*
X126383695Y-94992325D02*
X125583695Y-94992325D01*
X126078933Y-94916135D02*
X126383695Y-94687563D01*
X125850361Y-94687563D02*
X126155123Y-94992325D01*
X126383695Y-94230421D02*
X126345600Y-94306611D01*
X126345600Y-94306611D02*
X126307504Y-94344706D01*
X126307504Y-94344706D02*
X126231314Y-94382802D01*
X126231314Y-94382802D02*
X126002742Y-94382802D01*
X126002742Y-94382802D02*
X125926552Y-94344706D01*
X125926552Y-94344706D02*
X125888457Y-94306611D01*
X125888457Y-94306611D02*
X125850361Y-94230421D01*
X125850361Y-94230421D02*
X125850361Y-94116135D01*
X125850361Y-94116135D02*
X125888457Y-94039944D01*
X125888457Y-94039944D02*
X125926552Y-94001849D01*
X125926552Y-94001849D02*
X126002742Y-93963754D01*
X126002742Y-93963754D02*
X126231314Y-93963754D01*
X126231314Y-93963754D02*
X126307504Y-94001849D01*
X126307504Y-94001849D02*
X126345600Y-94039944D01*
X126345600Y-94039944D02*
X126383695Y-94116135D01*
X126383695Y-94116135D02*
X126383695Y-94230421D01*
X125850361Y-93278039D02*
X126383695Y-93278039D01*
X125850361Y-93620896D02*
X126269409Y-93620896D01*
X126269409Y-93620896D02*
X126345600Y-93582801D01*
X126345600Y-93582801D02*
X126383695Y-93506611D01*
X126383695Y-93506611D02*
X126383695Y-93392325D01*
X126383695Y-93392325D02*
X126345600Y-93316134D01*
X126345600Y-93316134D02*
X126307504Y-93278039D01*
X125850361Y-93011372D02*
X125850361Y-92706610D01*
X125583695Y-92897086D02*
X126269409Y-92897086D01*
X126269409Y-92897086D02*
X126345600Y-92858991D01*
X126345600Y-92858991D02*
X126383695Y-92782801D01*
X126383695Y-92782801D02*
X126383695Y-92706610D01*
X146449695Y-106611945D02*
X145649695Y-106611945D01*
X146221123Y-106269089D02*
X146221123Y-105888136D01*
X146449695Y-106345279D02*
X145649695Y-106078612D01*
X145649695Y-106078612D02*
X146449695Y-105811946D01*
X146449695Y-105545279D02*
X145649695Y-105545279D01*
X145649695Y-105545279D02*
X146449695Y-105088136D01*
X146449695Y-105088136D02*
X145649695Y-105088136D01*
X131209695Y-106611945D02*
X130409695Y-106611945D01*
X130409695Y-106611945D02*
X130409695Y-106307183D01*
X130409695Y-106307183D02*
X130447790Y-106230993D01*
X130447790Y-106230993D02*
X130485885Y-106192898D01*
X130485885Y-106192898D02*
X130562076Y-106154802D01*
X130562076Y-106154802D02*
X130676361Y-106154802D01*
X130676361Y-106154802D02*
X130752552Y-106192898D01*
X130752552Y-106192898D02*
X130790647Y-106230993D01*
X130790647Y-106230993D02*
X130828742Y-106307183D01*
X130828742Y-106307183D02*
X130828742Y-106611945D01*
X130409695Y-105888136D02*
X130409695Y-105392898D01*
X130409695Y-105392898D02*
X130714457Y-105659564D01*
X130714457Y-105659564D02*
X130714457Y-105545279D01*
X130714457Y-105545279D02*
X130752552Y-105469088D01*
X130752552Y-105469088D02*
X130790647Y-105430993D01*
X130790647Y-105430993D02*
X130866838Y-105392898D01*
X130866838Y-105392898D02*
X131057314Y-105392898D01*
X131057314Y-105392898D02*
X131133504Y-105430993D01*
X131133504Y-105430993D02*
X131171600Y-105469088D01*
X131171600Y-105469088D02*
X131209695Y-105545279D01*
X131209695Y-105545279D02*
X131209695Y-105773850D01*
X131209695Y-105773850D02*
X131171600Y-105850041D01*
X131171600Y-105850041D02*
X131133504Y-105888136D01*
X148989695Y-106611945D02*
X148189695Y-106611945D01*
X148761123Y-106269089D02*
X148761123Y-105888136D01*
X148989695Y-106345279D02*
X148189695Y-106078612D01*
X148189695Y-106078612D02*
X148989695Y-105811946D01*
X148989695Y-105545279D02*
X148189695Y-105545279D01*
X148189695Y-105545279D02*
X148189695Y-105240517D01*
X148189695Y-105240517D02*
X148227790Y-105164327D01*
X148227790Y-105164327D02*
X148265885Y-105126232D01*
X148265885Y-105126232D02*
X148342076Y-105088136D01*
X148342076Y-105088136D02*
X148456361Y-105088136D01*
X148456361Y-105088136D02*
X148532552Y-105126232D01*
X148532552Y-105126232D02*
X148570647Y-105164327D01*
X148570647Y-105164327D02*
X148608742Y-105240517D01*
X148608742Y-105240517D02*
X148608742Y-105545279D01*
X133749695Y-106611945D02*
X132949695Y-106611945D01*
X132949695Y-106611945D02*
X132949695Y-106307183D01*
X132949695Y-106307183D02*
X132987790Y-106230993D01*
X132987790Y-106230993D02*
X133025885Y-106192898D01*
X133025885Y-106192898D02*
X133102076Y-106154802D01*
X133102076Y-106154802D02*
X133216361Y-106154802D01*
X133216361Y-106154802D02*
X133292552Y-106192898D01*
X133292552Y-106192898D02*
X133330647Y-106230993D01*
X133330647Y-106230993D02*
X133368742Y-106307183D01*
X133368742Y-106307183D02*
X133368742Y-106611945D01*
X133025885Y-105850041D02*
X132987790Y-105811945D01*
X132987790Y-105811945D02*
X132949695Y-105735755D01*
X132949695Y-105735755D02*
X132949695Y-105545279D01*
X132949695Y-105545279D02*
X132987790Y-105469088D01*
X132987790Y-105469088D02*
X133025885Y-105430993D01*
X133025885Y-105430993D02*
X133102076Y-105392898D01*
X133102076Y-105392898D02*
X133178266Y-105392898D01*
X133178266Y-105392898D02*
X133292552Y-105430993D01*
X133292552Y-105430993D02*
X133749695Y-105888136D01*
X133749695Y-105888136D02*
X133749695Y-105392898D01*
X136289695Y-106154802D02*
X135908742Y-106421469D01*
X136289695Y-106611945D02*
X135489695Y-106611945D01*
X135489695Y-106611945D02*
X135489695Y-106307183D01*
X135489695Y-106307183D02*
X135527790Y-106230993D01*
X135527790Y-106230993D02*
X135565885Y-106192898D01*
X135565885Y-106192898D02*
X135642076Y-106154802D01*
X135642076Y-106154802D02*
X135756361Y-106154802D01*
X135756361Y-106154802D02*
X135832552Y-106192898D01*
X135832552Y-106192898D02*
X135870647Y-106230993D01*
X135870647Y-106230993D02*
X135908742Y-106307183D01*
X135908742Y-106307183D02*
X135908742Y-106611945D01*
X135489695Y-105888136D02*
X136289695Y-105354802D01*
X135489695Y-105354802D02*
X136289695Y-105888136D01*
X127869695Y-106726231D02*
X128669695Y-106459564D01*
X128669695Y-106459564D02*
X127869695Y-106192898D01*
X128669695Y-105926231D02*
X127869695Y-105926231D01*
X128669695Y-105545279D02*
X127869695Y-105545279D01*
X127869695Y-105545279D02*
X128669695Y-105088136D01*
X128669695Y-105088136D02*
X127869695Y-105088136D01*
X150996667Y-92739504D02*
X150958571Y-92777600D01*
X150958571Y-92777600D02*
X150844286Y-92815695D01*
X150844286Y-92815695D02*
X150768095Y-92815695D01*
X150768095Y-92815695D02*
X150653809Y-92777600D01*
X150653809Y-92777600D02*
X150577619Y-92701409D01*
X150577619Y-92701409D02*
X150539524Y-92625219D01*
X150539524Y-92625219D02*
X150501428Y-92472838D01*
X150501428Y-92472838D02*
X150501428Y-92358552D01*
X150501428Y-92358552D02*
X150539524Y-92206171D01*
X150539524Y-92206171D02*
X150577619Y-92129980D01*
X150577619Y-92129980D02*
X150653809Y-92053790D01*
X150653809Y-92053790D02*
X150768095Y-92015695D01*
X150768095Y-92015695D02*
X150844286Y-92015695D01*
X150844286Y-92015695D02*
X150958571Y-92053790D01*
X150958571Y-92053790D02*
X150996667Y-92091885D01*
X151263333Y-92015695D02*
X151796667Y-92015695D01*
X151796667Y-92015695D02*
X151453809Y-92815695D01*
X145154667Y-86389504D02*
X145116571Y-86427600D01*
X145116571Y-86427600D02*
X145002286Y-86465695D01*
X145002286Y-86465695D02*
X144926095Y-86465695D01*
X144926095Y-86465695D02*
X144811809Y-86427600D01*
X144811809Y-86427600D02*
X144735619Y-86351409D01*
X144735619Y-86351409D02*
X144697524Y-86275219D01*
X144697524Y-86275219D02*
X144659428Y-86122838D01*
X144659428Y-86122838D02*
X144659428Y-86008552D01*
X144659428Y-86008552D02*
X144697524Y-85856171D01*
X144697524Y-85856171D02*
X144735619Y-85779980D01*
X144735619Y-85779980D02*
X144811809Y-85703790D01*
X144811809Y-85703790D02*
X144926095Y-85665695D01*
X144926095Y-85665695D02*
X145002286Y-85665695D01*
X145002286Y-85665695D02*
X145116571Y-85703790D01*
X145116571Y-85703790D02*
X145154667Y-85741885D01*
X145840381Y-85932361D02*
X145840381Y-86465695D01*
X145649905Y-85627600D02*
X145459428Y-86199028D01*
X145459428Y-86199028D02*
X145954667Y-86199028D01*
X131347504Y-87509332D02*
X131385600Y-87547428D01*
X131385600Y-87547428D02*
X131423695Y-87661713D01*
X131423695Y-87661713D02*
X131423695Y-87737904D01*
X131423695Y-87737904D02*
X131385600Y-87852190D01*
X131385600Y-87852190D02*
X131309409Y-87928380D01*
X131309409Y-87928380D02*
X131233219Y-87966475D01*
X131233219Y-87966475D02*
X131080838Y-88004571D01*
X131080838Y-88004571D02*
X130966552Y-88004571D01*
X130966552Y-88004571D02*
X130814171Y-87966475D01*
X130814171Y-87966475D02*
X130737980Y-87928380D01*
X130737980Y-87928380D02*
X130661790Y-87852190D01*
X130661790Y-87852190D02*
X130623695Y-87737904D01*
X130623695Y-87737904D02*
X130623695Y-87661713D01*
X130623695Y-87661713D02*
X130661790Y-87547428D01*
X130661790Y-87547428D02*
X130699885Y-87509332D01*
X130699885Y-87204571D02*
X130661790Y-87166475D01*
X130661790Y-87166475D02*
X130623695Y-87090285D01*
X130623695Y-87090285D02*
X130623695Y-86899809D01*
X130623695Y-86899809D02*
X130661790Y-86823618D01*
X130661790Y-86823618D02*
X130699885Y-86785523D01*
X130699885Y-86785523D02*
X130776076Y-86747428D01*
X130776076Y-86747428D02*
X130852266Y-86747428D01*
X130852266Y-86747428D02*
X130966552Y-86785523D01*
X130966552Y-86785523D02*
X131423695Y-87242666D01*
X131423695Y-87242666D02*
X131423695Y-86747428D01*
X150996667Y-97387695D02*
X150730000Y-97006742D01*
X150539524Y-97387695D02*
X150539524Y-96587695D01*
X150539524Y-96587695D02*
X150844286Y-96587695D01*
X150844286Y-96587695D02*
X150920476Y-96625790D01*
X150920476Y-96625790D02*
X150958571Y-96663885D01*
X150958571Y-96663885D02*
X150996667Y-96740076D01*
X150996667Y-96740076D02*
X150996667Y-96854361D01*
X150996667Y-96854361D02*
X150958571Y-96930552D01*
X150958571Y-96930552D02*
X150920476Y-96968647D01*
X150920476Y-96968647D02*
X150844286Y-97006742D01*
X150844286Y-97006742D02*
X150539524Y-97006742D01*
X151720476Y-96587695D02*
X151339524Y-96587695D01*
X151339524Y-96587695D02*
X151301428Y-96968647D01*
X151301428Y-96968647D02*
X151339524Y-96930552D01*
X151339524Y-96930552D02*
X151415714Y-96892457D01*
X151415714Y-96892457D02*
X151606190Y-96892457D01*
X151606190Y-96892457D02*
X151682381Y-96930552D01*
X151682381Y-96930552D02*
X151720476Y-96968647D01*
X151720476Y-96968647D02*
X151758571Y-97044838D01*
X151758571Y-97044838D02*
X151758571Y-97235314D01*
X151758571Y-97235314D02*
X151720476Y-97311504D01*
X151720476Y-97311504D02*
X151682381Y-97349600D01*
X151682381Y-97349600D02*
X151606190Y-97387695D01*
X151606190Y-97387695D02*
X151415714Y-97387695D01*
X151415714Y-97387695D02*
X151339524Y-97349600D01*
X151339524Y-97349600D02*
X151301428Y-97311504D01*
X144900667Y-88167504D02*
X144862571Y-88205600D01*
X144862571Y-88205600D02*
X144748286Y-88243695D01*
X144748286Y-88243695D02*
X144672095Y-88243695D01*
X144672095Y-88243695D02*
X144557809Y-88205600D01*
X144557809Y-88205600D02*
X144481619Y-88129409D01*
X144481619Y-88129409D02*
X144443524Y-88053219D01*
X144443524Y-88053219D02*
X144405428Y-87900838D01*
X144405428Y-87900838D02*
X144405428Y-87786552D01*
X144405428Y-87786552D02*
X144443524Y-87634171D01*
X144443524Y-87634171D02*
X144481619Y-87557980D01*
X144481619Y-87557980D02*
X144557809Y-87481790D01*
X144557809Y-87481790D02*
X144672095Y-87443695D01*
X144672095Y-87443695D02*
X144748286Y-87443695D01*
X144748286Y-87443695D02*
X144862571Y-87481790D01*
X144862571Y-87481790D02*
X144900667Y-87519885D01*
X145624476Y-87443695D02*
X145243524Y-87443695D01*
X145243524Y-87443695D02*
X145205428Y-87824647D01*
X145205428Y-87824647D02*
X145243524Y-87786552D01*
X145243524Y-87786552D02*
X145319714Y-87748457D01*
X145319714Y-87748457D02*
X145510190Y-87748457D01*
X145510190Y-87748457D02*
X145586381Y-87786552D01*
X145586381Y-87786552D02*
X145624476Y-87824647D01*
X145624476Y-87824647D02*
X145662571Y-87900838D01*
X145662571Y-87900838D02*
X145662571Y-88091314D01*
X145662571Y-88091314D02*
X145624476Y-88167504D01*
X145624476Y-88167504D02*
X145586381Y-88205600D01*
X145586381Y-88205600D02*
X145510190Y-88243695D01*
X145510190Y-88243695D02*
X145319714Y-88243695D01*
X145319714Y-88243695D02*
X145243524Y-88205600D01*
X145243524Y-88205600D02*
X145205428Y-88167504D01*
X150996667Y-95863695D02*
X150730000Y-95482742D01*
X150539524Y-95863695D02*
X150539524Y-95063695D01*
X150539524Y-95063695D02*
X150844286Y-95063695D01*
X150844286Y-95063695D02*
X150920476Y-95101790D01*
X150920476Y-95101790D02*
X150958571Y-95139885D01*
X150958571Y-95139885D02*
X150996667Y-95216076D01*
X150996667Y-95216076D02*
X150996667Y-95330361D01*
X150996667Y-95330361D02*
X150958571Y-95406552D01*
X150958571Y-95406552D02*
X150920476Y-95444647D01*
X150920476Y-95444647D02*
X150844286Y-95482742D01*
X150844286Y-95482742D02*
X150539524Y-95482742D01*
X151758571Y-95863695D02*
X151301428Y-95863695D01*
X151530000Y-95863695D02*
X151530000Y-95063695D01*
X151530000Y-95063695D02*
X151453809Y-95177980D01*
X151453809Y-95177980D02*
X151377619Y-95254171D01*
X151377619Y-95254171D02*
X151301428Y-95292266D01*
X138360476Y-99782695D02*
X138360476Y-100430314D01*
X138360476Y-100430314D02*
X138398571Y-100506504D01*
X138398571Y-100506504D02*
X138436666Y-100544600D01*
X138436666Y-100544600D02*
X138512857Y-100582695D01*
X138512857Y-100582695D02*
X138665238Y-100582695D01*
X138665238Y-100582695D02*
X138741428Y-100544600D01*
X138741428Y-100544600D02*
X138779523Y-100506504D01*
X138779523Y-100506504D02*
X138817619Y-100430314D01*
X138817619Y-100430314D02*
X138817619Y-99782695D01*
X139617618Y-100582695D02*
X139160475Y-100582695D01*
X139389047Y-100582695D02*
X139389047Y-99782695D01*
X139389047Y-99782695D02*
X139312856Y-99896980D01*
X139312856Y-99896980D02*
X139236666Y-99973171D01*
X139236666Y-99973171D02*
X139160475Y-100011266D01*
X147933695Y-99447332D02*
X147552742Y-99713999D01*
X147933695Y-99904475D02*
X147133695Y-99904475D01*
X147133695Y-99904475D02*
X147133695Y-99599713D01*
X147133695Y-99599713D02*
X147171790Y-99523523D01*
X147171790Y-99523523D02*
X147209885Y-99485428D01*
X147209885Y-99485428D02*
X147286076Y-99447332D01*
X147286076Y-99447332D02*
X147400361Y-99447332D01*
X147400361Y-99447332D02*
X147476552Y-99485428D01*
X147476552Y-99485428D02*
X147514647Y-99523523D01*
X147514647Y-99523523D02*
X147552742Y-99599713D01*
X147552742Y-99599713D02*
X147552742Y-99904475D01*
X147400361Y-98761618D02*
X147933695Y-98761618D01*
X147095600Y-98952094D02*
X147667028Y-99142571D01*
X147667028Y-99142571D02*
X147667028Y-98647332D01*
X125499695Y-108724666D02*
X126071123Y-108724666D01*
X126071123Y-108724666D02*
X126185409Y-108762761D01*
X126185409Y-108762761D02*
X126261600Y-108838952D01*
X126261600Y-108838952D02*
X126299695Y-108953237D01*
X126299695Y-108953237D02*
X126299695Y-109029428D01*
X126299695Y-107924666D02*
X126299695Y-108381809D01*
X126299695Y-108153237D02*
X125499695Y-108153237D01*
X125499695Y-108153237D02*
X125613980Y-108229428D01*
X125613980Y-108229428D02*
X125690171Y-108305618D01*
X125690171Y-108305618D02*
X125728266Y-108381809D01*
X147933695Y-102686332D02*
X147552742Y-102952999D01*
X147933695Y-103143475D02*
X147133695Y-103143475D01*
X147133695Y-103143475D02*
X147133695Y-102838713D01*
X147133695Y-102838713D02*
X147171790Y-102762523D01*
X147171790Y-102762523D02*
X147209885Y-102724428D01*
X147209885Y-102724428D02*
X147286076Y-102686332D01*
X147286076Y-102686332D02*
X147400361Y-102686332D01*
X147400361Y-102686332D02*
X147476552Y-102724428D01*
X147476552Y-102724428D02*
X147514647Y-102762523D01*
X147514647Y-102762523D02*
X147552742Y-102838713D01*
X147552742Y-102838713D02*
X147552742Y-103143475D01*
X147133695Y-102419666D02*
X147133695Y-101924428D01*
X147133695Y-101924428D02*
X147438457Y-102191094D01*
X147438457Y-102191094D02*
X147438457Y-102076809D01*
X147438457Y-102076809D02*
X147476552Y-102000618D01*
X147476552Y-102000618D02*
X147514647Y-101962523D01*
X147514647Y-101962523D02*
X147590838Y-101924428D01*
X147590838Y-101924428D02*
X147781314Y-101924428D01*
X147781314Y-101924428D02*
X147857504Y-101962523D01*
X147857504Y-101962523D02*
X147895600Y-102000618D01*
X147895600Y-102000618D02*
X147933695Y-102076809D01*
X147933695Y-102076809D02*
X147933695Y-102305380D01*
X147933695Y-102305380D02*
X147895600Y-102381571D01*
X147895600Y-102381571D02*
X147857504Y-102419666D01*
X149127504Y-99447332D02*
X149165600Y-99485428D01*
X149165600Y-99485428D02*
X149203695Y-99599713D01*
X149203695Y-99599713D02*
X149203695Y-99675904D01*
X149203695Y-99675904D02*
X149165600Y-99790190D01*
X149165600Y-99790190D02*
X149089409Y-99866380D01*
X149089409Y-99866380D02*
X149013219Y-99904475D01*
X149013219Y-99904475D02*
X148860838Y-99942571D01*
X148860838Y-99942571D02*
X148746552Y-99942571D01*
X148746552Y-99942571D02*
X148594171Y-99904475D01*
X148594171Y-99904475D02*
X148517980Y-99866380D01*
X148517980Y-99866380D02*
X148441790Y-99790190D01*
X148441790Y-99790190D02*
X148403695Y-99675904D01*
X148403695Y-99675904D02*
X148403695Y-99599713D01*
X148403695Y-99599713D02*
X148441790Y-99485428D01*
X148441790Y-99485428D02*
X148479885Y-99447332D01*
X149203695Y-99066380D02*
X149203695Y-98913999D01*
X149203695Y-98913999D02*
X149165600Y-98837809D01*
X149165600Y-98837809D02*
X149127504Y-98799713D01*
X149127504Y-98799713D02*
X149013219Y-98723523D01*
X149013219Y-98723523D02*
X148860838Y-98685428D01*
X148860838Y-98685428D02*
X148556076Y-98685428D01*
X148556076Y-98685428D02*
X148479885Y-98723523D01*
X148479885Y-98723523D02*
X148441790Y-98761618D01*
X148441790Y-98761618D02*
X148403695Y-98837809D01*
X148403695Y-98837809D02*
X148403695Y-98990190D01*
X148403695Y-98990190D02*
X148441790Y-99066380D01*
X148441790Y-99066380D02*
X148479885Y-99104475D01*
X148479885Y-99104475D02*
X148556076Y-99142571D01*
X148556076Y-99142571D02*
X148746552Y-99142571D01*
X148746552Y-99142571D02*
X148822742Y-99104475D01*
X148822742Y-99104475D02*
X148860838Y-99066380D01*
X148860838Y-99066380D02*
X148898933Y-98990190D01*
X148898933Y-98990190D02*
X148898933Y-98837809D01*
X148898933Y-98837809D02*
X148860838Y-98761618D01*
X148860838Y-98761618D02*
X148822742Y-98723523D01*
X148822742Y-98723523D02*
X148746552Y-98685428D01*
X150996667Y-91291695D02*
X150730000Y-90910742D01*
X150539524Y-91291695D02*
X150539524Y-90491695D01*
X150539524Y-90491695D02*
X150844286Y-90491695D01*
X150844286Y-90491695D02*
X150920476Y-90529790D01*
X150920476Y-90529790D02*
X150958571Y-90567885D01*
X150958571Y-90567885D02*
X150996667Y-90644076D01*
X150996667Y-90644076D02*
X150996667Y-90758361D01*
X150996667Y-90758361D02*
X150958571Y-90834552D01*
X150958571Y-90834552D02*
X150920476Y-90872647D01*
X150920476Y-90872647D02*
X150844286Y-90910742D01*
X150844286Y-90910742D02*
X150539524Y-90910742D01*
X151301428Y-90567885D02*
X151339524Y-90529790D01*
X151339524Y-90529790D02*
X151415714Y-90491695D01*
X151415714Y-90491695D02*
X151606190Y-90491695D01*
X151606190Y-90491695D02*
X151682381Y-90529790D01*
X151682381Y-90529790D02*
X151720476Y-90567885D01*
X151720476Y-90567885D02*
X151758571Y-90644076D01*
X151758571Y-90644076D02*
X151758571Y-90720266D01*
X151758571Y-90720266D02*
X151720476Y-90834552D01*
X151720476Y-90834552D02*
X151263333Y-91291695D01*
X151263333Y-91291695D02*
X151758571Y-91291695D01*
X145063504Y-90938285D02*
X145101600Y-90976381D01*
X145101600Y-90976381D02*
X145139695Y-91090666D01*
X145139695Y-91090666D02*
X145139695Y-91166857D01*
X145139695Y-91166857D02*
X145101600Y-91281143D01*
X145101600Y-91281143D02*
X145025409Y-91357333D01*
X145025409Y-91357333D02*
X144949219Y-91395428D01*
X144949219Y-91395428D02*
X144796838Y-91433524D01*
X144796838Y-91433524D02*
X144682552Y-91433524D01*
X144682552Y-91433524D02*
X144530171Y-91395428D01*
X144530171Y-91395428D02*
X144453980Y-91357333D01*
X144453980Y-91357333D02*
X144377790Y-91281143D01*
X144377790Y-91281143D02*
X144339695Y-91166857D01*
X144339695Y-91166857D02*
X144339695Y-91090666D01*
X144339695Y-91090666D02*
X144377790Y-90976381D01*
X144377790Y-90976381D02*
X144415885Y-90938285D01*
X145139695Y-90176381D02*
X145139695Y-90633524D01*
X145139695Y-90404952D02*
X144339695Y-90404952D01*
X144339695Y-90404952D02*
X144453980Y-90481143D01*
X144453980Y-90481143D02*
X144530171Y-90557333D01*
X144530171Y-90557333D02*
X144568266Y-90633524D01*
X144339695Y-89681142D02*
X144339695Y-89604952D01*
X144339695Y-89604952D02*
X144377790Y-89528761D01*
X144377790Y-89528761D02*
X144415885Y-89490666D01*
X144415885Y-89490666D02*
X144492076Y-89452571D01*
X144492076Y-89452571D02*
X144644457Y-89414476D01*
X144644457Y-89414476D02*
X144834933Y-89414476D01*
X144834933Y-89414476D02*
X144987314Y-89452571D01*
X144987314Y-89452571D02*
X145063504Y-89490666D01*
X145063504Y-89490666D02*
X145101600Y-89528761D01*
X145101600Y-89528761D02*
X145139695Y-89604952D01*
X145139695Y-89604952D02*
X145139695Y-89681142D01*
X145139695Y-89681142D02*
X145101600Y-89757333D01*
X145101600Y-89757333D02*
X145063504Y-89795428D01*
X145063504Y-89795428D02*
X144987314Y-89833523D01*
X144987314Y-89833523D02*
X144834933Y-89871619D01*
X144834933Y-89871619D02*
X144644457Y-89871619D01*
X144644457Y-89871619D02*
X144492076Y-89833523D01*
X144492076Y-89833523D02*
X144415885Y-89795428D01*
X144415885Y-89795428D02*
X144377790Y-89757333D01*
X144377790Y-89757333D02*
X144339695Y-89681142D01*
X137788667Y-88167504D02*
X137750571Y-88205600D01*
X137750571Y-88205600D02*
X137636286Y-88243695D01*
X137636286Y-88243695D02*
X137560095Y-88243695D01*
X137560095Y-88243695D02*
X137445809Y-88205600D01*
X137445809Y-88205600D02*
X137369619Y-88129409D01*
X137369619Y-88129409D02*
X137331524Y-88053219D01*
X137331524Y-88053219D02*
X137293428Y-87900838D01*
X137293428Y-87900838D02*
X137293428Y-87786552D01*
X137293428Y-87786552D02*
X137331524Y-87634171D01*
X137331524Y-87634171D02*
X137369619Y-87557980D01*
X137369619Y-87557980D02*
X137445809Y-87481790D01*
X137445809Y-87481790D02*
X137560095Y-87443695D01*
X137560095Y-87443695D02*
X137636286Y-87443695D01*
X137636286Y-87443695D02*
X137750571Y-87481790D01*
X137750571Y-87481790D02*
X137788667Y-87519885D01*
X138055333Y-87443695D02*
X138550571Y-87443695D01*
X138550571Y-87443695D02*
X138283905Y-87748457D01*
X138283905Y-87748457D02*
X138398190Y-87748457D01*
X138398190Y-87748457D02*
X138474381Y-87786552D01*
X138474381Y-87786552D02*
X138512476Y-87824647D01*
X138512476Y-87824647D02*
X138550571Y-87900838D01*
X138550571Y-87900838D02*
X138550571Y-88091314D01*
X138550571Y-88091314D02*
X138512476Y-88167504D01*
X138512476Y-88167504D02*
X138474381Y-88205600D01*
X138474381Y-88205600D02*
X138398190Y-88243695D01*
X138398190Y-88243695D02*
X138169619Y-88243695D01*
X138169619Y-88243695D02*
X138093428Y-88205600D01*
X138093428Y-88205600D02*
X138055333Y-88167504D01*
X133125504Y-88017332D02*
X133163600Y-88055428D01*
X133163600Y-88055428D02*
X133201695Y-88169713D01*
X133201695Y-88169713D02*
X133201695Y-88245904D01*
X133201695Y-88245904D02*
X133163600Y-88360190D01*
X133163600Y-88360190D02*
X133087409Y-88436380D01*
X133087409Y-88436380D02*
X133011219Y-88474475D01*
X133011219Y-88474475D02*
X132858838Y-88512571D01*
X132858838Y-88512571D02*
X132744552Y-88512571D01*
X132744552Y-88512571D02*
X132592171Y-88474475D01*
X132592171Y-88474475D02*
X132515980Y-88436380D01*
X132515980Y-88436380D02*
X132439790Y-88360190D01*
X132439790Y-88360190D02*
X132401695Y-88245904D01*
X132401695Y-88245904D02*
X132401695Y-88169713D01*
X132401695Y-88169713D02*
X132439790Y-88055428D01*
X132439790Y-88055428D02*
X132477885Y-88017332D01*
X133201695Y-87255428D02*
X133201695Y-87712571D01*
X133201695Y-87483999D02*
X132401695Y-87483999D01*
X132401695Y-87483999D02*
X132515980Y-87560190D01*
X132515980Y-87560190D02*
X132592171Y-87636380D01*
X132592171Y-87636380D02*
X132630266Y-87712571D01*
X150996667Y-89767695D02*
X150730000Y-89386742D01*
X150539524Y-89767695D02*
X150539524Y-88967695D01*
X150539524Y-88967695D02*
X150844286Y-88967695D01*
X150844286Y-88967695D02*
X150920476Y-89005790D01*
X150920476Y-89005790D02*
X150958571Y-89043885D01*
X150958571Y-89043885D02*
X150996667Y-89120076D01*
X150996667Y-89120076D02*
X150996667Y-89234361D01*
X150996667Y-89234361D02*
X150958571Y-89310552D01*
X150958571Y-89310552D02*
X150920476Y-89348647D01*
X150920476Y-89348647D02*
X150844286Y-89386742D01*
X150844286Y-89386742D02*
X150539524Y-89386742D01*
X151682381Y-88967695D02*
X151530000Y-88967695D01*
X151530000Y-88967695D02*
X151453809Y-89005790D01*
X151453809Y-89005790D02*
X151415714Y-89043885D01*
X151415714Y-89043885D02*
X151339524Y-89158171D01*
X151339524Y-89158171D02*
X151301428Y-89310552D01*
X151301428Y-89310552D02*
X151301428Y-89615314D01*
X151301428Y-89615314D02*
X151339524Y-89691504D01*
X151339524Y-89691504D02*
X151377619Y-89729600D01*
X151377619Y-89729600D02*
X151453809Y-89767695D01*
X151453809Y-89767695D02*
X151606190Y-89767695D01*
X151606190Y-89767695D02*
X151682381Y-89729600D01*
X151682381Y-89729600D02*
X151720476Y-89691504D01*
X151720476Y-89691504D02*
X151758571Y-89615314D01*
X151758571Y-89615314D02*
X151758571Y-89424838D01*
X151758571Y-89424838D02*
X151720476Y-89348647D01*
X151720476Y-89348647D02*
X151682381Y-89310552D01*
X151682381Y-89310552D02*
X151606190Y-89272457D01*
X151606190Y-89272457D02*
X151453809Y-89272457D01*
X151453809Y-89272457D02*
X151377619Y-89310552D01*
X151377619Y-89310552D02*
X151339524Y-89348647D01*
X151339524Y-89348647D02*
X151301428Y-89424838D01*
X150996667Y-94263504D02*
X150958571Y-94301600D01*
X150958571Y-94301600D02*
X150844286Y-94339695D01*
X150844286Y-94339695D02*
X150768095Y-94339695D01*
X150768095Y-94339695D02*
X150653809Y-94301600D01*
X150653809Y-94301600D02*
X150577619Y-94225409D01*
X150577619Y-94225409D02*
X150539524Y-94149219D01*
X150539524Y-94149219D02*
X150501428Y-93996838D01*
X150501428Y-93996838D02*
X150501428Y-93882552D01*
X150501428Y-93882552D02*
X150539524Y-93730171D01*
X150539524Y-93730171D02*
X150577619Y-93653980D01*
X150577619Y-93653980D02*
X150653809Y-93577790D01*
X150653809Y-93577790D02*
X150768095Y-93539695D01*
X150768095Y-93539695D02*
X150844286Y-93539695D01*
X150844286Y-93539695D02*
X150958571Y-93577790D01*
X150958571Y-93577790D02*
X150996667Y-93615885D01*
X151682381Y-93539695D02*
X151530000Y-93539695D01*
X151530000Y-93539695D02*
X151453809Y-93577790D01*
X151453809Y-93577790D02*
X151415714Y-93615885D01*
X151415714Y-93615885D02*
X151339524Y-93730171D01*
X151339524Y-93730171D02*
X151301428Y-93882552D01*
X151301428Y-93882552D02*
X151301428Y-94187314D01*
X151301428Y-94187314D02*
X151339524Y-94263504D01*
X151339524Y-94263504D02*
X151377619Y-94301600D01*
X151377619Y-94301600D02*
X151453809Y-94339695D01*
X151453809Y-94339695D02*
X151606190Y-94339695D01*
X151606190Y-94339695D02*
X151682381Y-94301600D01*
X151682381Y-94301600D02*
X151720476Y-94263504D01*
X151720476Y-94263504D02*
X151758571Y-94187314D01*
X151758571Y-94187314D02*
X151758571Y-93996838D01*
X151758571Y-93996838D02*
X151720476Y-93920647D01*
X151720476Y-93920647D02*
X151682381Y-93882552D01*
X151682381Y-93882552D02*
X151606190Y-93844457D01*
X151606190Y-93844457D02*
X151453809Y-93844457D01*
X151453809Y-93844457D02*
X151377619Y-93882552D01*
X151377619Y-93882552D02*
X151339524Y-93920647D01*
X151339524Y-93920647D02*
X151301428Y-93996838D01*
X149127504Y-102699332D02*
X149165600Y-102737428D01*
X149165600Y-102737428D02*
X149203695Y-102851713D01*
X149203695Y-102851713D02*
X149203695Y-102927904D01*
X149203695Y-102927904D02*
X149165600Y-103042190D01*
X149165600Y-103042190D02*
X149089409Y-103118380D01*
X149089409Y-103118380D02*
X149013219Y-103156475D01*
X149013219Y-103156475D02*
X148860838Y-103194571D01*
X148860838Y-103194571D02*
X148746552Y-103194571D01*
X148746552Y-103194571D02*
X148594171Y-103156475D01*
X148594171Y-103156475D02*
X148517980Y-103118380D01*
X148517980Y-103118380D02*
X148441790Y-103042190D01*
X148441790Y-103042190D02*
X148403695Y-102927904D01*
X148403695Y-102927904D02*
X148403695Y-102851713D01*
X148403695Y-102851713D02*
X148441790Y-102737428D01*
X148441790Y-102737428D02*
X148479885Y-102699332D01*
X148746552Y-102242190D02*
X148708457Y-102318380D01*
X148708457Y-102318380D02*
X148670361Y-102356475D01*
X148670361Y-102356475D02*
X148594171Y-102394571D01*
X148594171Y-102394571D02*
X148556076Y-102394571D01*
X148556076Y-102394571D02*
X148479885Y-102356475D01*
X148479885Y-102356475D02*
X148441790Y-102318380D01*
X148441790Y-102318380D02*
X148403695Y-102242190D01*
X148403695Y-102242190D02*
X148403695Y-102089809D01*
X148403695Y-102089809D02*
X148441790Y-102013618D01*
X148441790Y-102013618D02*
X148479885Y-101975523D01*
X148479885Y-101975523D02*
X148556076Y-101937428D01*
X148556076Y-101937428D02*
X148594171Y-101937428D01*
X148594171Y-101937428D02*
X148670361Y-101975523D01*
X148670361Y-101975523D02*
X148708457Y-102013618D01*
X148708457Y-102013618D02*
X148746552Y-102089809D01*
X148746552Y-102089809D02*
X148746552Y-102242190D01*
X148746552Y-102242190D02*
X148784647Y-102318380D01*
X148784647Y-102318380D02*
X148822742Y-102356475D01*
X148822742Y-102356475D02*
X148898933Y-102394571D01*
X148898933Y-102394571D02*
X149051314Y-102394571D01*
X149051314Y-102394571D02*
X149127504Y-102356475D01*
X149127504Y-102356475D02*
X149165600Y-102318380D01*
X149165600Y-102318380D02*
X149203695Y-102242190D01*
X149203695Y-102242190D02*
X149203695Y-102089809D01*
X149203695Y-102089809D02*
X149165600Y-102013618D01*
X149165600Y-102013618D02*
X149127504Y-101975523D01*
X149127504Y-101975523D02*
X149051314Y-101937428D01*
X149051314Y-101937428D02*
X148898933Y-101937428D01*
X148898933Y-101937428D02*
X148822742Y-101975523D01*
X148822742Y-101975523D02*
X148784647Y-102013618D01*
X148784647Y-102013618D02*
X148746552Y-102089809D01*
D11*
%TO.C,C7*%
X148476580Y-92966000D02*
X148195420Y-92966000D01*
X148476580Y-91946000D02*
X148195420Y-91946000D01*
%TO.C,C4*%
X142755252Y-86841000D02*
X142232748Y-86841000D01*
X142755252Y-85371000D02*
X142232748Y-85371000D01*
%TO.C,C2*%
X130329000Y-90431252D02*
X130329000Y-89908748D01*
X131799000Y-90431252D02*
X131799000Y-89908748D01*
%TO.C,R5*%
X148573258Y-97550500D02*
X148098742Y-97550500D01*
X148573258Y-96505500D02*
X148098742Y-96505500D01*
%TO.C,C5*%
X142380580Y-88394000D02*
X142099420Y-88394000D01*
X142380580Y-87374000D02*
X142099420Y-87374000D01*
%TO.C,R1*%
X148098742Y-94981500D02*
X148573258Y-94981500D01*
X148098742Y-96026500D02*
X148573258Y-96026500D01*
D12*
%TO.C,U1*%
X140635000Y-99411000D02*
X136595000Y-99411000D01*
X140635000Y-89311000D02*
X136595000Y-89311000D01*
D10*
X142950000Y-99376000D02*
G75*
G03*
X142950000Y-99376000I-100000J0D01*
G01*
D11*
%TO.C,R4*%
X144794500Y-99267742D02*
X144794500Y-99742258D01*
X143749500Y-99267742D02*
X143749500Y-99742258D01*
%TO.C,J1*%
X126940000Y-109788000D02*
X126940000Y-108458000D01*
X128270000Y-109788000D02*
X126940000Y-109788000D01*
X129540000Y-109788000D02*
X152460000Y-109788000D01*
X129540000Y-109788000D02*
X129540000Y-107128000D01*
X152460000Y-109788000D02*
X152460000Y-107128000D01*
X129540000Y-107128000D02*
X152460000Y-107128000D01*
%TO.C,R3*%
X143749500Y-102790258D02*
X143749500Y-102315742D01*
X144794500Y-102790258D02*
X144794500Y-102315742D01*
%TO.C,C9*%
X146306000Y-99377420D02*
X146306000Y-99658580D01*
X145286000Y-99377420D02*
X145286000Y-99658580D01*
%TO.C,R2*%
X148573258Y-91454500D02*
X148098742Y-91454500D01*
X148573258Y-90409500D02*
X148098742Y-90409500D01*
%TO.C,C10*%
X144270000Y-93358580D02*
X144270000Y-93077420D01*
X145290000Y-93358580D02*
X145290000Y-93077420D01*
%TO.C,C3*%
X135522580Y-88394000D02*
X135241420Y-88394000D01*
X135522580Y-87374000D02*
X135241420Y-87374000D01*
%TO.C,C1*%
X132332000Y-90564580D02*
X132332000Y-90283420D01*
X133352000Y-90564580D02*
X133352000Y-90283420D01*
%TO.C,R6*%
X148573258Y-89930500D02*
X148098742Y-89930500D01*
X148573258Y-88885500D02*
X148098742Y-88885500D01*
%TO.C,C6*%
X148195420Y-93470000D02*
X148476580Y-93470000D01*
X148195420Y-94490000D02*
X148476580Y-94490000D01*
%TO.C,C8*%
X146306000Y-102425420D02*
X146306000Y-102706580D01*
X145286000Y-102425420D02*
X145286000Y-102706580D01*
%TD*%
M02*
