%TF.GenerationSoftware,KiCad,Pcbnew,7.0.7*%
%TF.CreationDate,2025-01-01T22:23:07+10:30*%
%TF.ProjectId,V9360_Breakout,56393336-305f-4427-9265-616b6f75742e,rev?*%
%TF.SameCoordinates,Original*%
%TF.FileFunction,Copper,L2,Bot*%
%TF.FilePolarity,Positive*%
%FSLAX46Y46*%
G04 Gerber Fmt 4.6, Leading zero omitted, Abs format (unit mm)*
G04 Created by KiCad (PCBNEW 7.0.7) date 2025-01-01 22:23:07*
%MOMM*%
%LPD*%
G01*
G04 APERTURE LIST*
%TA.AperFunction,ComponentPad*%
%ADD10R,1.700000X1.700000*%
%TD*%
%TA.AperFunction,ComponentPad*%
%ADD11O,1.700000X1.700000*%
%TD*%
%TA.AperFunction,SMDPad,CuDef*%
%ADD12R,1.500000X1.500000*%
%TD*%
%TA.AperFunction,ViaPad*%
%ADD13C,0.800000*%
%TD*%
%TA.AperFunction,Conductor*%
%ADD14C,0.200000*%
%TD*%
G04 APERTURE END LIST*
D10*
%TO.P,J1,1,Pin_1*%
%TO.N,VIN*%
X128270000Y-108458000D03*
D11*
%TO.P,J1,2,Pin_2*%
%TO.N,P3*%
X130810000Y-108458000D03*
%TO.P,J1,3,Pin_3*%
%TO.N,P2*%
X133350000Y-108458000D03*
%TO.P,J1,4,Pin_4*%
%TO.N,RX*%
X135890000Y-108458000D03*
%TO.P,J1,5,Pin_5*%
%TO.N,TX*%
X138430000Y-108458000D03*
%TO.P,J1,6,Pin_6*%
%TO.N,UP_IN*%
X140970000Y-108458000D03*
%TO.P,J1,7,Pin_7*%
%TO.N,UN_IN*%
X143510000Y-108458000D03*
%TO.P,J1,8,Pin_8*%
%TO.N,IAN_IN*%
X146050000Y-108458000D03*
%TO.P,J1,9,Pin_9*%
%TO.N,IAP_IN*%
X148590000Y-108458000D03*
%TO.P,J1,10,Pin_10*%
%TO.N,UN_IN*%
X151130000Y-108458000D03*
%TD*%
D12*
%TO.P,TP2,1,1*%
%TO.N,IBN*%
X125476000Y-94742000D03*
%TD*%
%TO.P,TP1,1,1*%
%TO.N,IBP*%
X125476000Y-91440000D03*
%TD*%
D13*
%TO.N,UN_IN*%
X157734000Y-87122000D03*
X157734000Y-93218000D03*
X157734000Y-99314000D03*
X157734000Y-105410000D03*
X121920000Y-99314000D03*
X121920000Y-93218000D03*
X121920000Y-105410000D03*
X121920000Y-87122000D03*
X147193000Y-83566000D03*
X139954000Y-83566000D03*
X132715000Y-83566000D03*
X154432000Y-83566000D03*
X125476000Y-83566000D03*
X150622000Y-96266000D03*
X131826000Y-87630000D03*
X131064000Y-92964000D03*
X150622000Y-93218000D03*
%TO.N,IBP*%
X143510000Y-94996000D03*
%TO.N,IBN*%
X143510000Y-96266000D03*
%TD*%
D14*
%TO.N,IBP*%
X130810000Y-94996000D02*
X127254000Y-91440000D01*
X127254000Y-91440000D02*
X125476000Y-91440000D01*
X143510000Y-94996000D02*
X130810000Y-94996000D01*
%TO.N,IBN*%
X143510000Y-96266000D02*
X130302000Y-96266000D01*
X130302000Y-96266000D02*
X128778000Y-94742000D01*
X128778000Y-94742000D02*
X125476000Y-94742000D01*
%TD*%
%TA.AperFunction,Conductor*%
%TO.N,UN_IN*%
G36*
X154072525Y-82432496D02*
G01*
X154277732Y-82441456D01*
X154282654Y-82441870D01*
X154500755Y-82469056D01*
X154705849Y-82496058D01*
X154710420Y-82496837D01*
X154925399Y-82541913D01*
X155127714Y-82586766D01*
X155131969Y-82587869D01*
X155250715Y-82623222D01*
X155342449Y-82650533D01*
X155395220Y-82667171D01*
X155540378Y-82712939D01*
X155544180Y-82714277D01*
X155748265Y-82793912D01*
X155748908Y-82794163D01*
X155940763Y-82873632D01*
X155944234Y-82875196D01*
X156141710Y-82971737D01*
X156141733Y-82971748D01*
X156326061Y-83067704D01*
X156329169Y-83069437D01*
X156451039Y-83142054D01*
X156518108Y-83182019D01*
X156693522Y-83293771D01*
X156696212Y-83295586D01*
X156875304Y-83423456D01*
X157040405Y-83550142D01*
X157042733Y-83552019D01*
X157210753Y-83694323D01*
X157365324Y-83835962D01*
X157522037Y-83992675D01*
X157663676Y-84147246D01*
X157805979Y-84315265D01*
X157807856Y-84317593D01*
X157934543Y-84482695D01*
X158062412Y-84661786D01*
X158064244Y-84664501D01*
X158175986Y-84839901D01*
X158288561Y-85028829D01*
X158290294Y-85031937D01*
X158386251Y-85216266D01*
X158482786Y-85413731D01*
X158484366Y-85417235D01*
X158563836Y-85609091D01*
X158595362Y-85689886D01*
X158643708Y-85813785D01*
X158645072Y-85817657D01*
X158707466Y-86015549D01*
X158770124Y-86226014D01*
X158771232Y-86230286D01*
X158816099Y-86432663D01*
X158861157Y-86647559D01*
X158861946Y-86652191D01*
X158888952Y-86857318D01*
X158916126Y-87075322D01*
X158916543Y-87080288D01*
X158925512Y-87285701D01*
X158934500Y-87503000D01*
X158934500Y-105283000D01*
X158925512Y-105500298D01*
X158916543Y-105705710D01*
X158916126Y-105710676D01*
X158888952Y-105928681D01*
X158861946Y-106133807D01*
X158861157Y-106138439D01*
X158816099Y-106353336D01*
X158771232Y-106555712D01*
X158770124Y-106559984D01*
X158707466Y-106770450D01*
X158645072Y-106968341D01*
X158643700Y-106972236D01*
X158563836Y-107176908D01*
X158484366Y-107368763D01*
X158482786Y-107372267D01*
X158386251Y-107569733D01*
X158290294Y-107754061D01*
X158288561Y-107757169D01*
X158175986Y-107946098D01*
X158064244Y-108121497D01*
X158062412Y-108124212D01*
X157934543Y-108303304D01*
X157807856Y-108468405D01*
X157805979Y-108470733D01*
X157663676Y-108638753D01*
X157522037Y-108793324D01*
X157365324Y-108950037D01*
X157210753Y-109091676D01*
X157042733Y-109233979D01*
X157040405Y-109235856D01*
X156875304Y-109362543D01*
X156696212Y-109490412D01*
X156693497Y-109492244D01*
X156518098Y-109603986D01*
X156329169Y-109716561D01*
X156326061Y-109718294D01*
X156141733Y-109814251D01*
X155944267Y-109910786D01*
X155940763Y-109912366D01*
X155748908Y-109991836D01*
X155544236Y-110071700D01*
X155540341Y-110073072D01*
X155342450Y-110135466D01*
X155131984Y-110198124D01*
X155127712Y-110199232D01*
X154925336Y-110244099D01*
X154710439Y-110289157D01*
X154705807Y-110289946D01*
X154500681Y-110316952D01*
X154282676Y-110344126D01*
X154277710Y-110344543D01*
X154072298Y-110353512D01*
X153855000Y-110362500D01*
X125915000Y-110362500D01*
X125697701Y-110353512D01*
X125492288Y-110344543D01*
X125487322Y-110344126D01*
X125269318Y-110316952D01*
X125064191Y-110289946D01*
X125059559Y-110289157D01*
X124844663Y-110244099D01*
X124642286Y-110199232D01*
X124638014Y-110198124D01*
X124427549Y-110135466D01*
X124229657Y-110073072D01*
X124225785Y-110071708D01*
X124093255Y-110019995D01*
X124021091Y-109991836D01*
X123829235Y-109912366D01*
X123825731Y-109910786D01*
X123628266Y-109814251D01*
X123443937Y-109718294D01*
X123440829Y-109716561D01*
X123251901Y-109603986D01*
X123167675Y-109550328D01*
X123076494Y-109492239D01*
X123073786Y-109490412D01*
X122894695Y-109362543D01*
X122885999Y-109355870D01*
X126919500Y-109355870D01*
X126919501Y-109355876D01*
X126925908Y-109415483D01*
X126976202Y-109550328D01*
X126976206Y-109550335D01*
X127062452Y-109665544D01*
X127062455Y-109665547D01*
X127177664Y-109751793D01*
X127177671Y-109751797D01*
X127312517Y-109802091D01*
X127312516Y-109802091D01*
X127319444Y-109802835D01*
X127372127Y-109808500D01*
X129167872Y-109808499D01*
X129227483Y-109802091D01*
X129362331Y-109751796D01*
X129477546Y-109665546D01*
X129563796Y-109550331D01*
X129612810Y-109418916D01*
X129654681Y-109362984D01*
X129720145Y-109338566D01*
X129788418Y-109353417D01*
X129816672Y-109374569D01*
X129938599Y-109496495D01*
X130035384Y-109564265D01*
X130132165Y-109632032D01*
X130132167Y-109632033D01*
X130132170Y-109632035D01*
X130346337Y-109731903D01*
X130574592Y-109793063D01*
X130751034Y-109808500D01*
X130809999Y-109813659D01*
X130810000Y-109813659D01*
X130810001Y-109813659D01*
X130868966Y-109808500D01*
X131045408Y-109793063D01*
X131273663Y-109731903D01*
X131487830Y-109632035D01*
X131681401Y-109496495D01*
X131848495Y-109329401D01*
X131978424Y-109143842D01*
X132033002Y-109100217D01*
X132102500Y-109093023D01*
X132164855Y-109124546D01*
X132181575Y-109143842D01*
X132311281Y-109329082D01*
X132311505Y-109329401D01*
X132478599Y-109496495D01*
X132575384Y-109564265D01*
X132672165Y-109632032D01*
X132672167Y-109632033D01*
X132672170Y-109632035D01*
X132886337Y-109731903D01*
X133114592Y-109793063D01*
X133291034Y-109808500D01*
X133349999Y-109813659D01*
X133350000Y-109813659D01*
X133350001Y-109813659D01*
X133408966Y-109808500D01*
X133585408Y-109793063D01*
X133813663Y-109731903D01*
X134027830Y-109632035D01*
X134221401Y-109496495D01*
X134388495Y-109329401D01*
X134518424Y-109143842D01*
X134573002Y-109100217D01*
X134642500Y-109093023D01*
X134704855Y-109124546D01*
X134721575Y-109143842D01*
X134851281Y-109329082D01*
X134851505Y-109329401D01*
X135018599Y-109496495D01*
X135115384Y-109564265D01*
X135212165Y-109632032D01*
X135212167Y-109632033D01*
X135212170Y-109632035D01*
X135426337Y-109731903D01*
X135654592Y-109793063D01*
X135831034Y-109808500D01*
X135889999Y-109813659D01*
X135890000Y-109813659D01*
X135890001Y-109813659D01*
X135948966Y-109808500D01*
X136125408Y-109793063D01*
X136353663Y-109731903D01*
X136567830Y-109632035D01*
X136761401Y-109496495D01*
X136928495Y-109329401D01*
X137058424Y-109143842D01*
X137113002Y-109100217D01*
X137182500Y-109093023D01*
X137244855Y-109124546D01*
X137261575Y-109143842D01*
X137391281Y-109329082D01*
X137391505Y-109329401D01*
X137558599Y-109496495D01*
X137655384Y-109564265D01*
X137752165Y-109632032D01*
X137752167Y-109632033D01*
X137752170Y-109632035D01*
X137966337Y-109731903D01*
X138194592Y-109793063D01*
X138371034Y-109808500D01*
X138429999Y-109813659D01*
X138430000Y-109813659D01*
X138430001Y-109813659D01*
X138488966Y-109808500D01*
X138665408Y-109793063D01*
X138893663Y-109731903D01*
X139107830Y-109632035D01*
X139301401Y-109496495D01*
X139468495Y-109329401D01*
X139598424Y-109143842D01*
X139653002Y-109100217D01*
X139722500Y-109093023D01*
X139784855Y-109124546D01*
X139801575Y-109143842D01*
X139931281Y-109329082D01*
X139931505Y-109329401D01*
X140098599Y-109496495D01*
X140195384Y-109564265D01*
X140292165Y-109632032D01*
X140292167Y-109632033D01*
X140292170Y-109632035D01*
X140506337Y-109731903D01*
X140734592Y-109793063D01*
X140911034Y-109808500D01*
X140969999Y-109813659D01*
X140970000Y-109813659D01*
X140970001Y-109813659D01*
X141028966Y-109808500D01*
X141205408Y-109793063D01*
X141433663Y-109731903D01*
X141647830Y-109632035D01*
X141841401Y-109496495D01*
X142008495Y-109329401D01*
X142138730Y-109143405D01*
X142193307Y-109099781D01*
X142262805Y-109092587D01*
X142325160Y-109124110D01*
X142341879Y-109143405D01*
X142471890Y-109329078D01*
X142638917Y-109496105D01*
X142832421Y-109631600D01*
X143046507Y-109731429D01*
X143046516Y-109731433D01*
X143260000Y-109788634D01*
X143260000Y-109070301D01*
X143279685Y-109003262D01*
X143332489Y-108957507D01*
X143401647Y-108947563D01*
X143474237Y-108958000D01*
X143474238Y-108958000D01*
X143545762Y-108958000D01*
X143545763Y-108958000D01*
X143618353Y-108947563D01*
X143687512Y-108957507D01*
X143740315Y-109003262D01*
X143760000Y-109070301D01*
X143760000Y-109788633D01*
X143973483Y-109731433D01*
X143973492Y-109731429D01*
X144187578Y-109631600D01*
X144381082Y-109496105D01*
X144548105Y-109329082D01*
X144678119Y-109143405D01*
X144732696Y-109099781D01*
X144802195Y-109092588D01*
X144864549Y-109124110D01*
X144881269Y-109143405D01*
X145011505Y-109329401D01*
X145178599Y-109496495D01*
X145275384Y-109564264D01*
X145372165Y-109632032D01*
X145372167Y-109632033D01*
X145372170Y-109632035D01*
X145586337Y-109731903D01*
X145814592Y-109793063D01*
X145991034Y-109808500D01*
X146049999Y-109813659D01*
X146050000Y-109813659D01*
X146050001Y-109813659D01*
X146108966Y-109808500D01*
X146285408Y-109793063D01*
X146513663Y-109731903D01*
X146727830Y-109632035D01*
X146921401Y-109496495D01*
X147088495Y-109329401D01*
X147218424Y-109143842D01*
X147273002Y-109100217D01*
X147342500Y-109093023D01*
X147404855Y-109124546D01*
X147421575Y-109143842D01*
X147551281Y-109329082D01*
X147551505Y-109329401D01*
X147718599Y-109496495D01*
X147815384Y-109564264D01*
X147912165Y-109632032D01*
X147912167Y-109632033D01*
X147912170Y-109632035D01*
X148126337Y-109731903D01*
X148354592Y-109793063D01*
X148531034Y-109808500D01*
X148589999Y-109813659D01*
X148590000Y-109813659D01*
X148590001Y-109813659D01*
X148648966Y-109808500D01*
X148825408Y-109793063D01*
X149053663Y-109731903D01*
X149267830Y-109632035D01*
X149461401Y-109496495D01*
X149628495Y-109329401D01*
X149758730Y-109143405D01*
X149813307Y-109099781D01*
X149882805Y-109092587D01*
X149945160Y-109124110D01*
X149961879Y-109143405D01*
X150091890Y-109329078D01*
X150258917Y-109496105D01*
X150452421Y-109631600D01*
X150666507Y-109731429D01*
X150666516Y-109731433D01*
X150880000Y-109788634D01*
X150880000Y-109070301D01*
X150899685Y-109003262D01*
X150952489Y-108957507D01*
X151021647Y-108947563D01*
X151094237Y-108958000D01*
X151094238Y-108958000D01*
X151165762Y-108958000D01*
X151165763Y-108958000D01*
X151238353Y-108947563D01*
X151307512Y-108957507D01*
X151360315Y-109003262D01*
X151380000Y-109070301D01*
X151380000Y-109788633D01*
X151593483Y-109731433D01*
X151593492Y-109731429D01*
X151807578Y-109631600D01*
X152001082Y-109496105D01*
X152168105Y-109329082D01*
X152303600Y-109135578D01*
X152403429Y-108921492D01*
X152403432Y-108921486D01*
X152460636Y-108708000D01*
X151743347Y-108708000D01*
X151676308Y-108688315D01*
X151630553Y-108635511D01*
X151620609Y-108566353D01*
X151624369Y-108549067D01*
X151630000Y-108529888D01*
X151630000Y-108386111D01*
X151624369Y-108366933D01*
X151624370Y-108297064D01*
X151662145Y-108238286D01*
X151725701Y-108209262D01*
X151743347Y-108208000D01*
X152460636Y-108208000D01*
X152460635Y-108207999D01*
X152403432Y-107994513D01*
X152403429Y-107994507D01*
X152303600Y-107780422D01*
X152303599Y-107780420D01*
X152168113Y-107586926D01*
X152168108Y-107586920D01*
X152001082Y-107419894D01*
X151807578Y-107284399D01*
X151593492Y-107184570D01*
X151593486Y-107184567D01*
X151380000Y-107127364D01*
X151380000Y-107845698D01*
X151360315Y-107912737D01*
X151307511Y-107958492D01*
X151238355Y-107968436D01*
X151165766Y-107958000D01*
X151165763Y-107958000D01*
X151094237Y-107958000D01*
X151094233Y-107958000D01*
X151021645Y-107968436D01*
X150952487Y-107958492D01*
X150899684Y-107912736D01*
X150880000Y-107845698D01*
X150880000Y-107127364D01*
X150879999Y-107127364D01*
X150666513Y-107184567D01*
X150666507Y-107184570D01*
X150452422Y-107284399D01*
X150452420Y-107284400D01*
X150258926Y-107419886D01*
X150258920Y-107419891D01*
X150091891Y-107586920D01*
X150091890Y-107586922D01*
X149961880Y-107772595D01*
X149907303Y-107816219D01*
X149837804Y-107823412D01*
X149775450Y-107791890D01*
X149758730Y-107772594D01*
X149628494Y-107586597D01*
X149461402Y-107419506D01*
X149461395Y-107419501D01*
X149267834Y-107283967D01*
X149267830Y-107283965D01*
X149267829Y-107283964D01*
X149053663Y-107184097D01*
X149053659Y-107184096D01*
X149053655Y-107184094D01*
X148825413Y-107122938D01*
X148825403Y-107122936D01*
X148590001Y-107102341D01*
X148589999Y-107102341D01*
X148354596Y-107122936D01*
X148354586Y-107122938D01*
X148126344Y-107184094D01*
X148126335Y-107184098D01*
X147912171Y-107283964D01*
X147912169Y-107283965D01*
X147718597Y-107419505D01*
X147551505Y-107586597D01*
X147421575Y-107772158D01*
X147366998Y-107815783D01*
X147297500Y-107822977D01*
X147235145Y-107791454D01*
X147218425Y-107772158D01*
X147088494Y-107586597D01*
X146921402Y-107419506D01*
X146921395Y-107419501D01*
X146727834Y-107283967D01*
X146727830Y-107283965D01*
X146727829Y-107283964D01*
X146513663Y-107184097D01*
X146513659Y-107184096D01*
X146513655Y-107184094D01*
X146285413Y-107122938D01*
X146285403Y-107122936D01*
X146050001Y-107102341D01*
X146049999Y-107102341D01*
X145814596Y-107122936D01*
X145814586Y-107122938D01*
X145586344Y-107184094D01*
X145586335Y-107184098D01*
X145372171Y-107283964D01*
X145372169Y-107283965D01*
X145178597Y-107419505D01*
X145011508Y-107586594D01*
X144881269Y-107772595D01*
X144826692Y-107816219D01*
X144757193Y-107823412D01*
X144694839Y-107791890D01*
X144678119Y-107772594D01*
X144548113Y-107586926D01*
X144548108Y-107586920D01*
X144381082Y-107419894D01*
X144187578Y-107284399D01*
X143973492Y-107184570D01*
X143973486Y-107184567D01*
X143760000Y-107127364D01*
X143760000Y-107845698D01*
X143740315Y-107912737D01*
X143687511Y-107958492D01*
X143618355Y-107968436D01*
X143545766Y-107958000D01*
X143545763Y-107958000D01*
X143474237Y-107958000D01*
X143474233Y-107958000D01*
X143401645Y-107968436D01*
X143332487Y-107958492D01*
X143279684Y-107912736D01*
X143260000Y-107845698D01*
X143260000Y-107127364D01*
X143259999Y-107127364D01*
X143046513Y-107184567D01*
X143046507Y-107184570D01*
X142832422Y-107284399D01*
X142832420Y-107284400D01*
X142638926Y-107419886D01*
X142638920Y-107419891D01*
X142471891Y-107586920D01*
X142471890Y-107586922D01*
X142341880Y-107772595D01*
X142287303Y-107816219D01*
X142217804Y-107823412D01*
X142155450Y-107791890D01*
X142138730Y-107772594D01*
X142008494Y-107586597D01*
X141841402Y-107419506D01*
X141841395Y-107419501D01*
X141647834Y-107283967D01*
X141647830Y-107283965D01*
X141647829Y-107283964D01*
X141433663Y-107184097D01*
X141433659Y-107184096D01*
X141433655Y-107184094D01*
X141205413Y-107122938D01*
X141205403Y-107122936D01*
X140970001Y-107102341D01*
X140969999Y-107102341D01*
X140734596Y-107122936D01*
X140734586Y-107122938D01*
X140506344Y-107184094D01*
X140506335Y-107184098D01*
X140292171Y-107283964D01*
X140292169Y-107283965D01*
X140098597Y-107419505D01*
X139931505Y-107586597D01*
X139801575Y-107772158D01*
X139746998Y-107815783D01*
X139677500Y-107822977D01*
X139615145Y-107791454D01*
X139598425Y-107772158D01*
X139468494Y-107586597D01*
X139301402Y-107419506D01*
X139301395Y-107419501D01*
X139107834Y-107283967D01*
X139107830Y-107283965D01*
X139107829Y-107283964D01*
X138893663Y-107184097D01*
X138893659Y-107184096D01*
X138893655Y-107184094D01*
X138665413Y-107122938D01*
X138665403Y-107122936D01*
X138430001Y-107102341D01*
X138429999Y-107102341D01*
X138194596Y-107122936D01*
X138194586Y-107122938D01*
X137966344Y-107184094D01*
X137966335Y-107184098D01*
X137752171Y-107283964D01*
X137752169Y-107283965D01*
X137558597Y-107419505D01*
X137391505Y-107586597D01*
X137261575Y-107772158D01*
X137206998Y-107815783D01*
X137137500Y-107822977D01*
X137075145Y-107791454D01*
X137058425Y-107772158D01*
X136928494Y-107586597D01*
X136761402Y-107419506D01*
X136761395Y-107419501D01*
X136567834Y-107283967D01*
X136567830Y-107283965D01*
X136567829Y-107283964D01*
X136353663Y-107184097D01*
X136353659Y-107184096D01*
X136353655Y-107184094D01*
X136125413Y-107122938D01*
X136125403Y-107122936D01*
X135890001Y-107102341D01*
X135889999Y-107102341D01*
X135654596Y-107122936D01*
X135654586Y-107122938D01*
X135426344Y-107184094D01*
X135426335Y-107184098D01*
X135212171Y-107283964D01*
X135212169Y-107283965D01*
X135018597Y-107419505D01*
X134851505Y-107586597D01*
X134721575Y-107772158D01*
X134666998Y-107815783D01*
X134597500Y-107822977D01*
X134535145Y-107791454D01*
X134518425Y-107772158D01*
X134388494Y-107586597D01*
X134221402Y-107419506D01*
X134221395Y-107419501D01*
X134027834Y-107283967D01*
X134027830Y-107283965D01*
X134027830Y-107283964D01*
X133813663Y-107184097D01*
X133813659Y-107184096D01*
X133813655Y-107184094D01*
X133585413Y-107122938D01*
X133585403Y-107122936D01*
X133350001Y-107102341D01*
X133349999Y-107102341D01*
X133114596Y-107122936D01*
X133114586Y-107122938D01*
X132886344Y-107184094D01*
X132886335Y-107184098D01*
X132672171Y-107283964D01*
X132672169Y-107283965D01*
X132478597Y-107419505D01*
X132311505Y-107586597D01*
X132181575Y-107772158D01*
X132126998Y-107815783D01*
X132057500Y-107822977D01*
X131995145Y-107791454D01*
X131978425Y-107772158D01*
X131848494Y-107586597D01*
X131681402Y-107419506D01*
X131681395Y-107419501D01*
X131487834Y-107283967D01*
X131487830Y-107283965D01*
X131487829Y-107283964D01*
X131273663Y-107184097D01*
X131273659Y-107184096D01*
X131273655Y-107184094D01*
X131045413Y-107122938D01*
X131045403Y-107122936D01*
X130810001Y-107102341D01*
X130809999Y-107102341D01*
X130574596Y-107122936D01*
X130574586Y-107122938D01*
X130346344Y-107184094D01*
X130346335Y-107184098D01*
X130132171Y-107283964D01*
X130132169Y-107283965D01*
X129938600Y-107419503D01*
X129816673Y-107541430D01*
X129755350Y-107574914D01*
X129685658Y-107569930D01*
X129629725Y-107528058D01*
X129612810Y-107497081D01*
X129563797Y-107365671D01*
X129563793Y-107365664D01*
X129477547Y-107250455D01*
X129477544Y-107250452D01*
X129362335Y-107164206D01*
X129362328Y-107164202D01*
X129227482Y-107113908D01*
X129227483Y-107113908D01*
X129167883Y-107107501D01*
X129167881Y-107107500D01*
X129167873Y-107107500D01*
X129167864Y-107107500D01*
X127372129Y-107107500D01*
X127372123Y-107107501D01*
X127312516Y-107113908D01*
X127177671Y-107164202D01*
X127177664Y-107164206D01*
X127062455Y-107250452D01*
X127062452Y-107250455D01*
X126976206Y-107365664D01*
X126976202Y-107365671D01*
X126925908Y-107500517D01*
X126919501Y-107560116D01*
X126919500Y-107560135D01*
X126919500Y-109355870D01*
X122885999Y-109355870D01*
X122729593Y-109235856D01*
X122727265Y-109233979D01*
X122572220Y-109102664D01*
X122559243Y-109091673D01*
X122535919Y-109070301D01*
X122404675Y-108950037D01*
X122247962Y-108793324D01*
X122169777Y-108708000D01*
X122106319Y-108638748D01*
X122103577Y-108635511D01*
X122014120Y-108529888D01*
X121964019Y-108470733D01*
X121962142Y-108468405D01*
X121835456Y-108303304D01*
X121707586Y-108124212D01*
X121705771Y-108121522D01*
X121594013Y-107946098D01*
X121534188Y-107845698D01*
X121481437Y-107757169D01*
X121479704Y-107754061D01*
X121383748Y-107569733D01*
X121379056Y-107560135D01*
X121287196Y-107372234D01*
X121285632Y-107368763D01*
X121206163Y-107176908D01*
X121188398Y-107131381D01*
X121126277Y-106972180D01*
X121124939Y-106968378D01*
X121062533Y-106770449D01*
X121035222Y-106678715D01*
X120999869Y-106559969D01*
X120998766Y-106555712D01*
X120953913Y-106353399D01*
X120908837Y-106138420D01*
X120908058Y-106133849D01*
X120881047Y-105928681D01*
X120853870Y-105710654D01*
X120853456Y-105705732D01*
X120844487Y-105500298D01*
X120835500Y-105283000D01*
X120835500Y-105282500D01*
X120835500Y-95539870D01*
X124225500Y-95539870D01*
X124225501Y-95539876D01*
X124231908Y-95599483D01*
X124282202Y-95734328D01*
X124282206Y-95734335D01*
X124368452Y-95849544D01*
X124368455Y-95849547D01*
X124483664Y-95935793D01*
X124483671Y-95935797D01*
X124618517Y-95986091D01*
X124618516Y-95986091D01*
X124625444Y-95986835D01*
X124678127Y-95992500D01*
X126273872Y-95992499D01*
X126333483Y-95986091D01*
X126468331Y-95935796D01*
X126583546Y-95849546D01*
X126669796Y-95734331D01*
X126720091Y-95599483D01*
X126726500Y-95539873D01*
X126726500Y-95466499D01*
X126746185Y-95399461D01*
X126798989Y-95353706D01*
X126850500Y-95342500D01*
X128477903Y-95342500D01*
X128544942Y-95362185D01*
X128565583Y-95378818D01*
X129846681Y-96659917D01*
X129852026Y-96666013D01*
X129873717Y-96694281D01*
X129903909Y-96717448D01*
X129903927Y-96717463D01*
X129999157Y-96790535D01*
X129999158Y-96790535D01*
X129999159Y-96790536D01*
X130145238Y-96851044D01*
X130223619Y-96861363D01*
X130301999Y-96871682D01*
X130302000Y-96871682D01*
X130337329Y-96867030D01*
X130345428Y-96866500D01*
X142783742Y-96866500D01*
X142850781Y-96886185D01*
X142875891Y-96907527D01*
X142904128Y-96938887D01*
X142904135Y-96938893D01*
X143057265Y-97050148D01*
X143057270Y-97050151D01*
X143230192Y-97127142D01*
X143230197Y-97127144D01*
X143415354Y-97166500D01*
X143415355Y-97166500D01*
X143604644Y-97166500D01*
X143604646Y-97166500D01*
X143789803Y-97127144D01*
X143962730Y-97050151D01*
X144115871Y-96938888D01*
X144242533Y-96798216D01*
X144337179Y-96634284D01*
X144395674Y-96454256D01*
X144415460Y-96266000D01*
X144395674Y-96077744D01*
X144337179Y-95897716D01*
X144242533Y-95733784D01*
X144224693Y-95713971D01*
X144194464Y-95650981D01*
X144203089Y-95581646D01*
X144224694Y-95548028D01*
X144242533Y-95528216D01*
X144337179Y-95364284D01*
X144395674Y-95184256D01*
X144415460Y-94996000D01*
X144395674Y-94807744D01*
X144337179Y-94627716D01*
X144242533Y-94463784D01*
X144115871Y-94323112D01*
X144115863Y-94323106D01*
X143962734Y-94211851D01*
X143962729Y-94211848D01*
X143789807Y-94134857D01*
X143789802Y-94134855D01*
X143644000Y-94103865D01*
X143604646Y-94095500D01*
X143415354Y-94095500D01*
X143382897Y-94102398D01*
X143230197Y-94134855D01*
X143230192Y-94134857D01*
X143057270Y-94211848D01*
X143057265Y-94211851D01*
X142904135Y-94323106D01*
X142904128Y-94323112D01*
X142875891Y-94354473D01*
X142816405Y-94391121D01*
X142783742Y-94395500D01*
X131110097Y-94395500D01*
X131043058Y-94375815D01*
X131022416Y-94359181D01*
X130154735Y-93491500D01*
X127709320Y-91046085D01*
X127703980Y-91039995D01*
X127682282Y-91011718D01*
X127556841Y-90915464D01*
X127410762Y-90854956D01*
X127410760Y-90854955D01*
X127293361Y-90839500D01*
X127254000Y-90834318D01*
X127218670Y-90838969D01*
X127210572Y-90839500D01*
X126850499Y-90839500D01*
X126783460Y-90819815D01*
X126737705Y-90767011D01*
X126726499Y-90715500D01*
X126726499Y-90642129D01*
X126726498Y-90642123D01*
X126726497Y-90642116D01*
X126720091Y-90582517D01*
X126669796Y-90447669D01*
X126669795Y-90447668D01*
X126669793Y-90447664D01*
X126583547Y-90332455D01*
X126583544Y-90332452D01*
X126468335Y-90246206D01*
X126468328Y-90246202D01*
X126333482Y-90195908D01*
X126333483Y-90195908D01*
X126273883Y-90189501D01*
X126273881Y-90189500D01*
X126273873Y-90189500D01*
X126273864Y-90189500D01*
X124678129Y-90189500D01*
X124678123Y-90189501D01*
X124618516Y-90195908D01*
X124483671Y-90246202D01*
X124483664Y-90246206D01*
X124368455Y-90332452D01*
X124368452Y-90332455D01*
X124282206Y-90447664D01*
X124282202Y-90447671D01*
X124231908Y-90582517D01*
X124225501Y-90642116D01*
X124225501Y-90642123D01*
X124225500Y-90642135D01*
X124225500Y-92237870D01*
X124225501Y-92237876D01*
X124231908Y-92297483D01*
X124282202Y-92432328D01*
X124282206Y-92432335D01*
X124368452Y-92547544D01*
X124368455Y-92547547D01*
X124483664Y-92633793D01*
X124483671Y-92633797D01*
X124618517Y-92684091D01*
X124618516Y-92684091D01*
X124625444Y-92684835D01*
X124678127Y-92690500D01*
X126273872Y-92690499D01*
X126333483Y-92684091D01*
X126468331Y-92633796D01*
X126583546Y-92547546D01*
X126669796Y-92432331D01*
X126720091Y-92297483D01*
X126726500Y-92237873D01*
X126726500Y-92164500D01*
X126746185Y-92097461D01*
X126798989Y-92051706D01*
X126850500Y-92040500D01*
X126953903Y-92040500D01*
X127020942Y-92060185D01*
X127041584Y-92076819D01*
X128891766Y-93927001D01*
X128925251Y-93988324D01*
X128920267Y-94058016D01*
X128878395Y-94113949D01*
X128812931Y-94138366D01*
X128787901Y-94137621D01*
X128778003Y-94136318D01*
X128778000Y-94136318D01*
X128742670Y-94140969D01*
X128734572Y-94141500D01*
X126850499Y-94141500D01*
X126783460Y-94121815D01*
X126737705Y-94069011D01*
X126726499Y-94017500D01*
X126726499Y-93944129D01*
X126726498Y-93944123D01*
X126726497Y-93944116D01*
X126720091Y-93884517D01*
X126669796Y-93749669D01*
X126669795Y-93749668D01*
X126669793Y-93749664D01*
X126583547Y-93634455D01*
X126583544Y-93634452D01*
X126468335Y-93548206D01*
X126468328Y-93548202D01*
X126333482Y-93497908D01*
X126333483Y-93497908D01*
X126273883Y-93491501D01*
X126273881Y-93491500D01*
X126273873Y-93491500D01*
X126273864Y-93491500D01*
X124678129Y-93491500D01*
X124678123Y-93491501D01*
X124618516Y-93497908D01*
X124483671Y-93548202D01*
X124483664Y-93548206D01*
X124368455Y-93634452D01*
X124368452Y-93634455D01*
X124282206Y-93749664D01*
X124282202Y-93749671D01*
X124231908Y-93884517D01*
X124227341Y-93927001D01*
X124225501Y-93944123D01*
X124225500Y-93944135D01*
X124225500Y-95539870D01*
X120835500Y-95539870D01*
X120835500Y-87502999D01*
X120844489Y-87285657D01*
X120853457Y-87080263D01*
X120853869Y-87075349D01*
X120881056Y-86857247D01*
X120908059Y-86652141D01*
X120908835Y-86647588D01*
X120953904Y-86432646D01*
X120998768Y-86230278D01*
X120999865Y-86226044D01*
X121062533Y-86015549D01*
X121067784Y-85998892D01*
X121124945Y-85817602D01*
X121126270Y-85813838D01*
X121206169Y-85609075D01*
X121285640Y-85417216D01*
X121287185Y-85413789D01*
X121383759Y-85216243D01*
X121479712Y-85031921D01*
X121481428Y-85028842D01*
X121594020Y-84839889D01*
X121705794Y-84664441D01*
X121707555Y-84661831D01*
X121835462Y-84482686D01*
X121962169Y-84317559D01*
X121963999Y-84315289D01*
X122106331Y-84147237D01*
X122247951Y-83992686D01*
X122404686Y-83835951D01*
X122559247Y-83694323D01*
X122727289Y-83551999D01*
X122729559Y-83550169D01*
X122894670Y-83423473D01*
X123073831Y-83295555D01*
X123076441Y-83293794D01*
X123251889Y-83182020D01*
X123440842Y-83069428D01*
X123443921Y-83067712D01*
X123628243Y-82971759D01*
X123825789Y-82875185D01*
X123829216Y-82873640D01*
X124021059Y-82794175D01*
X124225838Y-82714270D01*
X124229602Y-82712945D01*
X124410892Y-82655784D01*
X124427550Y-82650533D01*
X124453593Y-82642779D01*
X124638044Y-82587865D01*
X124642278Y-82586768D01*
X124844646Y-82541904D01*
X125059588Y-82496835D01*
X125064141Y-82496059D01*
X125269278Y-82469052D01*
X125487349Y-82441869D01*
X125492263Y-82441457D01*
X125697364Y-82432501D01*
X125915000Y-82423500D01*
X125915500Y-82423500D01*
X153854500Y-82423500D01*
X153855000Y-82423500D01*
X154072525Y-82432496D01*
G37*
%TD.AperFunction*%
%TD*%
M02*
