%TF.GenerationSoftware,KiCad,Pcbnew,7.0.7*%
%TF.CreationDate,2025-01-01T22:23:07+10:30*%
%TF.ProjectId,V9360_Breakout,56393336-305f-4427-9265-616b6f75742e,rev?*%
%TF.SameCoordinates,Original*%
%TF.FileFunction,Soldermask,Top*%
%TF.FilePolarity,Negative*%
%FSLAX46Y46*%
G04 Gerber Fmt 4.6, Leading zero omitted, Abs format (unit mm)*
G04 Created by KiCad (PCBNEW 7.0.7) date 2025-01-01 22:23:07*
%MOMM*%
%LPD*%
G01*
G04 APERTURE LIST*
G04 Aperture macros list*
%AMRoundRect*
0 Rectangle with rounded corners*
0 $1 Rounding radius*
0 $2 $3 $4 $5 $6 $7 $8 $9 X,Y pos of 4 corners*
0 Add a 4 corners polygon primitive as box body*
4,1,4,$2,$3,$4,$5,$6,$7,$8,$9,$2,$3,0*
0 Add four circle primitives for the rounded corners*
1,1,$1+$1,$2,$3*
1,1,$1+$1,$4,$5*
1,1,$1+$1,$6,$7*
1,1,$1+$1,$8,$9*
0 Add four rect primitives between the rounded corners*
20,1,$1+$1,$2,$3,$4,$5,0*
20,1,$1+$1,$4,$5,$6,$7,0*
20,1,$1+$1,$6,$7,$8,$9,0*
20,1,$1+$1,$8,$9,$2,$3,0*%
G04 Aperture macros list end*
%ADD10RoundRect,0.225000X0.225000X0.250000X-0.225000X0.250000X-0.225000X-0.250000X0.225000X-0.250000X0*%
%ADD11RoundRect,0.250000X0.250000X0.475000X-0.250000X0.475000X-0.250000X-0.475000X0.250000X-0.475000X0*%
%ADD12RoundRect,0.250000X0.475000X-0.250000X0.475000X0.250000X-0.475000X0.250000X-0.475000X-0.250000X0*%
%ADD13RoundRect,0.200000X0.200000X0.275000X-0.200000X0.275000X-0.200000X-0.275000X0.200000X-0.275000X0*%
%ADD14RoundRect,0.200000X-0.200000X-0.275000X0.200000X-0.275000X0.200000X0.275000X-0.200000X0.275000X0*%
%ADD15RoundRect,0.173250X0.683750X0.213750X-0.683750X0.213750X-0.683750X-0.213750X0.683750X-0.213750X0*%
%ADD16RoundRect,0.200000X-0.275000X0.200000X-0.275000X-0.200000X0.275000X-0.200000X0.275000X0.200000X0*%
%ADD17R,1.700000X1.700000*%
%ADD18O,1.700000X1.700000*%
%ADD19RoundRect,0.200000X0.275000X-0.200000X0.275000X0.200000X-0.275000X0.200000X-0.275000X-0.200000X0*%
%ADD20RoundRect,0.225000X-0.250000X0.225000X-0.250000X-0.225000X0.250000X-0.225000X0.250000X0.225000X0*%
%ADD21RoundRect,0.225000X0.250000X-0.225000X0.250000X0.225000X-0.250000X0.225000X-0.250000X-0.225000X0*%
%ADD22RoundRect,0.225000X-0.225000X-0.250000X0.225000X-0.250000X0.225000X0.250000X-0.225000X0.250000X0*%
G04 APERTURE END LIST*
D10*
%TO.C,C7*%
X149111000Y-92456000D03*
X147561000Y-92456000D03*
%TD*%
D11*
%TO.C,C4*%
X143444000Y-86106000D03*
X141544000Y-86106000D03*
%TD*%
D12*
%TO.C,C2*%
X131064000Y-91120000D03*
X131064000Y-89220000D03*
%TD*%
D13*
%TO.C,R5*%
X149161000Y-97028000D03*
X147511000Y-97028000D03*
%TD*%
D10*
%TO.C,C5*%
X143015000Y-87884000D03*
X141465000Y-87884000D03*
%TD*%
D14*
%TO.C,R1*%
X147511000Y-95504000D03*
X149161000Y-95504000D03*
%TD*%
D15*
%TO.C,U1*%
X141340000Y-98806000D03*
X141340000Y-97536000D03*
X141340000Y-96266000D03*
X141340000Y-94996000D03*
X141340000Y-93726000D03*
X141340000Y-92456000D03*
X141340000Y-91186000D03*
X141340000Y-89916000D03*
X135890000Y-89916000D03*
X135890000Y-91186000D03*
X135890000Y-92456000D03*
X135890000Y-93726000D03*
X135890000Y-94996000D03*
X135890000Y-96266000D03*
X135890000Y-97536000D03*
X135890000Y-98806000D03*
%TD*%
D16*
%TO.C,R4*%
X144272000Y-98680000D03*
X144272000Y-100330000D03*
%TD*%
D17*
%TO.C,J1*%
X128270000Y-108458000D03*
D18*
X130810000Y-108458000D03*
X133350000Y-108458000D03*
X135890000Y-108458000D03*
X138430000Y-108458000D03*
X140970000Y-108458000D03*
X143510000Y-108458000D03*
X146050000Y-108458000D03*
X148590000Y-108458000D03*
X151130000Y-108458000D03*
%TD*%
D19*
%TO.C,R3*%
X144272000Y-103378000D03*
X144272000Y-101728000D03*
%TD*%
D20*
%TO.C,C9*%
X145796000Y-98743000D03*
X145796000Y-100293000D03*
%TD*%
D13*
%TO.C,R2*%
X149161000Y-90932000D03*
X147511000Y-90932000D03*
%TD*%
D21*
%TO.C,C10*%
X144780000Y-93993000D03*
X144780000Y-92443000D03*
%TD*%
D10*
%TO.C,C3*%
X136157000Y-87884000D03*
X134607000Y-87884000D03*
%TD*%
D21*
%TO.C,C1*%
X132842000Y-91199000D03*
X132842000Y-89649000D03*
%TD*%
D13*
%TO.C,R6*%
X149161000Y-89408000D03*
X147511000Y-89408000D03*
%TD*%
D22*
%TO.C,C6*%
X147561000Y-93980000D03*
X149111000Y-93980000D03*
%TD*%
D20*
%TO.C,C8*%
X145796000Y-101791000D03*
X145796000Y-103341000D03*
%TD*%
M02*
