%TF.GenerationSoftware,KiCad,Pcbnew,7.0.7*%
%TF.CreationDate,2025-01-01T22:23:07+10:30*%
%TF.ProjectId,V9360_Breakout,56393336-305f-4427-9265-616b6f75742e,rev?*%
%TF.SameCoordinates,Original*%
%TF.FileFunction,Legend,Bot*%
%TF.FilePolarity,Positive*%
%FSLAX46Y46*%
G04 Gerber Fmt 4.6, Leading zero omitted, Abs format (unit mm)*
G04 Created by KiCad (PCBNEW 7.0.7) date 2025-01-01 22:23:07*
%MOMM*%
%LPD*%
G01*
G04 APERTURE LIST*
%ADD10C,0.200000*%
%ADD11C,0.120000*%
%ADD12C,0.010000*%
G04 APERTURE END LIST*
D10*
X143910304Y-106611945D02*
X143262685Y-106611945D01*
X143262685Y-106611945D02*
X143186495Y-106573850D01*
X143186495Y-106573850D02*
X143148400Y-106535755D01*
X143148400Y-106535755D02*
X143110304Y-106459564D01*
X143110304Y-106459564D02*
X143110304Y-106307183D01*
X143110304Y-106307183D02*
X143148400Y-106230993D01*
X143148400Y-106230993D02*
X143186495Y-106192898D01*
X143186495Y-106192898D02*
X143262685Y-106154802D01*
X143262685Y-106154802D02*
X143910304Y-106154802D01*
X143110304Y-105773850D02*
X143910304Y-105773850D01*
X143910304Y-105773850D02*
X143110304Y-105316707D01*
X143110304Y-105316707D02*
X143910304Y-105316707D01*
X130410304Y-106611945D02*
X131210304Y-106611945D01*
X131210304Y-106611945D02*
X131210304Y-106307183D01*
X131210304Y-106307183D02*
X131172209Y-106230993D01*
X131172209Y-106230993D02*
X131134114Y-106192898D01*
X131134114Y-106192898D02*
X131057923Y-106154802D01*
X131057923Y-106154802D02*
X130943638Y-106154802D01*
X130943638Y-106154802D02*
X130867447Y-106192898D01*
X130867447Y-106192898D02*
X130829352Y-106230993D01*
X130829352Y-106230993D02*
X130791257Y-106307183D01*
X130791257Y-106307183D02*
X130791257Y-106611945D01*
X131210304Y-105888136D02*
X131210304Y-105392898D01*
X131210304Y-105392898D02*
X130905542Y-105659564D01*
X130905542Y-105659564D02*
X130905542Y-105545279D01*
X130905542Y-105545279D02*
X130867447Y-105469088D01*
X130867447Y-105469088D02*
X130829352Y-105430993D01*
X130829352Y-105430993D02*
X130753161Y-105392898D01*
X130753161Y-105392898D02*
X130562685Y-105392898D01*
X130562685Y-105392898D02*
X130486495Y-105430993D01*
X130486495Y-105430993D02*
X130448400Y-105469088D01*
X130448400Y-105469088D02*
X130410304Y-105545279D01*
X130410304Y-105545279D02*
X130410304Y-105773850D01*
X130410304Y-105773850D02*
X130448400Y-105850041D01*
X130448400Y-105850041D02*
X130486495Y-105888136D01*
X147505945Y-85453695D02*
X147505945Y-84653695D01*
X147505945Y-84958457D02*
X147429755Y-84920361D01*
X147429755Y-84920361D02*
X147277374Y-84920361D01*
X147277374Y-84920361D02*
X147201183Y-84958457D01*
X147201183Y-84958457D02*
X147163088Y-84996552D01*
X147163088Y-84996552D02*
X147124993Y-85072742D01*
X147124993Y-85072742D02*
X147124993Y-85301314D01*
X147124993Y-85301314D02*
X147163088Y-85377504D01*
X147163088Y-85377504D02*
X147201183Y-85415600D01*
X147201183Y-85415600D02*
X147277374Y-85453695D01*
X147277374Y-85453695D02*
X147429755Y-85453695D01*
X147429755Y-85453695D02*
X147505945Y-85415600D01*
X146858326Y-84920361D02*
X146667850Y-85453695D01*
X146477373Y-84920361D02*
X146667850Y-85453695D01*
X146667850Y-85453695D02*
X146744040Y-85644171D01*
X146744040Y-85644171D02*
X146782135Y-85682266D01*
X146782135Y-85682266D02*
X146858326Y-85720361D01*
X145677373Y-84653695D02*
X145220230Y-84653695D01*
X145448802Y-85453695D02*
X145448802Y-84653695D01*
X144953563Y-85453695D02*
X144953563Y-84920361D01*
X144953563Y-84653695D02*
X144991659Y-84691790D01*
X144991659Y-84691790D02*
X144953563Y-84729885D01*
X144953563Y-84729885D02*
X144915468Y-84691790D01*
X144915468Y-84691790D02*
X144953563Y-84653695D01*
X144953563Y-84653695D02*
X144953563Y-84729885D01*
X144610707Y-85415600D02*
X144534516Y-85453695D01*
X144534516Y-85453695D02*
X144382135Y-85453695D01*
X144382135Y-85453695D02*
X144305945Y-85415600D01*
X144305945Y-85415600D02*
X144267849Y-85339409D01*
X144267849Y-85339409D02*
X144267849Y-85301314D01*
X144267849Y-85301314D02*
X144305945Y-85225123D01*
X144305945Y-85225123D02*
X144382135Y-85187028D01*
X144382135Y-85187028D02*
X144496421Y-85187028D01*
X144496421Y-85187028D02*
X144572611Y-85148933D01*
X144572611Y-85148933D02*
X144610707Y-85072742D01*
X144610707Y-85072742D02*
X144610707Y-85034647D01*
X144610707Y-85034647D02*
X144572611Y-84958457D01*
X144572611Y-84958457D02*
X144496421Y-84920361D01*
X144496421Y-84920361D02*
X144382135Y-84920361D01*
X144382135Y-84920361D02*
X144305945Y-84958457D01*
X143924992Y-85453695D02*
X143924992Y-84653695D01*
X143582135Y-85453695D02*
X143582135Y-85034647D01*
X143582135Y-85034647D02*
X143620230Y-84958457D01*
X143620230Y-84958457D02*
X143696421Y-84920361D01*
X143696421Y-84920361D02*
X143810707Y-84920361D01*
X143810707Y-84920361D02*
X143886897Y-84958457D01*
X143886897Y-84958457D02*
X143924992Y-84996552D01*
X142858325Y-85453695D02*
X142858325Y-85034647D01*
X142858325Y-85034647D02*
X142896420Y-84958457D01*
X142896420Y-84958457D02*
X142972611Y-84920361D01*
X142972611Y-84920361D02*
X143124992Y-84920361D01*
X143124992Y-84920361D02*
X143201182Y-84958457D01*
X142858325Y-85415600D02*
X142934516Y-85453695D01*
X142934516Y-85453695D02*
X143124992Y-85453695D01*
X143124992Y-85453695D02*
X143201182Y-85415600D01*
X143201182Y-85415600D02*
X143239278Y-85339409D01*
X143239278Y-85339409D02*
X143239278Y-85263219D01*
X143239278Y-85263219D02*
X143201182Y-85187028D01*
X143201182Y-85187028D02*
X143124992Y-85148933D01*
X143124992Y-85148933D02*
X142934516Y-85148933D01*
X142934516Y-85148933D02*
X142858325Y-85110838D01*
X142477372Y-85453695D02*
X142477372Y-84920361D01*
X142477372Y-84996552D02*
X142439277Y-84958457D01*
X142439277Y-84958457D02*
X142363087Y-84920361D01*
X142363087Y-84920361D02*
X142248801Y-84920361D01*
X142248801Y-84920361D02*
X142172610Y-84958457D01*
X142172610Y-84958457D02*
X142134515Y-85034647D01*
X142134515Y-85034647D02*
X142134515Y-85453695D01*
X142134515Y-85034647D02*
X142096420Y-84958457D01*
X142096420Y-84958457D02*
X142020229Y-84920361D01*
X142020229Y-84920361D02*
X141905944Y-84920361D01*
X141905944Y-84920361D02*
X141829753Y-84958457D01*
X141829753Y-84958457D02*
X141791658Y-85034647D01*
X141791658Y-85034647D02*
X141791658Y-85453695D01*
X140801181Y-85453695D02*
X140801181Y-84653695D01*
X140801181Y-84653695D02*
X140610705Y-84653695D01*
X140610705Y-84653695D02*
X140496419Y-84691790D01*
X140496419Y-84691790D02*
X140420229Y-84767980D01*
X140420229Y-84767980D02*
X140382134Y-84844171D01*
X140382134Y-84844171D02*
X140344038Y-84996552D01*
X140344038Y-84996552D02*
X140344038Y-85110838D01*
X140344038Y-85110838D02*
X140382134Y-85263219D01*
X140382134Y-85263219D02*
X140420229Y-85339409D01*
X140420229Y-85339409D02*
X140496419Y-85415600D01*
X140496419Y-85415600D02*
X140610705Y-85453695D01*
X140610705Y-85453695D02*
X140801181Y-85453695D01*
X140001181Y-85453695D02*
X140001181Y-84653695D01*
X139658324Y-85453695D02*
X139658324Y-85034647D01*
X139658324Y-85034647D02*
X139696419Y-84958457D01*
X139696419Y-84958457D02*
X139772610Y-84920361D01*
X139772610Y-84920361D02*
X139886896Y-84920361D01*
X139886896Y-84920361D02*
X139963086Y-84958457D01*
X139963086Y-84958457D02*
X140001181Y-84996552D01*
X138934514Y-85453695D02*
X138934514Y-85034647D01*
X138934514Y-85034647D02*
X138972609Y-84958457D01*
X138972609Y-84958457D02*
X139048800Y-84920361D01*
X139048800Y-84920361D02*
X139201181Y-84920361D01*
X139201181Y-84920361D02*
X139277371Y-84958457D01*
X138934514Y-85415600D02*
X139010705Y-85453695D01*
X139010705Y-85453695D02*
X139201181Y-85453695D01*
X139201181Y-85453695D02*
X139277371Y-85415600D01*
X139277371Y-85415600D02*
X139315467Y-85339409D01*
X139315467Y-85339409D02*
X139315467Y-85263219D01*
X139315467Y-85263219D02*
X139277371Y-85187028D01*
X139277371Y-85187028D02*
X139201181Y-85148933D01*
X139201181Y-85148933D02*
X139010705Y-85148933D01*
X139010705Y-85148933D02*
X138934514Y-85110838D01*
X138553561Y-85453695D02*
X138553561Y-84920361D01*
X138553561Y-85072742D02*
X138515466Y-84996552D01*
X138515466Y-84996552D02*
X138477371Y-84958457D01*
X138477371Y-84958457D02*
X138401180Y-84920361D01*
X138401180Y-84920361D02*
X138324990Y-84920361D01*
X147505945Y-86741695D02*
X147505945Y-85941695D01*
X147163088Y-86741695D02*
X147163088Y-86322647D01*
X147163088Y-86322647D02*
X147201183Y-86246457D01*
X147201183Y-86246457D02*
X147277374Y-86208361D01*
X147277374Y-86208361D02*
X147391660Y-86208361D01*
X147391660Y-86208361D02*
X147467850Y-86246457D01*
X147467850Y-86246457D02*
X147505945Y-86284552D01*
X146896421Y-86208361D02*
X146591659Y-86208361D01*
X146782135Y-85941695D02*
X146782135Y-86627409D01*
X146782135Y-86627409D02*
X146744040Y-86703600D01*
X146744040Y-86703600D02*
X146667850Y-86741695D01*
X146667850Y-86741695D02*
X146591659Y-86741695D01*
X146439278Y-86208361D02*
X146134516Y-86208361D01*
X146324992Y-85941695D02*
X146324992Y-86627409D01*
X146324992Y-86627409D02*
X146286897Y-86703600D01*
X146286897Y-86703600D02*
X146210707Y-86741695D01*
X146210707Y-86741695D02*
X146134516Y-86741695D01*
X145867849Y-86208361D02*
X145867849Y-87008361D01*
X145867849Y-86246457D02*
X145791659Y-86208361D01*
X145791659Y-86208361D02*
X145639278Y-86208361D01*
X145639278Y-86208361D02*
X145563087Y-86246457D01*
X145563087Y-86246457D02*
X145524992Y-86284552D01*
X145524992Y-86284552D02*
X145486897Y-86360742D01*
X145486897Y-86360742D02*
X145486897Y-86589314D01*
X145486897Y-86589314D02*
X145524992Y-86665504D01*
X145524992Y-86665504D02*
X145563087Y-86703600D01*
X145563087Y-86703600D02*
X145639278Y-86741695D01*
X145639278Y-86741695D02*
X145791659Y-86741695D01*
X145791659Y-86741695D02*
X145867849Y-86703600D01*
X145182135Y-86703600D02*
X145105944Y-86741695D01*
X145105944Y-86741695D02*
X144953563Y-86741695D01*
X144953563Y-86741695D02*
X144877373Y-86703600D01*
X144877373Y-86703600D02*
X144839277Y-86627409D01*
X144839277Y-86627409D02*
X144839277Y-86589314D01*
X144839277Y-86589314D02*
X144877373Y-86513123D01*
X144877373Y-86513123D02*
X144953563Y-86475028D01*
X144953563Y-86475028D02*
X145067849Y-86475028D01*
X145067849Y-86475028D02*
X145144039Y-86436933D01*
X145144039Y-86436933D02*
X145182135Y-86360742D01*
X145182135Y-86360742D02*
X145182135Y-86322647D01*
X145182135Y-86322647D02*
X145144039Y-86246457D01*
X145144039Y-86246457D02*
X145067849Y-86208361D01*
X145067849Y-86208361D02*
X144953563Y-86208361D01*
X144953563Y-86208361D02*
X144877373Y-86246457D01*
X144496420Y-86665504D02*
X144458325Y-86703600D01*
X144458325Y-86703600D02*
X144496420Y-86741695D01*
X144496420Y-86741695D02*
X144534516Y-86703600D01*
X144534516Y-86703600D02*
X144496420Y-86665504D01*
X144496420Y-86665504D02*
X144496420Y-86741695D01*
X144496420Y-86246457D02*
X144458325Y-86284552D01*
X144458325Y-86284552D02*
X144496420Y-86322647D01*
X144496420Y-86322647D02*
X144534516Y-86284552D01*
X144534516Y-86284552D02*
X144496420Y-86246457D01*
X144496420Y-86246457D02*
X144496420Y-86322647D01*
X143544040Y-85903600D02*
X144229754Y-86932171D01*
X142705945Y-85903600D02*
X143391659Y-86932171D01*
X142515469Y-86208361D02*
X142363088Y-86741695D01*
X142363088Y-86741695D02*
X142210707Y-86360742D01*
X142210707Y-86360742D02*
X142058326Y-86741695D01*
X142058326Y-86741695D02*
X141905945Y-86208361D01*
X141601183Y-86741695D02*
X141601183Y-85941695D01*
X141258326Y-86741695D02*
X141258326Y-86322647D01*
X141258326Y-86322647D02*
X141296421Y-86246457D01*
X141296421Y-86246457D02*
X141372612Y-86208361D01*
X141372612Y-86208361D02*
X141486898Y-86208361D01*
X141486898Y-86208361D02*
X141563088Y-86246457D01*
X141563088Y-86246457D02*
X141601183Y-86284552D01*
X140534516Y-86741695D02*
X140534516Y-86322647D01*
X140534516Y-86322647D02*
X140572611Y-86246457D01*
X140572611Y-86246457D02*
X140648802Y-86208361D01*
X140648802Y-86208361D02*
X140801183Y-86208361D01*
X140801183Y-86208361D02*
X140877373Y-86246457D01*
X140534516Y-86703600D02*
X140610707Y-86741695D01*
X140610707Y-86741695D02*
X140801183Y-86741695D01*
X140801183Y-86741695D02*
X140877373Y-86703600D01*
X140877373Y-86703600D02*
X140915469Y-86627409D01*
X140915469Y-86627409D02*
X140915469Y-86551219D01*
X140915469Y-86551219D02*
X140877373Y-86475028D01*
X140877373Y-86475028D02*
X140801183Y-86436933D01*
X140801183Y-86436933D02*
X140610707Y-86436933D01*
X140610707Y-86436933D02*
X140534516Y-86398838D01*
X140267849Y-86208361D02*
X139963087Y-86208361D01*
X140153563Y-85941695D02*
X140153563Y-86627409D01*
X140153563Y-86627409D02*
X140115468Y-86703600D01*
X140115468Y-86703600D02*
X140039278Y-86741695D01*
X140039278Y-86741695D02*
X139963087Y-86741695D01*
X139696420Y-86208361D02*
X139696420Y-86741695D01*
X139696420Y-86284552D02*
X139658325Y-86246457D01*
X139658325Y-86246457D02*
X139582135Y-86208361D01*
X139582135Y-86208361D02*
X139467849Y-86208361D01*
X139467849Y-86208361D02*
X139391658Y-86246457D01*
X139391658Y-86246457D02*
X139353563Y-86322647D01*
X139353563Y-86322647D02*
X139353563Y-86741695D01*
X138972610Y-86741695D02*
X138972610Y-86208361D01*
X138972610Y-85941695D02*
X139010706Y-85979790D01*
X139010706Y-85979790D02*
X138972610Y-86017885D01*
X138972610Y-86017885D02*
X138934515Y-85979790D01*
X138934515Y-85979790D02*
X138972610Y-85941695D01*
X138972610Y-85941695D02*
X138972610Y-86017885D01*
X138248801Y-86703600D02*
X138324992Y-86741695D01*
X138324992Y-86741695D02*
X138477373Y-86741695D01*
X138477373Y-86741695D02*
X138553563Y-86703600D01*
X138553563Y-86703600D02*
X138591658Y-86665504D01*
X138591658Y-86665504D02*
X138629754Y-86589314D01*
X138629754Y-86589314D02*
X138629754Y-86360742D01*
X138629754Y-86360742D02*
X138591658Y-86284552D01*
X138591658Y-86284552D02*
X138553563Y-86246457D01*
X138553563Y-86246457D02*
X138477373Y-86208361D01*
X138477373Y-86208361D02*
X138324992Y-86208361D01*
X138324992Y-86208361D02*
X138248801Y-86246457D01*
X137905944Y-86741695D02*
X137905944Y-85941695D01*
X137829754Y-86436933D02*
X137601182Y-86741695D01*
X137601182Y-86208361D02*
X137905944Y-86513123D01*
X137258325Y-86665504D02*
X137220230Y-86703600D01*
X137220230Y-86703600D02*
X137258325Y-86741695D01*
X137258325Y-86741695D02*
X137296421Y-86703600D01*
X137296421Y-86703600D02*
X137258325Y-86665504D01*
X137258325Y-86665504D02*
X137258325Y-86741695D01*
X136534516Y-86703600D02*
X136610707Y-86741695D01*
X136610707Y-86741695D02*
X136763088Y-86741695D01*
X136763088Y-86741695D02*
X136839278Y-86703600D01*
X136839278Y-86703600D02*
X136877373Y-86665504D01*
X136877373Y-86665504D02*
X136915469Y-86589314D01*
X136915469Y-86589314D02*
X136915469Y-86360742D01*
X136915469Y-86360742D02*
X136877373Y-86284552D01*
X136877373Y-86284552D02*
X136839278Y-86246457D01*
X136839278Y-86246457D02*
X136763088Y-86208361D01*
X136763088Y-86208361D02*
X136610707Y-86208361D01*
X136610707Y-86208361D02*
X136534516Y-86246457D01*
X136077374Y-86741695D02*
X136153564Y-86703600D01*
X136153564Y-86703600D02*
X136191659Y-86665504D01*
X136191659Y-86665504D02*
X136229755Y-86589314D01*
X136229755Y-86589314D02*
X136229755Y-86360742D01*
X136229755Y-86360742D02*
X136191659Y-86284552D01*
X136191659Y-86284552D02*
X136153564Y-86246457D01*
X136153564Y-86246457D02*
X136077374Y-86208361D01*
X136077374Y-86208361D02*
X135963088Y-86208361D01*
X135963088Y-86208361D02*
X135886897Y-86246457D01*
X135886897Y-86246457D02*
X135848802Y-86284552D01*
X135848802Y-86284552D02*
X135810707Y-86360742D01*
X135810707Y-86360742D02*
X135810707Y-86589314D01*
X135810707Y-86589314D02*
X135848802Y-86665504D01*
X135848802Y-86665504D02*
X135886897Y-86703600D01*
X135886897Y-86703600D02*
X135963088Y-86741695D01*
X135963088Y-86741695D02*
X136077374Y-86741695D01*
X135467849Y-86741695D02*
X135467849Y-86208361D01*
X135467849Y-86284552D02*
X135429754Y-86246457D01*
X135429754Y-86246457D02*
X135353564Y-86208361D01*
X135353564Y-86208361D02*
X135239278Y-86208361D01*
X135239278Y-86208361D02*
X135163087Y-86246457D01*
X135163087Y-86246457D02*
X135124992Y-86322647D01*
X135124992Y-86322647D02*
X135124992Y-86741695D01*
X135124992Y-86322647D02*
X135086897Y-86246457D01*
X135086897Y-86246457D02*
X135010706Y-86208361D01*
X135010706Y-86208361D02*
X134896421Y-86208361D01*
X134896421Y-86208361D02*
X134820230Y-86246457D01*
X134820230Y-86246457D02*
X134782135Y-86322647D01*
X134782135Y-86322647D02*
X134782135Y-86741695D01*
X147582136Y-87496361D02*
X147391660Y-88029695D01*
X147391660Y-88029695D02*
X147201183Y-87496361D01*
X146744040Y-87229695D02*
X146667850Y-87229695D01*
X146667850Y-87229695D02*
X146591659Y-87267790D01*
X146591659Y-87267790D02*
X146553564Y-87305885D01*
X146553564Y-87305885D02*
X146515469Y-87382076D01*
X146515469Y-87382076D02*
X146477374Y-87534457D01*
X146477374Y-87534457D02*
X146477374Y-87724933D01*
X146477374Y-87724933D02*
X146515469Y-87877314D01*
X146515469Y-87877314D02*
X146553564Y-87953504D01*
X146553564Y-87953504D02*
X146591659Y-87991600D01*
X146591659Y-87991600D02*
X146667850Y-88029695D01*
X146667850Y-88029695D02*
X146744040Y-88029695D01*
X146744040Y-88029695D02*
X146820231Y-87991600D01*
X146820231Y-87991600D02*
X146858326Y-87953504D01*
X146858326Y-87953504D02*
X146896421Y-87877314D01*
X146896421Y-87877314D02*
X146934517Y-87724933D01*
X146934517Y-87724933D02*
X146934517Y-87534457D01*
X146934517Y-87534457D02*
X146896421Y-87382076D01*
X146896421Y-87382076D02*
X146858326Y-87305885D01*
X146858326Y-87305885D02*
X146820231Y-87267790D01*
X146820231Y-87267790D02*
X146744040Y-87229695D01*
X146134516Y-87953504D02*
X146096421Y-87991600D01*
X146096421Y-87991600D02*
X146134516Y-88029695D01*
X146134516Y-88029695D02*
X146172612Y-87991600D01*
X146172612Y-87991600D02*
X146134516Y-87953504D01*
X146134516Y-87953504D02*
X146134516Y-88029695D01*
X145334517Y-88029695D02*
X145791660Y-88029695D01*
X145563088Y-88029695D02*
X145563088Y-87229695D01*
X145563088Y-87229695D02*
X145639279Y-87343980D01*
X145639279Y-87343980D02*
X145715469Y-87420171D01*
X145715469Y-87420171D02*
X145791660Y-87458266D01*
X144420231Y-87305885D02*
X144382135Y-87267790D01*
X144382135Y-87267790D02*
X144305945Y-87229695D01*
X144305945Y-87229695D02*
X144115469Y-87229695D01*
X144115469Y-87229695D02*
X144039278Y-87267790D01*
X144039278Y-87267790D02*
X144001183Y-87305885D01*
X144001183Y-87305885D02*
X143963088Y-87382076D01*
X143963088Y-87382076D02*
X143963088Y-87458266D01*
X143963088Y-87458266D02*
X144001183Y-87572552D01*
X144001183Y-87572552D02*
X144458326Y-88029695D01*
X144458326Y-88029695D02*
X143963088Y-88029695D01*
X143696421Y-87229695D02*
X143163087Y-87229695D01*
X143163087Y-87229695D02*
X143505945Y-88029695D01*
X142286897Y-87191600D02*
X142972611Y-88220171D01*
X141601183Y-88029695D02*
X142058326Y-88029695D01*
X141829754Y-88029695D02*
X141829754Y-87229695D01*
X141829754Y-87229695D02*
X141905945Y-87343980D01*
X141905945Y-87343980D02*
X141982135Y-87420171D01*
X141982135Y-87420171D02*
X142058326Y-87458266D01*
X141296421Y-87305885D02*
X141258325Y-87267790D01*
X141258325Y-87267790D02*
X141182135Y-87229695D01*
X141182135Y-87229695D02*
X140991659Y-87229695D01*
X140991659Y-87229695D02*
X140915468Y-87267790D01*
X140915468Y-87267790D02*
X140877373Y-87305885D01*
X140877373Y-87305885D02*
X140839278Y-87382076D01*
X140839278Y-87382076D02*
X140839278Y-87458266D01*
X140839278Y-87458266D02*
X140877373Y-87572552D01*
X140877373Y-87572552D02*
X141334516Y-88029695D01*
X141334516Y-88029695D02*
X140839278Y-88029695D01*
X139924992Y-87191600D02*
X140610706Y-88220171D01*
X139696421Y-87305885D02*
X139658325Y-87267790D01*
X139658325Y-87267790D02*
X139582135Y-87229695D01*
X139582135Y-87229695D02*
X139391659Y-87229695D01*
X139391659Y-87229695D02*
X139315468Y-87267790D01*
X139315468Y-87267790D02*
X139277373Y-87305885D01*
X139277373Y-87305885D02*
X139239278Y-87382076D01*
X139239278Y-87382076D02*
X139239278Y-87458266D01*
X139239278Y-87458266D02*
X139277373Y-87572552D01*
X139277373Y-87572552D02*
X139734516Y-88029695D01*
X139734516Y-88029695D02*
X139239278Y-88029695D01*
X138744039Y-87229695D02*
X138667849Y-87229695D01*
X138667849Y-87229695D02*
X138591658Y-87267790D01*
X138591658Y-87267790D02*
X138553563Y-87305885D01*
X138553563Y-87305885D02*
X138515468Y-87382076D01*
X138515468Y-87382076D02*
X138477373Y-87534457D01*
X138477373Y-87534457D02*
X138477373Y-87724933D01*
X138477373Y-87724933D02*
X138515468Y-87877314D01*
X138515468Y-87877314D02*
X138553563Y-87953504D01*
X138553563Y-87953504D02*
X138591658Y-87991600D01*
X138591658Y-87991600D02*
X138667849Y-88029695D01*
X138667849Y-88029695D02*
X138744039Y-88029695D01*
X138744039Y-88029695D02*
X138820230Y-87991600D01*
X138820230Y-87991600D02*
X138858325Y-87953504D01*
X138858325Y-87953504D02*
X138896420Y-87877314D01*
X138896420Y-87877314D02*
X138934516Y-87724933D01*
X138934516Y-87724933D02*
X138934516Y-87534457D01*
X138934516Y-87534457D02*
X138896420Y-87382076D01*
X138896420Y-87382076D02*
X138858325Y-87305885D01*
X138858325Y-87305885D02*
X138820230Y-87267790D01*
X138820230Y-87267790D02*
X138744039Y-87229695D01*
X138172611Y-87305885D02*
X138134515Y-87267790D01*
X138134515Y-87267790D02*
X138058325Y-87229695D01*
X138058325Y-87229695D02*
X137867849Y-87229695D01*
X137867849Y-87229695D02*
X137791658Y-87267790D01*
X137791658Y-87267790D02*
X137753563Y-87305885D01*
X137753563Y-87305885D02*
X137715468Y-87382076D01*
X137715468Y-87382076D02*
X137715468Y-87458266D01*
X137715468Y-87458266D02*
X137753563Y-87572552D01*
X137753563Y-87572552D02*
X138210706Y-88029695D01*
X138210706Y-88029695D02*
X137715468Y-88029695D01*
X137029753Y-87496361D02*
X137029753Y-88029695D01*
X137220229Y-87191600D02*
X137410706Y-87763028D01*
X137410706Y-87763028D02*
X136915467Y-87763028D01*
X151492209Y-106192898D02*
X151530304Y-106269088D01*
X151530304Y-106269088D02*
X151530304Y-106383374D01*
X151530304Y-106383374D02*
X151492209Y-106497660D01*
X151492209Y-106497660D02*
X151416019Y-106573850D01*
X151416019Y-106573850D02*
X151339828Y-106611945D01*
X151339828Y-106611945D02*
X151187447Y-106650041D01*
X151187447Y-106650041D02*
X151073161Y-106650041D01*
X151073161Y-106650041D02*
X150920780Y-106611945D01*
X150920780Y-106611945D02*
X150844590Y-106573850D01*
X150844590Y-106573850D02*
X150768400Y-106497660D01*
X150768400Y-106497660D02*
X150730304Y-106383374D01*
X150730304Y-106383374D02*
X150730304Y-106307183D01*
X150730304Y-106307183D02*
X150768400Y-106192898D01*
X150768400Y-106192898D02*
X150806495Y-106154802D01*
X150806495Y-106154802D02*
X151073161Y-106154802D01*
X151073161Y-106154802D02*
X151073161Y-106307183D01*
X150730304Y-105811945D02*
X151530304Y-105811945D01*
X151530304Y-105811945D02*
X150730304Y-105354802D01*
X150730304Y-105354802D02*
X151530304Y-105354802D01*
X150730304Y-104973850D02*
X151530304Y-104973850D01*
X151530304Y-104973850D02*
X151530304Y-104783374D01*
X151530304Y-104783374D02*
X151492209Y-104669088D01*
X151492209Y-104669088D02*
X151416019Y-104592898D01*
X151416019Y-104592898D02*
X151339828Y-104554803D01*
X151339828Y-104554803D02*
X151187447Y-104516707D01*
X151187447Y-104516707D02*
X151073161Y-104516707D01*
X151073161Y-104516707D02*
X150920780Y-104554803D01*
X150920780Y-104554803D02*
X150844590Y-104592898D01*
X150844590Y-104592898D02*
X150768400Y-104669088D01*
X150768400Y-104669088D02*
X150730304Y-104783374D01*
X150730304Y-104783374D02*
X150730304Y-104973850D01*
X141624304Y-106611945D02*
X140976685Y-106611945D01*
X140976685Y-106611945D02*
X140900495Y-106573850D01*
X140900495Y-106573850D02*
X140862400Y-106535755D01*
X140862400Y-106535755D02*
X140824304Y-106459564D01*
X140824304Y-106459564D02*
X140824304Y-106307183D01*
X140824304Y-106307183D02*
X140862400Y-106230993D01*
X140862400Y-106230993D02*
X140900495Y-106192898D01*
X140900495Y-106192898D02*
X140976685Y-106154802D01*
X140976685Y-106154802D02*
X141624304Y-106154802D01*
X140824304Y-105773850D02*
X141624304Y-105773850D01*
X141624304Y-105773850D02*
X141624304Y-105469088D01*
X141624304Y-105469088D02*
X141586209Y-105392898D01*
X141586209Y-105392898D02*
X141548114Y-105354803D01*
X141548114Y-105354803D02*
X141471923Y-105316707D01*
X141471923Y-105316707D02*
X141357638Y-105316707D01*
X141357638Y-105316707D02*
X141281447Y-105354803D01*
X141281447Y-105354803D02*
X141243352Y-105392898D01*
X141243352Y-105392898D02*
X141205257Y-105469088D01*
X141205257Y-105469088D02*
X141205257Y-105773850D01*
X145650304Y-106611945D02*
X146450304Y-106611945D01*
X145878876Y-106269089D02*
X145878876Y-105888136D01*
X145650304Y-106345279D02*
X146450304Y-106078612D01*
X146450304Y-106078612D02*
X145650304Y-105811946D01*
X145650304Y-105545279D02*
X146450304Y-105545279D01*
X146450304Y-105545279D02*
X145650304Y-105088136D01*
X145650304Y-105088136D02*
X146450304Y-105088136D01*
X128670304Y-106726231D02*
X127870304Y-106459564D01*
X127870304Y-106459564D02*
X128670304Y-106192898D01*
X127870304Y-105926231D02*
X128670304Y-105926231D01*
X127870304Y-105545279D02*
X128670304Y-105545279D01*
X128670304Y-105545279D02*
X127870304Y-105088136D01*
X127870304Y-105088136D02*
X128670304Y-105088136D01*
X135490304Y-106154802D02*
X135871257Y-106421469D01*
X135490304Y-106611945D02*
X136290304Y-106611945D01*
X136290304Y-106611945D02*
X136290304Y-106307183D01*
X136290304Y-106307183D02*
X136252209Y-106230993D01*
X136252209Y-106230993D02*
X136214114Y-106192898D01*
X136214114Y-106192898D02*
X136137923Y-106154802D01*
X136137923Y-106154802D02*
X136023638Y-106154802D01*
X136023638Y-106154802D02*
X135947447Y-106192898D01*
X135947447Y-106192898D02*
X135909352Y-106230993D01*
X135909352Y-106230993D02*
X135871257Y-106307183D01*
X135871257Y-106307183D02*
X135871257Y-106611945D01*
X136290304Y-105888136D02*
X135490304Y-105354802D01*
X136290304Y-105354802D02*
X135490304Y-105888136D01*
X139084304Y-106726231D02*
X139084304Y-106269088D01*
X138284304Y-106497660D02*
X139084304Y-106497660D01*
X139084304Y-106078612D02*
X138284304Y-105545278D01*
X139084304Y-105545278D02*
X138284304Y-106078612D01*
X132950304Y-106611945D02*
X133750304Y-106611945D01*
X133750304Y-106611945D02*
X133750304Y-106307183D01*
X133750304Y-106307183D02*
X133712209Y-106230993D01*
X133712209Y-106230993D02*
X133674114Y-106192898D01*
X133674114Y-106192898D02*
X133597923Y-106154802D01*
X133597923Y-106154802D02*
X133483638Y-106154802D01*
X133483638Y-106154802D02*
X133407447Y-106192898D01*
X133407447Y-106192898D02*
X133369352Y-106230993D01*
X133369352Y-106230993D02*
X133331257Y-106307183D01*
X133331257Y-106307183D02*
X133331257Y-106611945D01*
X133674114Y-105850041D02*
X133712209Y-105811945D01*
X133712209Y-105811945D02*
X133750304Y-105735755D01*
X133750304Y-105735755D02*
X133750304Y-105545279D01*
X133750304Y-105545279D02*
X133712209Y-105469088D01*
X133712209Y-105469088D02*
X133674114Y-105430993D01*
X133674114Y-105430993D02*
X133597923Y-105392898D01*
X133597923Y-105392898D02*
X133521733Y-105392898D01*
X133521733Y-105392898D02*
X133407447Y-105430993D01*
X133407447Y-105430993D02*
X132950304Y-105888136D01*
X132950304Y-105888136D02*
X132950304Y-105392898D01*
X148190304Y-106611945D02*
X148990304Y-106611945D01*
X148418876Y-106269089D02*
X148418876Y-105888136D01*
X148190304Y-106345279D02*
X148990304Y-106078612D01*
X148990304Y-106078612D02*
X148190304Y-105811946D01*
X148190304Y-105545279D02*
X148990304Y-105545279D01*
X148990304Y-105545279D02*
X148990304Y-105240517D01*
X148990304Y-105240517D02*
X148952209Y-105164327D01*
X148952209Y-105164327D02*
X148914114Y-105126232D01*
X148914114Y-105126232D02*
X148837923Y-105088136D01*
X148837923Y-105088136D02*
X148723638Y-105088136D01*
X148723638Y-105088136D02*
X148647447Y-105126232D01*
X148647447Y-105126232D02*
X148609352Y-105164327D01*
X148609352Y-105164327D02*
X148571257Y-105240517D01*
X148571257Y-105240517D02*
X148571257Y-105545279D01*
X123387695Y-93732476D02*
X123387695Y-94189619D01*
X124187695Y-93961047D02*
X123387695Y-93961047D01*
X124187695Y-94456286D02*
X123387695Y-94456286D01*
X123387695Y-94456286D02*
X123387695Y-94761048D01*
X123387695Y-94761048D02*
X123425790Y-94837238D01*
X123425790Y-94837238D02*
X123463885Y-94875333D01*
X123463885Y-94875333D02*
X123540076Y-94913429D01*
X123540076Y-94913429D02*
X123654361Y-94913429D01*
X123654361Y-94913429D02*
X123730552Y-94875333D01*
X123730552Y-94875333D02*
X123768647Y-94837238D01*
X123768647Y-94837238D02*
X123806742Y-94761048D01*
X123806742Y-94761048D02*
X123806742Y-94456286D01*
X123463885Y-95218190D02*
X123425790Y-95256286D01*
X123425790Y-95256286D02*
X123387695Y-95332476D01*
X123387695Y-95332476D02*
X123387695Y-95522952D01*
X123387695Y-95522952D02*
X123425790Y-95599143D01*
X123425790Y-95599143D02*
X123463885Y-95637238D01*
X123463885Y-95637238D02*
X123540076Y-95675333D01*
X123540076Y-95675333D02*
X123616266Y-95675333D01*
X123616266Y-95675333D02*
X123730552Y-95637238D01*
X123730552Y-95637238D02*
X124187695Y-95180095D01*
X124187695Y-95180095D02*
X124187695Y-95675333D01*
X123387695Y-90430476D02*
X123387695Y-90887619D01*
X124187695Y-90659047D02*
X123387695Y-90659047D01*
X124187695Y-91154286D02*
X123387695Y-91154286D01*
X123387695Y-91154286D02*
X123387695Y-91459048D01*
X123387695Y-91459048D02*
X123425790Y-91535238D01*
X123425790Y-91535238D02*
X123463885Y-91573333D01*
X123463885Y-91573333D02*
X123540076Y-91611429D01*
X123540076Y-91611429D02*
X123654361Y-91611429D01*
X123654361Y-91611429D02*
X123730552Y-91573333D01*
X123730552Y-91573333D02*
X123768647Y-91535238D01*
X123768647Y-91535238D02*
X123806742Y-91459048D01*
X123806742Y-91459048D02*
X123806742Y-91154286D01*
X124187695Y-92373333D02*
X124187695Y-91916190D01*
X124187695Y-92144762D02*
X123387695Y-92144762D01*
X123387695Y-92144762D02*
X123501980Y-92068571D01*
X123501980Y-92068571D02*
X123578171Y-91992381D01*
X123578171Y-91992381D02*
X123616266Y-91916190D01*
D11*
%TO.C,TP2*%
X126426000Y-93792000D02*
X124526000Y-93792000D01*
X124526000Y-93792000D02*
X124526000Y-95692000D01*
X126426000Y-95692000D02*
X126426000Y-93792000D01*
X124526000Y-95692000D02*
X126426000Y-95692000D01*
%TO.C,TP1*%
X126426000Y-90490000D02*
X124526000Y-90490000D01*
X124526000Y-90490000D02*
X124526000Y-92390000D01*
X126426000Y-92390000D02*
X126426000Y-90490000D01*
X124526000Y-92390000D02*
X126426000Y-92390000D01*
%TO.C,SYM1*%
D12*
X136311501Y-98384476D02*
X136392167Y-98414440D01*
X136425714Y-98436954D01*
X136459687Y-98469212D01*
X136483919Y-98510246D01*
X136500001Y-98566108D01*
X136509521Y-98642851D01*
X136514068Y-98746525D01*
X136515231Y-98883184D01*
X136515003Y-98953805D01*
X136513860Y-99050308D01*
X136511919Y-99127323D01*
X136509365Y-99178319D01*
X136506381Y-99196769D01*
X136486962Y-99190667D01*
X136447766Y-99174095D01*
X136446589Y-99173558D01*
X136426235Y-99162903D01*
X136412546Y-99148282D01*
X136404199Y-99122673D01*
X136399874Y-99079054D01*
X136398248Y-99010403D01*
X136398000Y-98909698D01*
X136397500Y-98845813D01*
X136392164Y-98725751D01*
X136379945Y-98637809D01*
X136359552Y-98577375D01*
X136329695Y-98539836D01*
X136289082Y-98520581D01*
X136283448Y-98519239D01*
X136207378Y-98518191D01*
X136148052Y-98552271D01*
X136107077Y-98620598D01*
X136099770Y-98640351D01*
X136083114Y-98684066D01*
X136074679Y-98704155D01*
X136057356Y-98701387D01*
X136019525Y-98686365D01*
X135984240Y-98661556D01*
X135968154Y-98614670D01*
X135972952Y-98581087D01*
X136002431Y-98512967D01*
X136050098Y-98449134D01*
X136105839Y-98404988D01*
X136129193Y-98394782D01*
X136217619Y-98377718D01*
X136311501Y-98384476D01*
G36*
X136311501Y-98384476D02*
G01*
X136392167Y-98414440D01*
X136425714Y-98436954D01*
X136459687Y-98469212D01*
X136483919Y-98510246D01*
X136500001Y-98566108D01*
X136509521Y-98642851D01*
X136514068Y-98746525D01*
X136515231Y-98883184D01*
X136515003Y-98953805D01*
X136513860Y-99050308D01*
X136511919Y-99127323D01*
X136509365Y-99178319D01*
X136506381Y-99196769D01*
X136486962Y-99190667D01*
X136447766Y-99174095D01*
X136446589Y-99173558D01*
X136426235Y-99162903D01*
X136412546Y-99148282D01*
X136404199Y-99122673D01*
X136399874Y-99079054D01*
X136398248Y-99010403D01*
X136398000Y-98909698D01*
X136397500Y-98845813D01*
X136392164Y-98725751D01*
X136379945Y-98637809D01*
X136359552Y-98577375D01*
X136329695Y-98539836D01*
X136289082Y-98520581D01*
X136283448Y-98519239D01*
X136207378Y-98518191D01*
X136148052Y-98552271D01*
X136107077Y-98620598D01*
X136099770Y-98640351D01*
X136083114Y-98684066D01*
X136074679Y-98704155D01*
X136057356Y-98701387D01*
X136019525Y-98686365D01*
X135984240Y-98661556D01*
X135968154Y-98614670D01*
X135972952Y-98581087D01*
X136002431Y-98512967D01*
X136050098Y-98449134D01*
X136105839Y-98404988D01*
X136129193Y-98394782D01*
X136217619Y-98377718D01*
X136311501Y-98384476D01*
G37*
X141626372Y-98339684D02*
X141717629Y-98382569D01*
X141792416Y-98456729D01*
X141807917Y-98479944D01*
X141820774Y-98506256D01*
X141829893Y-98539420D01*
X141836102Y-98585881D01*
X141840233Y-98652082D01*
X141843116Y-98744468D01*
X141845579Y-98869485D01*
X141851697Y-99216278D01*
X141800303Y-99196738D01*
X141753246Y-99178787D01*
X141718015Y-99161511D01*
X141695017Y-99139242D01*
X141681655Y-99105165D01*
X141675328Y-99052463D01*
X141673437Y-98974323D01*
X141673385Y-98863928D01*
X141673117Y-98775935D01*
X141671521Y-98691502D01*
X141667712Y-98633834D01*
X141660820Y-98595988D01*
X141649975Y-98571024D01*
X141634308Y-98552000D01*
X141595792Y-98525153D01*
X141531091Y-98515034D01*
X141467081Y-98540606D01*
X141462856Y-98543880D01*
X141449689Y-98559007D01*
X141439975Y-98583268D01*
X141432903Y-98622650D01*
X141427656Y-98683141D01*
X141423421Y-98770729D01*
X141419385Y-98891402D01*
X141409615Y-99214515D01*
X141243539Y-99140065D01*
X141243539Y-98845062D01*
X141243883Y-98764919D01*
X141246847Y-98653431D01*
X141254351Y-98570421D01*
X141268190Y-98509199D01*
X141290155Y-98463075D01*
X141322039Y-98425358D01*
X141365633Y-98389358D01*
X141428336Y-98353089D01*
X141527117Y-98329412D01*
X141626372Y-98339684D01*
G36*
X141626372Y-98339684D02*
G01*
X141717629Y-98382569D01*
X141792416Y-98456729D01*
X141807917Y-98479944D01*
X141820774Y-98506256D01*
X141829893Y-98539420D01*
X141836102Y-98585881D01*
X141840233Y-98652082D01*
X141843116Y-98744468D01*
X141845579Y-98869485D01*
X141851697Y-99216278D01*
X141800303Y-99196738D01*
X141753246Y-99178787D01*
X141718015Y-99161511D01*
X141695017Y-99139242D01*
X141681655Y-99105165D01*
X141675328Y-99052463D01*
X141673437Y-98974323D01*
X141673385Y-98863928D01*
X141673117Y-98775935D01*
X141671521Y-98691502D01*
X141667712Y-98633834D01*
X141660820Y-98595988D01*
X141649975Y-98571024D01*
X141634308Y-98552000D01*
X141595792Y-98525153D01*
X141531091Y-98515034D01*
X141467081Y-98540606D01*
X141462856Y-98543880D01*
X141449689Y-98559007D01*
X141439975Y-98583268D01*
X141432903Y-98622650D01*
X141427656Y-98683141D01*
X141423421Y-98770729D01*
X141419385Y-98891402D01*
X141409615Y-99214515D01*
X141243539Y-99140065D01*
X141243539Y-98845062D01*
X141243883Y-98764919D01*
X141246847Y-98653431D01*
X141254351Y-98570421D01*
X141268190Y-98509199D01*
X141290155Y-98463075D01*
X141322039Y-98425358D01*
X141365633Y-98389358D01*
X141428336Y-98353089D01*
X141527117Y-98329412D01*
X141626372Y-98339684D01*
G37*
X139171892Y-98405167D02*
X139178060Y-98408581D01*
X139228447Y-98447692D01*
X139273498Y-98497975D01*
X139281355Y-98509339D01*
X139296376Y-98535860D01*
X139307107Y-98567336D01*
X139314486Y-98610591D01*
X139319452Y-98672449D01*
X139322942Y-98759733D01*
X139325893Y-98879269D01*
X139326311Y-98899478D01*
X139327654Y-99030499D01*
X139325761Y-99123296D01*
X139320605Y-99178507D01*
X139312158Y-99196769D01*
X139286594Y-99191301D01*
X139243166Y-99174733D01*
X139232940Y-99169888D01*
X139216967Y-99158920D01*
X139205954Y-99140890D01*
X139198750Y-99109396D01*
X139194208Y-99058036D01*
X139191180Y-98980410D01*
X139188516Y-98870115D01*
X139187785Y-98837875D01*
X139184965Y-98736050D01*
X139181304Y-98664788D01*
X139175694Y-98617332D01*
X139167029Y-98586925D01*
X139154202Y-98566810D01*
X139136105Y-98550229D01*
X139082525Y-98521161D01*
X139016612Y-98515564D01*
X138957635Y-98537807D01*
X138915203Y-98583859D01*
X138898923Y-98649692D01*
X138898470Y-98667587D01*
X138889578Y-98699982D01*
X138863325Y-98704925D01*
X138811919Y-98685633D01*
X138800013Y-98679446D01*
X138767835Y-98643058D01*
X138767198Y-98588954D01*
X138797856Y-98514128D01*
X138825978Y-98473350D01*
X138897883Y-98415421D01*
X138986638Y-98382670D01*
X139081542Y-98378212D01*
X139171892Y-98405167D01*
G36*
X139171892Y-98405167D02*
G01*
X139178060Y-98408581D01*
X139228447Y-98447692D01*
X139273498Y-98497975D01*
X139281355Y-98509339D01*
X139296376Y-98535860D01*
X139307107Y-98567336D01*
X139314486Y-98610591D01*
X139319452Y-98672449D01*
X139322942Y-98759733D01*
X139325893Y-98879269D01*
X139326311Y-98899478D01*
X139327654Y-99030499D01*
X139325761Y-99123296D01*
X139320605Y-99178507D01*
X139312158Y-99196769D01*
X139286594Y-99191301D01*
X139243166Y-99174733D01*
X139232940Y-99169888D01*
X139216967Y-99158920D01*
X139205954Y-99140890D01*
X139198750Y-99109396D01*
X139194208Y-99058036D01*
X139191180Y-98980410D01*
X139188516Y-98870115D01*
X139187785Y-98837875D01*
X139184965Y-98736050D01*
X139181304Y-98664788D01*
X139175694Y-98617332D01*
X139167029Y-98586925D01*
X139154202Y-98566810D01*
X139136105Y-98550229D01*
X139082525Y-98521161D01*
X139016612Y-98515564D01*
X138957635Y-98537807D01*
X138915203Y-98583859D01*
X138898923Y-98649692D01*
X138898470Y-98667587D01*
X138889578Y-98699982D01*
X138863325Y-98704925D01*
X138811919Y-98685633D01*
X138800013Y-98679446D01*
X138767835Y-98643058D01*
X138767198Y-98588954D01*
X138797856Y-98514128D01*
X138825978Y-98473350D01*
X138897883Y-98415421D01*
X138986638Y-98382670D01*
X139081542Y-98378212D01*
X139171892Y-98405167D01*
G37*
X140676923Y-98139806D02*
X140676923Y-98674455D01*
X140676660Y-98813094D01*
X140675958Y-98937805D01*
X140674883Y-99043557D01*
X140673500Y-99125322D01*
X140671874Y-99178069D01*
X140670070Y-99196769D01*
X140669364Y-99196706D01*
X140645387Y-99189912D01*
X140601685Y-99175320D01*
X140540154Y-99153870D01*
X140540154Y-98878617D01*
X140539763Y-98770466D01*
X140537946Y-98692026D01*
X140533767Y-98638647D01*
X140526286Y-98603256D01*
X140514567Y-98578779D01*
X140497671Y-98558144D01*
X140486152Y-98547170D01*
X140423864Y-98516775D01*
X140355211Y-98519466D01*
X140292298Y-98555406D01*
X140283139Y-98564325D01*
X140268471Y-98582844D01*
X140258433Y-98607326D01*
X140252151Y-98644393D01*
X140248748Y-98700667D01*
X140247349Y-98782771D01*
X140247077Y-98897329D01*
X140246947Y-98955430D01*
X140246099Y-99050993D01*
X140244594Y-99127526D01*
X140242585Y-99178345D01*
X140240223Y-99196769D01*
X140239518Y-99196706D01*
X140215541Y-99189912D01*
X140171839Y-99175320D01*
X140110308Y-99153870D01*
X140110338Y-98877358D01*
X140110384Y-98852742D01*
X140112970Y-98724419D01*
X140120913Y-98627384D01*
X140136155Y-98555057D01*
X140160636Y-98500855D01*
X140196298Y-98458198D01*
X140245082Y-98420505D01*
X140292661Y-98396910D01*
X140368732Y-98378672D01*
X140443556Y-98377636D01*
X140501077Y-98395378D01*
X140505402Y-98397829D01*
X140518738Y-98397566D01*
X140527851Y-98377039D01*
X140534428Y-98329980D01*
X140540154Y-98250120D01*
X140549923Y-98086236D01*
X140676923Y-98139806D01*
G36*
X140676923Y-98139806D02*
G01*
X140676923Y-98674455D01*
X140676660Y-98813094D01*
X140675958Y-98937805D01*
X140674883Y-99043557D01*
X140673500Y-99125322D01*
X140671874Y-99178069D01*
X140670070Y-99196769D01*
X140669364Y-99196706D01*
X140645387Y-99189912D01*
X140601685Y-99175320D01*
X140540154Y-99153870D01*
X140540154Y-98878617D01*
X140539763Y-98770466D01*
X140537946Y-98692026D01*
X140533767Y-98638647D01*
X140526286Y-98603256D01*
X140514567Y-98578779D01*
X140497671Y-98558144D01*
X140486152Y-98547170D01*
X140423864Y-98516775D01*
X140355211Y-98519466D01*
X140292298Y-98555406D01*
X140283139Y-98564325D01*
X140268471Y-98582844D01*
X140258433Y-98607326D01*
X140252151Y-98644393D01*
X140248748Y-98700667D01*
X140247349Y-98782771D01*
X140247077Y-98897329D01*
X140246947Y-98955430D01*
X140246099Y-99050993D01*
X140244594Y-99127526D01*
X140242585Y-99178345D01*
X140240223Y-99196769D01*
X140239518Y-99196706D01*
X140215541Y-99189912D01*
X140171839Y-99175320D01*
X140110308Y-99153870D01*
X140110338Y-98877358D01*
X140110384Y-98852742D01*
X140112970Y-98724419D01*
X140120913Y-98627384D01*
X140136155Y-98555057D01*
X140160636Y-98500855D01*
X140196298Y-98458198D01*
X140245082Y-98420505D01*
X140292661Y-98396910D01*
X140368732Y-98378672D01*
X140443556Y-98377636D01*
X140501077Y-98395378D01*
X140505402Y-98397829D01*
X140518738Y-98397566D01*
X140527851Y-98377039D01*
X140534428Y-98329980D01*
X140540154Y-98250120D01*
X140549923Y-98086236D01*
X140676923Y-98139806D01*
G37*
X137887998Y-98382034D02*
X137930850Y-98398829D01*
X137980615Y-98421503D01*
X137980615Y-99076533D01*
X137918785Y-99138363D01*
X137904662Y-99152228D01*
X137865536Y-99183046D01*
X137826078Y-99193028D01*
X137767362Y-99188433D01*
X137743456Y-99185462D01*
X137681801Y-99179176D01*
X137638692Y-99176672D01*
X137625905Y-99177055D01*
X137573446Y-99181200D01*
X137510022Y-99188433D01*
X137489730Y-99190918D01*
X137438610Y-99191895D01*
X137401207Y-99176462D01*
X137358599Y-99138363D01*
X137296769Y-99076533D01*
X137296769Y-98726343D01*
X137297251Y-98622857D01*
X137298753Y-98524192D01*
X137301089Y-98446068D01*
X137304071Y-98394662D01*
X137307509Y-98376154D01*
X137308230Y-98376204D01*
X137333203Y-98385413D01*
X137375399Y-98405707D01*
X137432549Y-98435261D01*
X137437928Y-98742746D01*
X137443308Y-99050231D01*
X137560539Y-99050231D01*
X137565885Y-98713192D01*
X137567579Y-98621574D01*
X137570005Y-98523649D01*
X137572634Y-98445906D01*
X137575246Y-98394642D01*
X137577623Y-98376154D01*
X137578306Y-98376219D01*
X137601996Y-98383020D01*
X137645546Y-98397604D01*
X137707077Y-98419054D01*
X137707376Y-98715104D01*
X137707676Y-98766532D01*
X137709754Y-98866466D01*
X137713470Y-98949925D01*
X137718430Y-99009377D01*
X137724240Y-99037287D01*
X137745024Y-99052214D01*
X137787440Y-99056825D01*
X137834077Y-99050231D01*
X137839423Y-98713192D01*
X137841336Y-98627546D01*
X137845303Y-98526172D01*
X137850491Y-98446655D01*
X137856499Y-98394736D01*
X137862927Y-98376154D01*
X137887998Y-98382034D01*
G36*
X137887998Y-98382034D02*
G01*
X137930850Y-98398829D01*
X137980615Y-98421503D01*
X137980615Y-99076533D01*
X137918785Y-99138363D01*
X137904662Y-99152228D01*
X137865536Y-99183046D01*
X137826078Y-99193028D01*
X137767362Y-99188433D01*
X137743456Y-99185462D01*
X137681801Y-99179176D01*
X137638692Y-99176672D01*
X137625905Y-99177055D01*
X137573446Y-99181200D01*
X137510022Y-99188433D01*
X137489730Y-99190918D01*
X137438610Y-99191895D01*
X137401207Y-99176462D01*
X137358599Y-99138363D01*
X137296769Y-99076533D01*
X137296769Y-98726343D01*
X137297251Y-98622857D01*
X137298753Y-98524192D01*
X137301089Y-98446068D01*
X137304071Y-98394662D01*
X137307509Y-98376154D01*
X137308230Y-98376204D01*
X137333203Y-98385413D01*
X137375399Y-98405707D01*
X137432549Y-98435261D01*
X137437928Y-98742746D01*
X137443308Y-99050231D01*
X137560539Y-99050231D01*
X137565885Y-98713192D01*
X137567579Y-98621574D01*
X137570005Y-98523649D01*
X137572634Y-98445906D01*
X137575246Y-98394642D01*
X137577623Y-98376154D01*
X137578306Y-98376219D01*
X137601996Y-98383020D01*
X137645546Y-98397604D01*
X137707077Y-98419054D01*
X137707376Y-98715104D01*
X137707676Y-98766532D01*
X137709754Y-98866466D01*
X137713470Y-98949925D01*
X137718430Y-99009377D01*
X137724240Y-99037287D01*
X137745024Y-99052214D01*
X137787440Y-99056825D01*
X137834077Y-99050231D01*
X137839423Y-98713192D01*
X137841336Y-98627546D01*
X137845303Y-98526172D01*
X137850491Y-98446655D01*
X137856499Y-98394736D01*
X137862927Y-98376154D01*
X137887998Y-98382034D01*
G37*
X144096154Y-98766923D02*
X144096135Y-98788105D01*
X144095076Y-98882584D01*
X144091436Y-98948414D01*
X144083892Y-98994394D01*
X144071122Y-99029321D01*
X144051803Y-99061995D01*
X144047050Y-99068775D01*
X143996759Y-99122231D01*
X143939457Y-99162547D01*
X143910032Y-99175629D01*
X143804299Y-99197450D01*
X143699734Y-99183336D01*
X143603368Y-99135105D01*
X143522235Y-99054579D01*
X143515385Y-99043791D01*
X143493097Y-98981153D01*
X143478079Y-98893935D01*
X143470792Y-98793210D01*
X143471611Y-98700037D01*
X143668796Y-98700037D01*
X143670349Y-98829114D01*
X143670974Y-98837420D01*
X143680077Y-98908643D01*
X143696288Y-98953809D01*
X143723660Y-98984752D01*
X143769553Y-99013737D01*
X143814942Y-99015261D01*
X143861692Y-98981846D01*
X143869824Y-98973053D01*
X143885754Y-98946741D01*
X143895159Y-98908520D01*
X143899632Y-98849349D01*
X143900769Y-98760182D01*
X143898822Y-98676664D01*
X143889105Y-98597095D01*
X143869047Y-98546808D01*
X143836240Y-98520513D01*
X143788280Y-98512923D01*
X143770016Y-98514432D01*
X143718848Y-98542107D01*
X143685035Y-98604172D01*
X143668796Y-98700037D01*
X143471611Y-98700037D01*
X143471699Y-98690052D01*
X143481262Y-98595533D01*
X143499943Y-98520727D01*
X143523951Y-98470905D01*
X143591536Y-98393409D01*
X143683114Y-98345256D01*
X143795213Y-98328703D01*
X143825151Y-98329599D01*
X143913315Y-98347929D01*
X143985733Y-98394104D01*
X144052192Y-98473648D01*
X144056147Y-98479548D01*
X144074040Y-98511288D01*
X144085678Y-98547163D01*
X144092371Y-98595906D01*
X144095426Y-98666249D01*
X144096106Y-98760182D01*
X144096154Y-98766923D01*
G36*
X144096154Y-98766923D02*
G01*
X144096135Y-98788105D01*
X144095076Y-98882584D01*
X144091436Y-98948414D01*
X144083892Y-98994394D01*
X144071122Y-99029321D01*
X144051803Y-99061995D01*
X144047050Y-99068775D01*
X143996759Y-99122231D01*
X143939457Y-99162547D01*
X143910032Y-99175629D01*
X143804299Y-99197450D01*
X143699734Y-99183336D01*
X143603368Y-99135105D01*
X143522235Y-99054579D01*
X143515385Y-99043791D01*
X143493097Y-98981153D01*
X143478079Y-98893935D01*
X143470792Y-98793210D01*
X143471611Y-98700037D01*
X143668796Y-98700037D01*
X143670349Y-98829114D01*
X143670974Y-98837420D01*
X143680077Y-98908643D01*
X143696288Y-98953809D01*
X143723660Y-98984752D01*
X143769553Y-99013737D01*
X143814942Y-99015261D01*
X143861692Y-98981846D01*
X143869824Y-98973053D01*
X143885754Y-98946741D01*
X143895159Y-98908520D01*
X143899632Y-98849349D01*
X143900769Y-98760182D01*
X143898822Y-98676664D01*
X143889105Y-98597095D01*
X143869047Y-98546808D01*
X143836240Y-98520513D01*
X143788280Y-98512923D01*
X143770016Y-98514432D01*
X143718848Y-98542107D01*
X143685035Y-98604172D01*
X143668796Y-98700037D01*
X143471611Y-98700037D01*
X143471699Y-98690052D01*
X143481262Y-98595533D01*
X143499943Y-98520727D01*
X143523951Y-98470905D01*
X143591536Y-98393409D01*
X143683114Y-98345256D01*
X143795213Y-98328703D01*
X143825151Y-98329599D01*
X143913315Y-98347929D01*
X143985733Y-98394104D01*
X144052192Y-98473648D01*
X144056147Y-98479548D01*
X144074040Y-98511288D01*
X144085678Y-98547163D01*
X144092371Y-98595906D01*
X144095426Y-98666249D01*
X144096106Y-98760182D01*
X144096154Y-98766923D01*
G37*
X135850794Y-98790376D02*
X135850413Y-98842449D01*
X135845641Y-98945047D01*
X135833150Y-99020126D01*
X135810121Y-99075748D01*
X135773732Y-99119975D01*
X135721162Y-99160869D01*
X135687714Y-99179466D01*
X135634098Y-99191991D01*
X135558780Y-99191003D01*
X135516672Y-99187035D01*
X135465879Y-99174920D01*
X135425280Y-99148585D01*
X135378049Y-99099514D01*
X135371738Y-99092346D01*
X135329277Y-99037189D01*
X135309018Y-98989150D01*
X135303846Y-98932184D01*
X135303846Y-98848471D01*
X135362346Y-98870552D01*
X135404994Y-98896364D01*
X135442064Y-98956928D01*
X135449803Y-98976320D01*
X135493074Y-99031235D01*
X135551976Y-99058879D01*
X135616111Y-99056393D01*
X135675077Y-99020923D01*
X135695342Y-98998805D01*
X135713720Y-98965436D01*
X135707971Y-98935117D01*
X135674887Y-98903913D01*
X135611261Y-98867887D01*
X135513885Y-98823103D01*
X135313615Y-98735445D01*
X135308301Y-98648607D01*
X135310299Y-98593296D01*
X135440783Y-98593296D01*
X135450688Y-98627538D01*
X135495756Y-98664096D01*
X135577557Y-98705692D01*
X135591092Y-98711718D01*
X135655818Y-98739753D01*
X135704247Y-98759472D01*
X135726751Y-98766923D01*
X135730161Y-98761438D01*
X135731529Y-98727948D01*
X135726651Y-98674116D01*
X135714364Y-98621473D01*
X135676041Y-98555151D01*
X135620720Y-98517780D01*
X135554640Y-98512721D01*
X135484040Y-98543339D01*
X135464474Y-98558648D01*
X135440783Y-98593296D01*
X135310299Y-98593296D01*
X135310647Y-98583663D01*
X135340186Y-98501590D01*
X135377472Y-98456361D01*
X135454776Y-98405838D01*
X135546478Y-98380316D01*
X135641274Y-98382336D01*
X135727859Y-98414440D01*
X135746920Y-98426767D01*
X135790640Y-98464912D01*
X135820540Y-98513167D01*
X135838968Y-98578710D01*
X135848270Y-98668720D01*
X135849499Y-98727948D01*
X135850794Y-98790376D01*
G36*
X135850794Y-98790376D02*
G01*
X135850413Y-98842449D01*
X135845641Y-98945047D01*
X135833150Y-99020126D01*
X135810121Y-99075748D01*
X135773732Y-99119975D01*
X135721162Y-99160869D01*
X135687714Y-99179466D01*
X135634098Y-99191991D01*
X135558780Y-99191003D01*
X135516672Y-99187035D01*
X135465879Y-99174920D01*
X135425280Y-99148585D01*
X135378049Y-99099514D01*
X135371738Y-99092346D01*
X135329277Y-99037189D01*
X135309018Y-98989150D01*
X135303846Y-98932184D01*
X135303846Y-98848471D01*
X135362346Y-98870552D01*
X135404994Y-98896364D01*
X135442064Y-98956928D01*
X135449803Y-98976320D01*
X135493074Y-99031235D01*
X135551976Y-99058879D01*
X135616111Y-99056393D01*
X135675077Y-99020923D01*
X135695342Y-98998805D01*
X135713720Y-98965436D01*
X135707971Y-98935117D01*
X135674887Y-98903913D01*
X135611261Y-98867887D01*
X135513885Y-98823103D01*
X135313615Y-98735445D01*
X135308301Y-98648607D01*
X135310299Y-98593296D01*
X135440783Y-98593296D01*
X135450688Y-98627538D01*
X135495756Y-98664096D01*
X135577557Y-98705692D01*
X135591092Y-98711718D01*
X135655818Y-98739753D01*
X135704247Y-98759472D01*
X135726751Y-98766923D01*
X135730161Y-98761438D01*
X135731529Y-98727948D01*
X135726651Y-98674116D01*
X135714364Y-98621473D01*
X135676041Y-98555151D01*
X135620720Y-98517780D01*
X135554640Y-98512721D01*
X135484040Y-98543339D01*
X135464474Y-98558648D01*
X135440783Y-98593296D01*
X135310299Y-98593296D01*
X135310647Y-98583663D01*
X135340186Y-98501590D01*
X135377472Y-98456361D01*
X135454776Y-98405838D01*
X135546478Y-98380316D01*
X135641274Y-98382336D01*
X135727859Y-98414440D01*
X135746920Y-98426767D01*
X135790640Y-98464912D01*
X135820540Y-98513167D01*
X135838968Y-98578710D01*
X135848270Y-98668720D01*
X135849499Y-98727948D01*
X135850794Y-98790376D01*
G37*
X138664401Y-98786462D02*
X138662839Y-98862652D01*
X138651810Y-98966507D01*
X138627814Y-99044333D01*
X138588043Y-99103760D01*
X138529688Y-99152418D01*
X138474100Y-99180546D01*
X138380751Y-99196199D01*
X138287530Y-99179084D01*
X138203272Y-99131388D01*
X138136818Y-99055294D01*
X138128793Y-99041262D01*
X138118196Y-99016679D01*
X138110335Y-98985309D01*
X138104807Y-98941769D01*
X138101206Y-98880678D01*
X138099128Y-98796655D01*
X138099064Y-98789200D01*
X138234615Y-98789200D01*
X138235077Y-98860316D01*
X138237999Y-98924641D01*
X138245221Y-98966166D01*
X138258561Y-98994067D01*
X138279836Y-99017517D01*
X138284821Y-99022025D01*
X138348863Y-99055295D01*
X138416625Y-99051890D01*
X138479734Y-99012042D01*
X138498526Y-98991398D01*
X138514254Y-98964029D01*
X138523039Y-98926192D01*
X138526859Y-98868355D01*
X138527692Y-98780986D01*
X138527281Y-98714319D01*
X138524434Y-98649245D01*
X138517256Y-98607251D01*
X138503889Y-98579063D01*
X138482472Y-98555406D01*
X138469890Y-98544753D01*
X138404699Y-98516057D01*
X138336400Y-98520575D01*
X138277098Y-98558144D01*
X138264333Y-98573040D01*
X138248764Y-98601089D01*
X138239762Y-98640258D01*
X138235617Y-98699858D01*
X138234615Y-98789200D01*
X138099064Y-98789200D01*
X138098167Y-98684320D01*
X138097919Y-98538289D01*
X138097846Y-98084963D01*
X138161346Y-98111564D01*
X138178136Y-98118845D01*
X138204859Y-98135287D01*
X138220156Y-98160187D01*
X138228563Y-98203732D01*
X138234615Y-98276106D01*
X138240144Y-98341089D01*
X138247450Y-98383750D01*
X138257918Y-98399670D01*
X138273692Y-98395400D01*
X138313890Y-98380397D01*
X138385728Y-98376678D01*
X138463010Y-98390572D01*
X138529688Y-98420505D01*
X138566371Y-98448211D01*
X138613472Y-98502269D01*
X138643638Y-98571577D01*
X138659678Y-98663765D01*
X138664191Y-98780986D01*
X138664401Y-98786462D01*
G36*
X138664401Y-98786462D02*
G01*
X138662839Y-98862652D01*
X138651810Y-98966507D01*
X138627814Y-99044333D01*
X138588043Y-99103760D01*
X138529688Y-99152418D01*
X138474100Y-99180546D01*
X138380751Y-99196199D01*
X138287530Y-99179084D01*
X138203272Y-99131388D01*
X138136818Y-99055294D01*
X138128793Y-99041262D01*
X138118196Y-99016679D01*
X138110335Y-98985309D01*
X138104807Y-98941769D01*
X138101206Y-98880678D01*
X138099128Y-98796655D01*
X138099064Y-98789200D01*
X138234615Y-98789200D01*
X138235077Y-98860316D01*
X138237999Y-98924641D01*
X138245221Y-98966166D01*
X138258561Y-98994067D01*
X138279836Y-99017517D01*
X138284821Y-99022025D01*
X138348863Y-99055295D01*
X138416625Y-99051890D01*
X138479734Y-99012042D01*
X138498526Y-98991398D01*
X138514254Y-98964029D01*
X138523039Y-98926192D01*
X138526859Y-98868355D01*
X138527692Y-98780986D01*
X138527281Y-98714319D01*
X138524434Y-98649245D01*
X138517256Y-98607251D01*
X138503889Y-98579063D01*
X138482472Y-98555406D01*
X138469890Y-98544753D01*
X138404699Y-98516057D01*
X138336400Y-98520575D01*
X138277098Y-98558144D01*
X138264333Y-98573040D01*
X138248764Y-98601089D01*
X138239762Y-98640258D01*
X138235617Y-98699858D01*
X138234615Y-98789200D01*
X138099064Y-98789200D01*
X138098167Y-98684320D01*
X138097919Y-98538289D01*
X138097846Y-98084963D01*
X138161346Y-98111564D01*
X138178136Y-98118845D01*
X138204859Y-98135287D01*
X138220156Y-98160187D01*
X138228563Y-98203732D01*
X138234615Y-98276106D01*
X138240144Y-98341089D01*
X138247450Y-98383750D01*
X138257918Y-98399670D01*
X138273692Y-98395400D01*
X138313890Y-98380397D01*
X138385728Y-98376678D01*
X138463010Y-98390572D01*
X138529688Y-98420505D01*
X138566371Y-98448211D01*
X138613472Y-98502269D01*
X138643638Y-98571577D01*
X138659678Y-98663765D01*
X138664191Y-98780986D01*
X138664401Y-98786462D01*
G37*
X142610787Y-98711536D02*
X142604574Y-98859643D01*
X142601066Y-98891021D01*
X142574927Y-99002705D01*
X142527694Y-99087642D01*
X142455862Y-99152741D01*
X142451802Y-99155428D01*
X142360487Y-99193634D01*
X142265144Y-99197034D01*
X142173274Y-99167939D01*
X142092379Y-99108660D01*
X142029962Y-99021510D01*
X142028914Y-99019409D01*
X142008173Y-98965289D01*
X141992980Y-98903781D01*
X141984921Y-98846039D01*
X141985582Y-98803215D01*
X141996548Y-98786462D01*
X142006290Y-98787480D01*
X142052877Y-98806009D01*
X142105682Y-98840081D01*
X142150603Y-98879522D01*
X142173535Y-98914155D01*
X142197373Y-98961133D01*
X142246230Y-99003862D01*
X142302963Y-99020923D01*
X142323758Y-99015990D01*
X142364804Y-98991157D01*
X142400557Y-98956685D01*
X142415846Y-98925411D01*
X142415842Y-98925295D01*
X142398495Y-98910933D01*
X142352247Y-98885025D01*
X142284067Y-98851210D01*
X142200923Y-98813129D01*
X142200466Y-98812927D01*
X142110138Y-98772709D01*
X142049592Y-98743733D01*
X142012888Y-98721474D01*
X141994086Y-98701407D01*
X141987246Y-98679009D01*
X141986429Y-98649756D01*
X141992113Y-98594363D01*
X142185000Y-98594363D01*
X142204911Y-98611777D01*
X142254521Y-98637872D01*
X142255976Y-98638610D01*
X142314506Y-98666483D01*
X142366868Y-98688719D01*
X142400086Y-98698126D01*
X142413410Y-98685552D01*
X142415846Y-98642468D01*
X142405724Y-98588847D01*
X142370631Y-98540119D01*
X142319823Y-98514856D01*
X142263181Y-98517406D01*
X142210584Y-98552120D01*
X142189910Y-98576107D01*
X142185000Y-98594363D01*
X141992113Y-98594363D01*
X141993622Y-98579654D01*
X142029184Y-98484412D01*
X142088714Y-98409567D01*
X142165746Y-98357745D01*
X142253815Y-98331573D01*
X142346454Y-98333676D01*
X142437198Y-98366681D01*
X142519579Y-98433215D01*
X142565222Y-98499055D01*
X142598008Y-98593036D01*
X142603339Y-98642468D01*
X142610787Y-98711536D01*
G36*
X142610787Y-98711536D02*
G01*
X142604574Y-98859643D01*
X142601066Y-98891021D01*
X142574927Y-99002705D01*
X142527694Y-99087642D01*
X142455862Y-99152741D01*
X142451802Y-99155428D01*
X142360487Y-99193634D01*
X142265144Y-99197034D01*
X142173274Y-99167939D01*
X142092379Y-99108660D01*
X142029962Y-99021510D01*
X142028914Y-99019409D01*
X142008173Y-98965289D01*
X141992980Y-98903781D01*
X141984921Y-98846039D01*
X141985582Y-98803215D01*
X141996548Y-98786462D01*
X142006290Y-98787480D01*
X142052877Y-98806009D01*
X142105682Y-98840081D01*
X142150603Y-98879522D01*
X142173535Y-98914155D01*
X142197373Y-98961133D01*
X142246230Y-99003862D01*
X142302963Y-99020923D01*
X142323758Y-99015990D01*
X142364804Y-98991157D01*
X142400557Y-98956685D01*
X142415846Y-98925411D01*
X142415842Y-98925295D01*
X142398495Y-98910933D01*
X142352247Y-98885025D01*
X142284067Y-98851210D01*
X142200923Y-98813129D01*
X142200466Y-98812927D01*
X142110138Y-98772709D01*
X142049592Y-98743733D01*
X142012888Y-98721474D01*
X141994086Y-98701407D01*
X141987246Y-98679009D01*
X141986429Y-98649756D01*
X141992113Y-98594363D01*
X142185000Y-98594363D01*
X142204911Y-98611777D01*
X142254521Y-98637872D01*
X142255976Y-98638610D01*
X142314506Y-98666483D01*
X142366868Y-98688719D01*
X142400086Y-98698126D01*
X142413410Y-98685552D01*
X142415846Y-98642468D01*
X142405724Y-98588847D01*
X142370631Y-98540119D01*
X142319823Y-98514856D01*
X142263181Y-98517406D01*
X142210584Y-98552120D01*
X142189910Y-98576107D01*
X142185000Y-98594363D01*
X141992113Y-98594363D01*
X141993622Y-98579654D01*
X142029184Y-98484412D01*
X142088714Y-98409567D01*
X142165746Y-98357745D01*
X142253815Y-98331573D01*
X142346454Y-98333676D01*
X142437198Y-98366681D01*
X142519579Y-98433215D01*
X142565222Y-98499055D01*
X142598008Y-98593036D01*
X142603339Y-98642468D01*
X142610787Y-98711536D01*
G37*
X139820458Y-98397228D02*
X139887622Y-98436389D01*
X139917169Y-98466902D01*
X139973948Y-98558110D01*
X139993077Y-98657548D01*
X139993077Y-98725960D01*
X139930191Y-98699518D01*
X139886700Y-98672837D01*
X139852426Y-98617446D01*
X139848907Y-98606024D01*
X139811028Y-98547838D01*
X139753936Y-98516407D01*
X139688383Y-98515058D01*
X139625117Y-98547116D01*
X139615672Y-98555383D01*
X139584087Y-98591311D01*
X139578871Y-98622635D01*
X139602765Y-98653391D01*
X139658510Y-98687617D01*
X139748846Y-98729350D01*
X139754956Y-98731993D01*
X139855241Y-98778755D01*
X139923735Y-98820181D01*
X139965899Y-98861542D01*
X139987193Y-98908111D01*
X139993077Y-98965160D01*
X139985366Y-99028408D01*
X139946430Y-99109364D01*
X139877932Y-99167522D01*
X139828388Y-99184983D01*
X139758469Y-99194537D01*
X139690575Y-99192496D01*
X139642093Y-99178082D01*
X139636943Y-99174493D01*
X139623267Y-99149416D01*
X139632757Y-99105218D01*
X139649246Y-99070527D01*
X139675687Y-99056084D01*
X139725834Y-99056803D01*
X139795453Y-99052660D01*
X139840943Y-99024054D01*
X139856308Y-98971104D01*
X139856294Y-98969582D01*
X139846983Y-98938845D01*
X139815311Y-98910643D01*
X139753731Y-98878136D01*
X139669986Y-98838998D01*
X139614518Y-98817706D01*
X139582497Y-98819079D01*
X139567534Y-98847203D01*
X139563242Y-98906170D01*
X139563231Y-99000068D01*
X139562752Y-99058031D01*
X139560556Y-99129612D01*
X139556986Y-99178606D01*
X139552491Y-99196769D01*
X139551290Y-99196646D01*
X139525319Y-99186802D01*
X139482305Y-99166028D01*
X139422859Y-99135287D01*
X139429923Y-98858298D01*
X139430414Y-98839928D01*
X139436025Y-98710992D01*
X139445938Y-98613814D01*
X139462175Y-98541925D01*
X139486759Y-98488852D01*
X139521715Y-98448127D01*
X139569064Y-98413279D01*
X139569940Y-98412733D01*
X139646499Y-98384303D01*
X139735044Y-98379500D01*
X139820458Y-98397228D01*
G36*
X139820458Y-98397228D02*
G01*
X139887622Y-98436389D01*
X139917169Y-98466902D01*
X139973948Y-98558110D01*
X139993077Y-98657548D01*
X139993077Y-98725960D01*
X139930191Y-98699518D01*
X139886700Y-98672837D01*
X139852426Y-98617446D01*
X139848907Y-98606024D01*
X139811028Y-98547838D01*
X139753936Y-98516407D01*
X139688383Y-98515058D01*
X139625117Y-98547116D01*
X139615672Y-98555383D01*
X139584087Y-98591311D01*
X139578871Y-98622635D01*
X139602765Y-98653391D01*
X139658510Y-98687617D01*
X139748846Y-98729350D01*
X139754956Y-98731993D01*
X139855241Y-98778755D01*
X139923735Y-98820181D01*
X139965899Y-98861542D01*
X139987193Y-98908111D01*
X139993077Y-98965160D01*
X139985366Y-99028408D01*
X139946430Y-99109364D01*
X139877932Y-99167522D01*
X139828388Y-99184983D01*
X139758469Y-99194537D01*
X139690575Y-99192496D01*
X139642093Y-99178082D01*
X139636943Y-99174493D01*
X139623267Y-99149416D01*
X139632757Y-99105218D01*
X139649246Y-99070527D01*
X139675687Y-99056084D01*
X139725834Y-99056803D01*
X139795453Y-99052660D01*
X139840943Y-99024054D01*
X139856308Y-98971104D01*
X139856294Y-98969582D01*
X139846983Y-98938845D01*
X139815311Y-98910643D01*
X139753731Y-98878136D01*
X139669986Y-98838998D01*
X139614518Y-98817706D01*
X139582497Y-98819079D01*
X139567534Y-98847203D01*
X139563242Y-98906170D01*
X139563231Y-99000068D01*
X139562752Y-99058031D01*
X139560556Y-99129612D01*
X139556986Y-99178606D01*
X139552491Y-99196769D01*
X139551290Y-99196646D01*
X139525319Y-99186802D01*
X139482305Y-99166028D01*
X139422859Y-99135287D01*
X139429923Y-98858298D01*
X139430414Y-98839928D01*
X139436025Y-98710992D01*
X139445938Y-98613814D01*
X139462175Y-98541925D01*
X139486759Y-98488852D01*
X139521715Y-98448127D01*
X139569064Y-98413279D01*
X139569940Y-98412733D01*
X139646499Y-98384303D01*
X139735044Y-98379500D01*
X139820458Y-98397228D01*
G37*
X143347828Y-98856205D02*
X143349763Y-99006269D01*
X143350300Y-99049802D01*
X143352019Y-99195344D01*
X143352365Y-99306711D01*
X143350277Y-99387804D01*
X143344698Y-99442522D01*
X143334567Y-99474761D01*
X143318826Y-99488422D01*
X143296417Y-99487403D01*
X143266280Y-99475603D01*
X143227355Y-99456920D01*
X143219038Y-99452933D01*
X143184402Y-99433419D01*
X143166314Y-99410202D01*
X143159392Y-99371492D01*
X143158256Y-99305497D01*
X143158205Y-99187000D01*
X143036141Y-99187000D01*
X142961055Y-99183712D01*
X142902015Y-99170377D01*
X142852986Y-99143423D01*
X142849330Y-99140788D01*
X142799581Y-99096286D01*
X142764959Y-99042523D01*
X142743123Y-98972154D01*
X142731737Y-98877830D01*
X142728959Y-98771271D01*
X142923846Y-98771271D01*
X142923880Y-98789131D01*
X142925735Y-98869748D01*
X142931693Y-98922447D01*
X142943506Y-98956668D01*
X142962923Y-98981846D01*
X142964133Y-98983049D01*
X143011858Y-99015628D01*
X143058110Y-99012417D01*
X143110350Y-98972965D01*
X143123128Y-98959482D01*
X143141949Y-98931837D01*
X143152562Y-98895880D01*
X143157252Y-98841364D01*
X143158308Y-98758042D01*
X143157394Y-98707598D01*
X143147477Y-98615857D01*
X143124842Y-98555752D01*
X143087238Y-98522900D01*
X143032416Y-98512923D01*
X143009317Y-98515050D01*
X142969350Y-98536147D01*
X142942926Y-98583161D01*
X142928330Y-98660175D01*
X142923846Y-98771271D01*
X142728959Y-98771271D01*
X142728462Y-98752206D01*
X142729187Y-98660536D01*
X142732490Y-98591098D01*
X142739828Y-98542945D01*
X142752655Y-98506866D01*
X142772423Y-98473648D01*
X142790569Y-98448261D01*
X142856461Y-98379727D01*
X142931114Y-98342505D01*
X143024904Y-98330722D01*
X143132240Y-98342467D01*
X143225031Y-98384595D01*
X143298421Y-98458898D01*
X143303954Y-98466764D01*
X143316857Y-98487668D01*
X143326742Y-98511555D01*
X143334093Y-98543582D01*
X143339394Y-98588905D01*
X143343127Y-98652679D01*
X143345778Y-98740060D01*
X143346096Y-98758042D01*
X143347828Y-98856205D01*
G36*
X143347828Y-98856205D02*
G01*
X143349763Y-99006269D01*
X143350300Y-99049802D01*
X143352019Y-99195344D01*
X143352365Y-99306711D01*
X143350277Y-99387804D01*
X143344698Y-99442522D01*
X143334567Y-99474761D01*
X143318826Y-99488422D01*
X143296417Y-99487403D01*
X143266280Y-99475603D01*
X143227355Y-99456920D01*
X143219038Y-99452933D01*
X143184402Y-99433419D01*
X143166314Y-99410202D01*
X143159392Y-99371492D01*
X143158256Y-99305497D01*
X143158205Y-99187000D01*
X143036141Y-99187000D01*
X142961055Y-99183712D01*
X142902015Y-99170377D01*
X142852986Y-99143423D01*
X142849330Y-99140788D01*
X142799581Y-99096286D01*
X142764959Y-99042523D01*
X142743123Y-98972154D01*
X142731737Y-98877830D01*
X142728959Y-98771271D01*
X142923846Y-98771271D01*
X142923880Y-98789131D01*
X142925735Y-98869748D01*
X142931693Y-98922447D01*
X142943506Y-98956668D01*
X142962923Y-98981846D01*
X142964133Y-98983049D01*
X143011858Y-99015628D01*
X143058110Y-99012417D01*
X143110350Y-98972965D01*
X143123128Y-98959482D01*
X143141949Y-98931837D01*
X143152562Y-98895880D01*
X143157252Y-98841364D01*
X143158308Y-98758042D01*
X143157394Y-98707598D01*
X143147477Y-98615857D01*
X143124842Y-98555752D01*
X143087238Y-98522900D01*
X143032416Y-98512923D01*
X143009317Y-98515050D01*
X142969350Y-98536147D01*
X142942926Y-98583161D01*
X142928330Y-98660175D01*
X142923846Y-98771271D01*
X142728959Y-98771271D01*
X142728462Y-98752206D01*
X142729187Y-98660536D01*
X142732490Y-98591098D01*
X142739828Y-98542945D01*
X142752655Y-98506866D01*
X142772423Y-98473648D01*
X142790569Y-98448261D01*
X142856461Y-98379727D01*
X142931114Y-98342505D01*
X143024904Y-98330722D01*
X143132240Y-98342467D01*
X143225031Y-98384595D01*
X143298421Y-98458898D01*
X143303954Y-98466764D01*
X143316857Y-98487668D01*
X143326742Y-98511555D01*
X143334093Y-98543582D01*
X143339394Y-98588905D01*
X143343127Y-98652679D01*
X143345778Y-98740060D01*
X143346096Y-98758042D01*
X143347828Y-98856205D01*
G37*
X136963936Y-98377911D02*
X137005807Y-98388547D01*
X137044791Y-98415062D01*
X137094965Y-98464420D01*
X137127232Y-98499279D01*
X137160844Y-98544534D01*
X137176003Y-98586951D01*
X137179539Y-98640768D01*
X137179539Y-98728850D01*
X137119470Y-98697787D01*
X137071867Y-98659936D01*
X137039261Y-98608950D01*
X137033661Y-98595088D01*
X136990992Y-98541358D01*
X136931707Y-98514417D01*
X136867061Y-98517039D01*
X136808308Y-98552000D01*
X136783450Y-98580394D01*
X136768970Y-98616718D01*
X136784470Y-98649046D01*
X136832667Y-98681565D01*
X136916274Y-98718461D01*
X136928962Y-98723557D01*
X137005078Y-98756907D01*
X137070396Y-98789793D01*
X137111953Y-98815769D01*
X137153576Y-98862167D01*
X137181247Y-98936211D01*
X137178310Y-99015670D01*
X137145571Y-99090868D01*
X137083841Y-99152131D01*
X137033858Y-99178210D01*
X136937303Y-99196470D01*
X136883647Y-99194007D01*
X136833976Y-99180687D01*
X136814919Y-99152739D01*
X136822045Y-99106710D01*
X136824118Y-99100624D01*
X136840556Y-99068349D01*
X136867926Y-99056133D01*
X136920068Y-99056950D01*
X136956884Y-99058061D01*
X136999961Y-99048528D01*
X137029475Y-99020026D01*
X137046286Y-98984935D01*
X137048161Y-98948175D01*
X137048074Y-98947961D01*
X137026279Y-98928098D01*
X136979632Y-98899192D01*
X136919278Y-98866886D01*
X136856360Y-98836823D01*
X136802023Y-98814646D01*
X136767410Y-98806000D01*
X136762260Y-98814467D01*
X136755778Y-98854309D01*
X136751339Y-98919371D01*
X136749692Y-99001385D01*
X136749309Y-99058153D01*
X136747505Y-99129648D01*
X136744558Y-99178610D01*
X136740843Y-99196769D01*
X136721424Y-99190667D01*
X136682227Y-99174095D01*
X136632462Y-99151420D01*
X136632462Y-98860509D01*
X136632780Y-98785940D01*
X136635789Y-98672701D01*
X136643454Y-98588692D01*
X136657562Y-98527520D01*
X136679899Y-98482795D01*
X136712253Y-98448124D01*
X136756410Y-98417117D01*
X136812667Y-98391528D01*
X136916540Y-98376154D01*
X136963936Y-98377911D01*
G36*
X136963936Y-98377911D02*
G01*
X137005807Y-98388547D01*
X137044791Y-98415062D01*
X137094965Y-98464420D01*
X137127232Y-98499279D01*
X137160844Y-98544534D01*
X137176003Y-98586951D01*
X137179539Y-98640768D01*
X137179539Y-98728850D01*
X137119470Y-98697787D01*
X137071867Y-98659936D01*
X137039261Y-98608950D01*
X137033661Y-98595088D01*
X136990992Y-98541358D01*
X136931707Y-98514417D01*
X136867061Y-98517039D01*
X136808308Y-98552000D01*
X136783450Y-98580394D01*
X136768970Y-98616718D01*
X136784470Y-98649046D01*
X136832667Y-98681565D01*
X136916274Y-98718461D01*
X136928962Y-98723557D01*
X137005078Y-98756907D01*
X137070396Y-98789793D01*
X137111953Y-98815769D01*
X137153576Y-98862167D01*
X137181247Y-98936211D01*
X137178310Y-99015670D01*
X137145571Y-99090868D01*
X137083841Y-99152131D01*
X137033858Y-99178210D01*
X136937303Y-99196470D01*
X136883647Y-99194007D01*
X136833976Y-99180687D01*
X136814919Y-99152739D01*
X136822045Y-99106710D01*
X136824118Y-99100624D01*
X136840556Y-99068349D01*
X136867926Y-99056133D01*
X136920068Y-99056950D01*
X136956884Y-99058061D01*
X136999961Y-99048528D01*
X137029475Y-99020026D01*
X137046286Y-98984935D01*
X137048161Y-98948175D01*
X137048074Y-98947961D01*
X137026279Y-98928098D01*
X136979632Y-98899192D01*
X136919278Y-98866886D01*
X136856360Y-98836823D01*
X136802023Y-98814646D01*
X136767410Y-98806000D01*
X136762260Y-98814467D01*
X136755778Y-98854309D01*
X136751339Y-98919371D01*
X136749692Y-99001385D01*
X136749309Y-99058153D01*
X136747505Y-99129648D01*
X136744558Y-99178610D01*
X136740843Y-99196769D01*
X136721424Y-99190667D01*
X136682227Y-99174095D01*
X136632462Y-99151420D01*
X136632462Y-98860509D01*
X136632780Y-98785940D01*
X136635789Y-98672701D01*
X136643454Y-98588692D01*
X136657562Y-98527520D01*
X136679899Y-98482795D01*
X136712253Y-98448124D01*
X136756410Y-98417117D01*
X136812667Y-98391528D01*
X136916540Y-98376154D01*
X136963936Y-98377911D01*
G37*
X139717575Y-92045693D02*
X139853371Y-92045807D01*
X139955576Y-92046472D01*
X140029122Y-92048182D01*
X140078942Y-92051429D01*
X140109967Y-92056706D01*
X140127129Y-92064507D01*
X140135361Y-92075325D01*
X140139594Y-92089654D01*
X140139716Y-92090168D01*
X140146672Y-92123851D01*
X140159320Y-92188917D01*
X140176360Y-92278542D01*
X140196496Y-92385904D01*
X140218429Y-92504178D01*
X140220218Y-92513856D01*
X140242083Y-92628650D01*
X140262430Y-92729480D01*
X140279934Y-92810217D01*
X140293271Y-92864734D01*
X140301116Y-92886901D01*
X140301158Y-92886936D01*
X140325884Y-92899200D01*
X140376631Y-92919576D01*
X140442462Y-92943674D01*
X140446169Y-92944983D01*
X140530331Y-92976791D01*
X140628230Y-93016685D01*
X140719435Y-93056353D01*
X140869407Y-93124420D01*
X141201499Y-92897639D01*
X141224889Y-92881688D01*
X141325080Y-92813890D01*
X141414480Y-92754208D01*
X141487745Y-92706156D01*
X141539527Y-92673250D01*
X141564480Y-92659004D01*
X141581577Y-92662270D01*
X141620395Y-92687571D01*
X141680385Y-92737675D01*
X141763210Y-92813989D01*
X141870535Y-92917922D01*
X141880139Y-92927382D01*
X141965302Y-93012145D01*
X142040949Y-93088937D01*
X142102449Y-93152947D01*
X142145173Y-93199361D01*
X142164489Y-93223369D01*
X142164552Y-93223485D01*
X142167006Y-93241763D01*
X142157956Y-93271411D01*
X142135119Y-93316486D01*
X142096213Y-93381044D01*
X142038954Y-93469140D01*
X141961059Y-93584830D01*
X141947785Y-93604357D01*
X141880652Y-93703278D01*
X141821410Y-93790848D01*
X141773588Y-93861831D01*
X141740715Y-93910991D01*
X141726318Y-93933095D01*
X141725232Y-93937777D01*
X141732044Y-93972710D01*
X141752450Y-94029753D01*
X141783123Y-94099172D01*
X141824808Y-94189959D01*
X141871352Y-94297686D01*
X141910877Y-94395192D01*
X141920676Y-94420430D01*
X141946340Y-94484870D01*
X141965193Y-94529763D01*
X141973710Y-94546616D01*
X141983111Y-94547875D01*
X142025363Y-94555159D01*
X142094521Y-94567739D01*
X142183387Y-94584246D01*
X142284768Y-94603312D01*
X142391467Y-94623569D01*
X142496288Y-94643647D01*
X142592036Y-94662179D01*
X142671516Y-94677795D01*
X142727530Y-94689127D01*
X142752885Y-94694807D01*
X142757088Y-94696408D01*
X142767334Y-94705045D01*
X142774957Y-94723433D01*
X142780338Y-94756460D01*
X142783859Y-94809013D01*
X142785901Y-94885979D01*
X142786847Y-94992246D01*
X142787077Y-95132701D01*
X142787077Y-95559845D01*
X142684500Y-95580091D01*
X142672092Y-95582518D01*
X142606199Y-95595088D01*
X142515084Y-95612170D01*
X142409104Y-95631829D01*
X142298615Y-95652132D01*
X142255105Y-95660299D01*
X142157882Y-95680167D01*
X142076858Y-95698954D01*
X142019477Y-95714859D01*
X141993187Y-95726079D01*
X141981273Y-95744411D01*
X141959583Y-95792916D01*
X141937395Y-95855692D01*
X141929585Y-95879200D01*
X141900835Y-95956366D01*
X141863752Y-96047694D01*
X141824375Y-96138093D01*
X141803315Y-96185310D01*
X141773311Y-96255837D01*
X141752692Y-96308655D01*
X141745026Y-96334912D01*
X141745452Y-96336894D01*
X141759993Y-96364751D01*
X141792783Y-96418510D01*
X141840493Y-96492963D01*
X141899798Y-96582897D01*
X141967369Y-96683104D01*
X142189713Y-97009416D01*
X141897601Y-97302016D01*
X141869349Y-97330171D01*
X141782961Y-97414449D01*
X141705756Y-97487128D01*
X141642258Y-97544112D01*
X141596990Y-97581307D01*
X141574474Y-97594616D01*
X141550023Y-97584490D01*
X141498819Y-97555421D01*
X141426747Y-97510896D01*
X141339460Y-97454411D01*
X141242612Y-97389462D01*
X141147486Y-97325314D01*
X141061669Y-97268827D01*
X140991652Y-97224184D01*
X140942876Y-97194855D01*
X140920783Y-97184308D01*
X140919488Y-97184404D01*
X140890139Y-97194802D01*
X140838093Y-97219012D01*
X140773708Y-97252249D01*
X140773032Y-97252613D01*
X140687521Y-97295441D01*
X140628926Y-97316365D01*
X140592571Y-97316423D01*
X140573775Y-97296654D01*
X140565819Y-97277195D01*
X140544347Y-97225080D01*
X140511273Y-97144964D01*
X140468356Y-97041107D01*
X140417356Y-96917767D01*
X140360033Y-96779201D01*
X140298146Y-96629670D01*
X140242052Y-96493636D01*
X140184977Y-96354050D01*
X140134479Y-96229315D01*
X140092254Y-96123672D01*
X140059995Y-96041365D01*
X140039397Y-95986635D01*
X140032154Y-95963726D01*
X140045986Y-95942718D01*
X140084412Y-95907642D01*
X140138807Y-95866887D01*
X140269395Y-95760267D01*
X140386260Y-95624025D01*
X140471780Y-95474118D01*
X140525431Y-95314971D01*
X140546684Y-95151012D01*
X140535014Y-94986667D01*
X140489894Y-94826361D01*
X140410797Y-94674520D01*
X140297197Y-94535572D01*
X140237965Y-94481460D01*
X140096054Y-94385782D01*
X139944206Y-94323405D01*
X139786861Y-94292844D01*
X139628456Y-94292615D01*
X139473429Y-94321232D01*
X139326220Y-94377210D01*
X139191266Y-94459064D01*
X139073005Y-94565309D01*
X138975877Y-94694459D01*
X138904318Y-94845031D01*
X138862769Y-95015539D01*
X138855143Y-95097722D01*
X138865634Y-95275775D01*
X138912882Y-95444704D01*
X138995489Y-95601522D01*
X139112059Y-95743245D01*
X139261193Y-95866887D01*
X139313561Y-95905982D01*
X139352832Y-95941443D01*
X139367846Y-95963692D01*
X139361859Y-95983088D01*
X139342432Y-96035059D01*
X139311194Y-96115002D01*
X139269839Y-96218673D01*
X139220061Y-96341832D01*
X139163553Y-96480234D01*
X139102009Y-96629637D01*
X139046008Y-96765020D01*
X138988184Y-96904852D01*
X138936500Y-97029872D01*
X138892718Y-97135822D01*
X138858597Y-97218441D01*
X138835898Y-97273472D01*
X138826380Y-97296654D01*
X138826269Y-97296928D01*
X138807228Y-97316503D01*
X138770694Y-97316279D01*
X138711954Y-97295210D01*
X138626292Y-97252249D01*
X138619549Y-97248631D01*
X138555938Y-97216087D01*
X138505707Y-97193050D01*
X138479218Y-97184308D01*
X138457506Y-97194639D01*
X138408984Y-97223788D01*
X138339163Y-97268287D01*
X138253484Y-97324668D01*
X138157388Y-97389462D01*
X138062706Y-97452984D01*
X137975132Y-97509705D01*
X137902642Y-97554547D01*
X137850889Y-97584016D01*
X137825526Y-97594616D01*
X137821206Y-97593270D01*
X137791092Y-97572056D01*
X137739640Y-97528237D01*
X137671375Y-97465909D01*
X137590820Y-97389170D01*
X137502500Y-97302116D01*
X137210488Y-97009617D01*
X137665360Y-96340525D01*
X137596208Y-96190916D01*
X137596003Y-96190473D01*
X137554477Y-96095101D01*
X137512044Y-95988896D01*
X137477858Y-95894769D01*
X137472684Y-95879588D01*
X137446601Y-95809109D01*
X137423081Y-95754342D01*
X137406677Y-95726079D01*
X137399996Y-95722088D01*
X137359892Y-95708697D01*
X137291795Y-95691373D01*
X137203145Y-95671917D01*
X137101385Y-95652132D01*
X137070904Y-95646551D01*
X136960628Y-95626233D01*
X136857731Y-95607095D01*
X136772569Y-95591070D01*
X136715500Y-95580091D01*
X136612923Y-95559845D01*
X136612923Y-95132701D01*
X136612946Y-95080180D01*
X136613379Y-94952047D01*
X136614659Y-94856420D01*
X136617168Y-94788411D01*
X136621286Y-94743133D01*
X136627395Y-94715697D01*
X136635878Y-94701218D01*
X136647115Y-94694807D01*
X136657994Y-94692209D01*
X136702347Y-94683022D01*
X136773106Y-94668991D01*
X136863074Y-94651486D01*
X136965056Y-94631874D01*
X137071857Y-94611525D01*
X137176281Y-94591807D01*
X137271132Y-94574089D01*
X137349214Y-94559738D01*
X137403332Y-94550124D01*
X137426291Y-94546616D01*
X137427842Y-94544497D01*
X137440325Y-94517006D01*
X137461927Y-94464406D01*
X137489123Y-94395192D01*
X137526866Y-94301937D01*
X137573328Y-94194159D01*
X137616878Y-94099172D01*
X137626858Y-94077851D01*
X137654862Y-94011086D01*
X137671641Y-93959590D01*
X137673854Y-93933095D01*
X137672713Y-93931218D01*
X137654584Y-93903565D01*
X137618644Y-93849849D01*
X137568418Y-93775303D01*
X137507430Y-93685162D01*
X137439205Y-93584657D01*
X137362330Y-93470470D01*
X137304663Y-93381770D01*
X137265426Y-93316721D01*
X137242350Y-93271295D01*
X137233166Y-93241463D01*
X137235604Y-93223195D01*
X137236424Y-93221825D01*
X137258477Y-93195205D01*
X137303436Y-93146697D01*
X137366673Y-93081108D01*
X137443559Y-93003247D01*
X137529465Y-92917922D01*
X137618579Y-92831334D01*
X137705872Y-92749947D01*
X137770018Y-92695035D01*
X137812679Y-92665190D01*
X137835521Y-92659004D01*
X137838505Y-92660394D01*
X137869936Y-92679127D01*
X137926997Y-92715733D01*
X138004343Y-92766697D01*
X138096626Y-92828504D01*
X138198502Y-92897639D01*
X138530593Y-93124420D01*
X138680566Y-93056353D01*
X138684923Y-93054381D01*
X138777000Y-93014491D01*
X138874683Y-92974818D01*
X138957539Y-92943674D01*
X138957905Y-92943545D01*
X139023685Y-92919456D01*
X139074323Y-92899110D01*
X139098884Y-92886901D01*
X139099282Y-92886458D01*
X139107619Y-92861456D01*
X139121341Y-92804598D01*
X139139123Y-92722014D01*
X139159641Y-92619831D01*
X139181571Y-92504178D01*
X139182336Y-92500033D01*
X139204229Y-92382019D01*
X139224281Y-92275151D01*
X139241192Y-92186252D01*
X139253667Y-92122145D01*
X139260406Y-92089654D01*
X139260837Y-92087853D01*
X139265273Y-92073944D01*
X139274263Y-92063489D01*
X139292737Y-92055996D01*
X139325628Y-92050972D01*
X139377868Y-92047922D01*
X139454388Y-92046355D01*
X139560122Y-92045776D01*
X139700000Y-92045692D01*
X139717575Y-92045693D01*
G36*
X139717575Y-92045693D02*
G01*
X139853371Y-92045807D01*
X139955576Y-92046472D01*
X140029122Y-92048182D01*
X140078942Y-92051429D01*
X140109967Y-92056706D01*
X140127129Y-92064507D01*
X140135361Y-92075325D01*
X140139594Y-92089654D01*
X140139716Y-92090168D01*
X140146672Y-92123851D01*
X140159320Y-92188917D01*
X140176360Y-92278542D01*
X140196496Y-92385904D01*
X140218429Y-92504178D01*
X140220218Y-92513856D01*
X140242083Y-92628650D01*
X140262430Y-92729480D01*
X140279934Y-92810217D01*
X140293271Y-92864734D01*
X140301116Y-92886901D01*
X140301158Y-92886936D01*
X140325884Y-92899200D01*
X140376631Y-92919576D01*
X140442462Y-92943674D01*
X140446169Y-92944983D01*
X140530331Y-92976791D01*
X140628230Y-93016685D01*
X140719435Y-93056353D01*
X140869407Y-93124420D01*
X141201499Y-92897639D01*
X141224889Y-92881688D01*
X141325080Y-92813890D01*
X141414480Y-92754208D01*
X141487745Y-92706156D01*
X141539527Y-92673250D01*
X141564480Y-92659004D01*
X141581577Y-92662270D01*
X141620395Y-92687571D01*
X141680385Y-92737675D01*
X141763210Y-92813989D01*
X141870535Y-92917922D01*
X141880139Y-92927382D01*
X141965302Y-93012145D01*
X142040949Y-93088937D01*
X142102449Y-93152947D01*
X142145173Y-93199361D01*
X142164489Y-93223369D01*
X142164552Y-93223485D01*
X142167006Y-93241763D01*
X142157956Y-93271411D01*
X142135119Y-93316486D01*
X142096213Y-93381044D01*
X142038954Y-93469140D01*
X141961059Y-93584830D01*
X141947785Y-93604357D01*
X141880652Y-93703278D01*
X141821410Y-93790848D01*
X141773588Y-93861831D01*
X141740715Y-93910991D01*
X141726318Y-93933095D01*
X141725232Y-93937777D01*
X141732044Y-93972710D01*
X141752450Y-94029753D01*
X141783123Y-94099172D01*
X141824808Y-94189959D01*
X141871352Y-94297686D01*
X141910877Y-94395192D01*
X141920676Y-94420430D01*
X141946340Y-94484870D01*
X141965193Y-94529763D01*
X141973710Y-94546616D01*
X141983111Y-94547875D01*
X142025363Y-94555159D01*
X142094521Y-94567739D01*
X142183387Y-94584246D01*
X142284768Y-94603312D01*
X142391467Y-94623569D01*
X142496288Y-94643647D01*
X142592036Y-94662179D01*
X142671516Y-94677795D01*
X142727530Y-94689127D01*
X142752885Y-94694807D01*
X142757088Y-94696408D01*
X142767334Y-94705045D01*
X142774957Y-94723433D01*
X142780338Y-94756460D01*
X142783859Y-94809013D01*
X142785901Y-94885979D01*
X142786847Y-94992246D01*
X142787077Y-95132701D01*
X142787077Y-95559845D01*
X142684500Y-95580091D01*
X142672092Y-95582518D01*
X142606199Y-95595088D01*
X142515084Y-95612170D01*
X142409104Y-95631829D01*
X142298615Y-95652132D01*
X142255105Y-95660299D01*
X142157882Y-95680167D01*
X142076858Y-95698954D01*
X142019477Y-95714859D01*
X141993187Y-95726079D01*
X141981273Y-95744411D01*
X141959583Y-95792916D01*
X141937395Y-95855692D01*
X141929585Y-95879200D01*
X141900835Y-95956366D01*
X141863752Y-96047694D01*
X141824375Y-96138093D01*
X141803315Y-96185310D01*
X141773311Y-96255837D01*
X141752692Y-96308655D01*
X141745026Y-96334912D01*
X141745452Y-96336894D01*
X141759993Y-96364751D01*
X141792783Y-96418510D01*
X141840493Y-96492963D01*
X141899798Y-96582897D01*
X141967369Y-96683104D01*
X142189713Y-97009416D01*
X141897601Y-97302016D01*
X141869349Y-97330171D01*
X141782961Y-97414449D01*
X141705756Y-97487128D01*
X141642258Y-97544112D01*
X141596990Y-97581307D01*
X141574474Y-97594616D01*
X141550023Y-97584490D01*
X141498819Y-97555421D01*
X141426747Y-97510896D01*
X141339460Y-97454411D01*
X141242612Y-97389462D01*
X141147486Y-97325314D01*
X141061669Y-97268827D01*
X140991652Y-97224184D01*
X140942876Y-97194855D01*
X140920783Y-97184308D01*
X140919488Y-97184404D01*
X140890139Y-97194802D01*
X140838093Y-97219012D01*
X140773708Y-97252249D01*
X140773032Y-97252613D01*
X140687521Y-97295441D01*
X140628926Y-97316365D01*
X140592571Y-97316423D01*
X140573775Y-97296654D01*
X140565819Y-97277195D01*
X140544347Y-97225080D01*
X140511273Y-97144964D01*
X140468356Y-97041107D01*
X140417356Y-96917767D01*
X140360033Y-96779201D01*
X140298146Y-96629670D01*
X140242052Y-96493636D01*
X140184977Y-96354050D01*
X140134479Y-96229315D01*
X140092254Y-96123672D01*
X140059995Y-96041365D01*
X140039397Y-95986635D01*
X140032154Y-95963726D01*
X140045986Y-95942718D01*
X140084412Y-95907642D01*
X140138807Y-95866887D01*
X140269395Y-95760267D01*
X140386260Y-95624025D01*
X140471780Y-95474118D01*
X140525431Y-95314971D01*
X140546684Y-95151012D01*
X140535014Y-94986667D01*
X140489894Y-94826361D01*
X140410797Y-94674520D01*
X140297197Y-94535572D01*
X140237965Y-94481460D01*
X140096054Y-94385782D01*
X139944206Y-94323405D01*
X139786861Y-94292844D01*
X139628456Y-94292615D01*
X139473429Y-94321232D01*
X139326220Y-94377210D01*
X139191266Y-94459064D01*
X139073005Y-94565309D01*
X138975877Y-94694459D01*
X138904318Y-94845031D01*
X138862769Y-95015539D01*
X138855143Y-95097722D01*
X138865634Y-95275775D01*
X138912882Y-95444704D01*
X138995489Y-95601522D01*
X139112059Y-95743245D01*
X139261193Y-95866887D01*
X139313561Y-95905982D01*
X139352832Y-95941443D01*
X139367846Y-95963692D01*
X139361859Y-95983088D01*
X139342432Y-96035059D01*
X139311194Y-96115002D01*
X139269839Y-96218673D01*
X139220061Y-96341832D01*
X139163553Y-96480234D01*
X139102009Y-96629637D01*
X139046008Y-96765020D01*
X138988184Y-96904852D01*
X138936500Y-97029872D01*
X138892718Y-97135822D01*
X138858597Y-97218441D01*
X138835898Y-97273472D01*
X138826380Y-97296654D01*
X138826269Y-97296928D01*
X138807228Y-97316503D01*
X138770694Y-97316279D01*
X138711954Y-97295210D01*
X138626292Y-97252249D01*
X138619549Y-97248631D01*
X138555938Y-97216087D01*
X138505707Y-97193050D01*
X138479218Y-97184308D01*
X138457506Y-97194639D01*
X138408984Y-97223788D01*
X138339163Y-97268287D01*
X138253484Y-97324668D01*
X138157388Y-97389462D01*
X138062706Y-97452984D01*
X137975132Y-97509705D01*
X137902642Y-97554547D01*
X137850889Y-97584016D01*
X137825526Y-97594616D01*
X137821206Y-97593270D01*
X137791092Y-97572056D01*
X137739640Y-97528237D01*
X137671375Y-97465909D01*
X137590820Y-97389170D01*
X137502500Y-97302116D01*
X137210488Y-97009617D01*
X137665360Y-96340525D01*
X137596208Y-96190916D01*
X137596003Y-96190473D01*
X137554477Y-96095101D01*
X137512044Y-95988896D01*
X137477858Y-95894769D01*
X137472684Y-95879588D01*
X137446601Y-95809109D01*
X137423081Y-95754342D01*
X137406677Y-95726079D01*
X137399996Y-95722088D01*
X137359892Y-95708697D01*
X137291795Y-95691373D01*
X137203145Y-95671917D01*
X137101385Y-95652132D01*
X137070904Y-95646551D01*
X136960628Y-95626233D01*
X136857731Y-95607095D01*
X136772569Y-95591070D01*
X136715500Y-95580091D01*
X136612923Y-95559845D01*
X136612923Y-95132701D01*
X136612946Y-95080180D01*
X136613379Y-94952047D01*
X136614659Y-94856420D01*
X136617168Y-94788411D01*
X136621286Y-94743133D01*
X136627395Y-94715697D01*
X136635878Y-94701218D01*
X136647115Y-94694807D01*
X136657994Y-94692209D01*
X136702347Y-94683022D01*
X136773106Y-94668991D01*
X136863074Y-94651486D01*
X136965056Y-94631874D01*
X137071857Y-94611525D01*
X137176281Y-94591807D01*
X137271132Y-94574089D01*
X137349214Y-94559738D01*
X137403332Y-94550124D01*
X137426291Y-94546616D01*
X137427842Y-94544497D01*
X137440325Y-94517006D01*
X137461927Y-94464406D01*
X137489123Y-94395192D01*
X137526866Y-94301937D01*
X137573328Y-94194159D01*
X137616878Y-94099172D01*
X137626858Y-94077851D01*
X137654862Y-94011086D01*
X137671641Y-93959590D01*
X137673854Y-93933095D01*
X137672713Y-93931218D01*
X137654584Y-93903565D01*
X137618644Y-93849849D01*
X137568418Y-93775303D01*
X137507430Y-93685162D01*
X137439205Y-93584657D01*
X137362330Y-93470470D01*
X137304663Y-93381770D01*
X137265426Y-93316721D01*
X137242350Y-93271295D01*
X137233166Y-93241463D01*
X137235604Y-93223195D01*
X137236424Y-93221825D01*
X137258477Y-93195205D01*
X137303436Y-93146697D01*
X137366673Y-93081108D01*
X137443559Y-93003247D01*
X137529465Y-92917922D01*
X137618579Y-92831334D01*
X137705872Y-92749947D01*
X137770018Y-92695035D01*
X137812679Y-92665190D01*
X137835521Y-92659004D01*
X137838505Y-92660394D01*
X137869936Y-92679127D01*
X137926997Y-92715733D01*
X138004343Y-92766697D01*
X138096626Y-92828504D01*
X138198502Y-92897639D01*
X138530593Y-93124420D01*
X138680566Y-93056353D01*
X138684923Y-93054381D01*
X138777000Y-93014491D01*
X138874683Y-92974818D01*
X138957539Y-92943674D01*
X138957905Y-92943545D01*
X139023685Y-92919456D01*
X139074323Y-92899110D01*
X139098884Y-92886901D01*
X139099282Y-92886458D01*
X139107619Y-92861456D01*
X139121341Y-92804598D01*
X139139123Y-92722014D01*
X139159641Y-92619831D01*
X139181571Y-92504178D01*
X139182336Y-92500033D01*
X139204229Y-92382019D01*
X139224281Y-92275151D01*
X139241192Y-92186252D01*
X139253667Y-92122145D01*
X139260406Y-92089654D01*
X139260837Y-92087853D01*
X139265273Y-92073944D01*
X139274263Y-92063489D01*
X139292737Y-92055996D01*
X139325628Y-92050972D01*
X139377868Y-92047922D01*
X139454388Y-92046355D01*
X139560122Y-92045776D01*
X139700000Y-92045692D01*
X139717575Y-92045693D01*
G37*
%TD*%
M02*
